{"glyphs":{"0":{"ha":756,"x_min":44,"x_max":711,"o":"m 378 -19 q 251 8 311 -19 q 145 83 192 35 q 72 194 99 131 q 44 329 44 257 q 72 465 44 401 q 145 576 99 528 q 251 652 192 625 q 378 679 311 679 q 503 652 443 679 q 610 576 564 625 q 684 465 657 528 q 711 329 711 401 q 684 194 711 257 q 610 83 657 131 q 503 8 564 35 q 378 -19 443 -19 m 378 72 q 492 108 439 72 q 579 202 546 143 q 613 329 613 261 q 579 458 613 399 q 492 552 546 517 q 378 588 439 588 q 259 553 313 588 q 174 461 206 519 q 142 329 142 403 q 175 203 142 263 q 263 108 208 144 q 378 72 317 72 z "},"1":{"ha":483,"x_min":39,"x_max":442,"o":"m 39 0 l 39 42 q 104 46 63 42 q 182 64 146 50 l 182 575 l 53 575 l 49 619 q 271 679 175 639 l 299 661 l 299 64 q 377 46 335 50 q 442 42 419 42 l 442 0 l 39 0 z "},"2":{"ha":618,"x_min":47,"x_max":571,"o":"m 47 0 l 47 61 q 81 92 56 68 q 139 150 106 117 q 204 217 172 183 q 257 278 236 251 q 315 367 293 324 q 336 457 336 411 q 303 548 336 514 q 214 582 271 582 q 150 567 178 582 q 101 517 122 553 l 63 536 q 140 640 85 603 q 265 678 194 678 q 364 656 319 679 q 435 592 408 633 q 463 496 463 551 q 435 390 463 440 q 364 290 408 340 q 296 215 332 253 q 230 146 260 176 q 185 97 200 115 l 571 97 l 553 0 l 47 0 z "},"3":{"ha":549,"x_min":39,"x_max":499,"o":"m 190 194 l 169 238 q 309 342 260 286 q 358 463 358 397 q 334 542 358 513 q 270 581 310 572 q 185 576 231 590 q 99 521 140 561 l 64 549 q 156 640 99 601 q 281 678 213 678 q 372 659 328 678 q 444 601 415 640 q 474 499 474 561 q 446 390 474 439 q 365 300 418 342 q 428 231 397 269 q 478 144 458 192 q 499 42 499 97 q 454 -127 499 -57 q 339 -240 410 -197 q 189 -300 268 -283 q 39 -308 110 -317 l 44 -262 q 212 -233 135 -267 q 336 -138 289 -200 q 383 4 383 -76 q 363 97 383 54 q 310 172 342 139 q 250 225 279 204 q 190 194 222 210 z "},"4":{"ha":710,"x_min":47,"x_max":663,"o":"m 413 -265 l 413 36 l 71 36 l 47 74 l 486 679 l 525 656 l 525 114 l 663 114 l 649 36 l 525 36 l 525 -233 l 413 -265 m 163 114 l 413 114 l 413 460 l 163 114 z "},"5":{"ha":583,"x_min":42,"x_max":533,"o":"m 42 -304 l 46 -260 q 172 -247 111 -264 q 282 -197 233 -231 q 359 -115 331 -162 q 388 -12 388 -68 q 352 117 388 57 q 254 222 317 178 q 113 286 192 267 l 167 664 l 533 664 l 514 556 l 233 556 l 210 400 q 359 308 294 364 q 461 182 424 251 q 499 33 499 113 q 462 -118 499 -50 q 360 -233 425 -186 q 214 -299 296 -279 q 42 -304 132 -318 z "},"6":{"ha":675,"x_min":44,"x_max":631,"o":"m 325 -19 q 176 22 239 -19 q 78 135 113 64 q 44 293 44 206 q 84 501 44 401 q 193 690 124 601 q 353 852 263 779 q 546 976 444 925 l 571 935 q 417 823 490 888 q 286 680 343 758 q 197 513 229 601 q 164 329 164 424 q 190 199 164 263 q 260 94 215 135 q 363 53 306 53 q 449 81 415 53 q 498 153 482 110 q 514 239 514 196 q 494 322 514 281 q 440 393 474 363 q 362 433 406 424 q 271 421 318 442 l 250 467 q 365 508 300 504 q 491 487 431 513 q 591 407 551 461 q 631 274 631 353 q 592 132 631 199 q 484 23 553 65 q 325 -19 415 -19 z "},"7":{"ha":638,"x_min":39,"x_max":599,"o":"m 213 -310 l 138 -276 l 508 556 l 39 556 l 58 664 l 599 664 l 599 556 l 213 -310 z "},"8":{"ha":656,"x_min":51,"x_max":592,"o":"m 319 -21 q 184 10 244 -21 q 88 96 124 42 q 51 217 51 150 q 78 324 51 274 q 149 417 106 375 q 242 486 193 458 q 143 593 186 535 q 100 722 100 651 q 132 837 100 786 q 217 917 164 888 q 335 947 271 947 q 444 921 393 947 q 528 849 496 894 q 560 747 560 804 q 518 617 560 681 q 417 513 476 554 q 501 443 461 481 q 567 358 542 406 q 592 247 592 310 q 556 110 592 171 q 458 15 519 50 q 319 -21 397 -21 m 361 550 q 367 545 364 547 q 374 542 371 543 q 433 630 414 578 q 451 728 451 682 q 433 807 451 771 q 385 865 415 843 q 315 888 354 888 q 238 854 271 888 q 206 767 206 821 q 251 646 206 699 q 361 550 296 593 m 169 246 q 194 149 169 194 q 258 74 218 103 q 343 44 297 44 q 444 88 400 44 q 488 196 488 131 q 456 302 488 258 q 379 381 425 346 q 286 450 333 415 q 197 356 225 411 q 169 246 169 300 z "},"9":{"ha":689,"x_min":50,"x_max":639,"o":"m 138 -311 l 113 -269 q 278 -147 194 -222 q 422 26 361 -71 q 519 317 519 181 q 505 416 519 365 q 463 510 490 467 q 398 579 436 553 q 314 606 360 606 q 231 581 265 606 q 180 519 197 557 q 163 436 163 481 q 184 341 163 386 q 241 265 206 296 q 320 226 276 235 q 408 236 364 217 l 429 190 q 308 147 374 150 q 183 173 242 144 q 88 256 125 201 q 50 386 50 311 q 89 528 50 461 q 195 636 128 594 q 349 678 263 678 q 503 635 439 678 q 603 519 568 593 q 639 354 639 446 q 605 180 639 263 q 528 28 571 97 q 418 -108 482 -44 q 282 -222 354 -171 q 138 -311 210 -274 z "},"A":{"ha":993,"x_min":6,"x_max":1001,"o":"m 6 0 l 6 42 q 49 46 21 42 q 104 63 78 50 l 454 924 l 433 982 l 547 1024 l 896 64 q 954 46 924 50 q 1001 42 985 42 l 1001 0 l 644 0 l 644 42 q 700 46 664 42 q 767 64 736 50 l 664 346 l 300 346 l 185 64 q 252 46 217 50 q 307 42 288 42 l 307 0 l 6 0 m 493 818 l 329 417 l 639 417 l 493 818 z "},"Á":{"ha":993,"x_min":6,"x_max":1001,"o":"m 6 0 l 6 42 q 49 46 21 42 q 104 63 78 50 l 454 924 l 433 982 l 547 1024 l 896 64 q 954 46 924 50 q 1001 42 985 42 l 1001 0 l 644 0 l 644 42 q 700 46 664 42 q 767 64 736 50 l 664 346 l 300 346 l 185 64 q 252 46 217 50 q 307 42 288 42 l 307 0 l 6 0 m 493 818 l 329 417 l 639 417 l 493 818 m 438 1085 l 418 1118 l 704 1283 l 753 1200 l 438 1085 z "},"Ă":{"ha":993,"x_min":6,"x_max":1001,"o":"m 6 0 l 6 42 q 49 46 21 42 q 104 63 78 50 l 454 924 l 433 982 l 547 1024 l 896 64 q 954 46 924 50 q 1001 42 985 42 l 1001 0 l 644 0 l 644 42 q 700 46 664 42 q 767 64 736 50 l 664 346 l 300 346 l 185 64 q 252 46 217 50 q 307 42 288 42 l 307 0 l 6 0 m 493 818 l 329 417 l 639 417 l 493 818 m 501 1125 q 385 1158 443 1124 q 293 1282 326 1193 l 325 1299 q 408 1231 361 1244 q 501 1218 454 1218 q 594 1231 546 1218 q 678 1299 643 1244 l 710 1282 q 618 1160 675 1193 q 501 1125 561 1126 z "},"Â":{"ha":993,"x_min":6,"x_max":1001,"o":"m 6 0 l 6 42 q 49 46 21 42 q 104 63 78 50 l 454 924 l 433 982 l 547 1024 l 896 64 q 954 46 924 50 q 1001 42 985 42 l 1001 0 l 644 0 l 644 42 q 700 46 664 42 q 767 64 736 50 l 664 346 l 300 346 l 185 64 q 252 46 217 50 q 307 42 288 42 l 307 0 l 6 0 m 493 818 l 329 417 l 639 417 l 493 818 m 288 1096 l 261 1128 l 485 1317 l 518 1317 l 742 1128 l 715 1096 l 501 1218 l 288 1096 z "},"Ä":{"ha":993,"x_min":6,"x_max":1001,"o":"m 6 0 l 6 42 q 49 46 21 42 q 104 63 78 50 l 454 924 l 433 982 l 547 1024 l 896 64 q 954 46 924 50 q 1001 42 985 42 l 1001 0 l 644 0 l 644 42 q 700 46 664 42 q 767 64 736 50 l 664 346 l 300 346 l 185 64 q 252 46 217 50 q 307 42 288 42 l 307 0 l 6 0 m 493 818 l 329 417 l 639 417 l 493 818 m 375 1111 q 326 1131 346 1111 q 307 1178 307 1150 q 326 1226 307 1206 q 375 1247 346 1247 q 424 1228 404 1247 q 444 1181 444 1208 q 424 1132 444 1153 q 375 1111 404 1111 m 626 1111 q 578 1131 597 1111 q 558 1178 558 1150 q 578 1226 558 1206 q 626 1247 597 1247 q 676 1228 656 1247 q 696 1181 696 1208 q 676 1132 696 1153 q 626 1111 656 1111 z "},"Ạ":{"ha":993,"x_min":6,"x_max":1001,"o":"m 6 0 l 6 42 q 49 46 21 42 q 104 63 78 50 l 454 924 l 433 982 l 547 1024 l 896 64 q 954 46 924 50 q 1001 42 985 42 l 1001 0 l 644 0 l 644 42 q 700 46 664 42 q 767 64 736 50 l 664 346 l 300 346 l 185 64 q 252 46 217 50 q 307 42 288 42 l 307 0 l 6 0 m 493 818 l 329 417 l 639 417 l 493 818 m 476 -251 q 422 -229 443 -251 q 400 -175 400 -207 q 422 -121 400 -144 q 476 -97 443 -97 q 532 -119 510 -97 q 554 -174 554 -142 q 532 -228 554 -204 q 476 -251 510 -251 z "},"À":{"ha":993,"x_min":6,"x_max":1001,"o":"m 6 0 l 6 42 q 49 46 21 42 q 104 63 78 50 l 454 924 l 433 982 l 547 1024 l 896 64 q 954 46 924 50 q 1001 42 985 42 l 1001 0 l 644 0 l 644 42 q 700 46 664 42 q 767 64 736 50 l 664 346 l 300 346 l 185 64 q 252 46 217 50 q 307 42 288 42 l 307 0 l 6 0 m 493 818 l 329 417 l 639 417 l 493 818 m 593 1096 l 278 1211 l 326 1294 l 613 1129 l 593 1096 z "},"Ā":{"ha":993,"x_min":6,"x_max":1001,"o":"m 6 0 l 6 42 q 49 46 21 42 q 104 63 78 50 l 454 924 l 433 982 l 547 1024 l 896 64 q 954 46 924 50 q 1001 42 985 42 l 1001 0 l 644 0 l 644 42 q 700 46 664 42 q 767 64 736 50 l 664 346 l 300 346 l 185 64 q 252 46 217 50 q 307 42 288 42 l 307 0 l 6 0 m 493 818 l 329 417 l 639 417 l 493 818 m 265 1119 l 265 1186 l 738 1186 l 738 1119 l 265 1119 z "},"Ą":{"ha":993,"x_min":6,"x_max":1001,"o":"m 6 0 l 6 42 q 49 46 21 42 q 104 63 78 50 l 454 924 l 433 982 l 547 1024 l 896 64 q 954 46 924 50 q 1001 42 985 42 l 1001 0 l 644 0 l 644 42 q 700 46 664 42 q 767 64 736 50 l 664 346 l 300 346 l 185 64 q 252 46 217 50 q 307 42 288 42 l 307 0 l 6 0 m 493 818 l 329 417 l 639 417 l 493 818 m 813 -333 q 726 -308 761 -333 q 690 -225 690 -282 q 728 -113 690 -167 q 847 0 767 -60 l 901 0 q 817 -99 849 -50 q 786 -187 786 -147 q 806 -244 786 -222 q 863 -267 826 -267 q 901 -259 882 -267 q 931 -242 919 -251 l 946 -264 q 884 -313 922 -293 q 813 -333 846 -333 z "},"Å":{"ha":993,"x_min":6,"x_max":1001,"o":"m 6 0 l 6 42 q 49 46 21 42 q 104 63 78 50 l 454 924 l 433 982 l 547 1024 l 896 64 q 954 46 924 50 q 1001 42 985 42 l 1001 0 l 644 0 l 644 42 q 700 46 664 42 q 767 64 736 50 l 664 346 l 300 346 l 185 64 q 252 46 217 50 q 307 42 288 42 l 307 0 l 6 0 m 493 818 l 329 417 l 639 417 l 493 818 m 501 1111 q 411 1147 450 1111 q 372 1240 372 1183 q 410 1334 372 1294 q 500 1374 447 1374 q 592 1335 554 1374 q 629 1243 629 1296 q 592 1151 629 1190 q 501 1111 554 1111 m 508 1156 q 551 1176 535 1158 q 568 1231 568 1193 q 547 1295 568 1264 q 493 1326 525 1326 q 451 1306 469 1326 q 433 1253 433 1285 q 454 1185 433 1218 q 508 1156 475 1153 z "},"Ǻ":{"ha":993,"x_min":6,"x_max":1001,"o":"m 425 1367 l 407 1397 l 664 1546 l 708 1471 l 425 1367 m 499 1058 q 408 1094 447 1058 q 369 1188 369 1131 q 407 1281 369 1242 q 497 1321 444 1321 q 589 1282 551 1321 q 626 1190 626 1243 q 589 1098 626 1138 q 499 1058 551 1058 m 506 1103 q 549 1123 532 1106 q 565 1178 565 1140 q 544 1242 565 1211 q 490 1274 522 1274 q 449 1253 467 1274 q 431 1200 431 1232 q 451 1133 431 1165 q 506 1103 472 1100 m 6 0 l 6 42 q 49 46 21 42 q 104 63 78 50 l 454 924 l 433 982 l 547 1024 l 896 64 q 954 46 924 50 q 1001 42 985 42 l 1001 0 l 644 0 l 644 42 q 700 46 664 42 q 767 64 736 50 l 664 346 l 300 346 l 185 64 q 252 46 217 50 q 307 42 288 42 l 307 0 l 6 0 m 493 818 l 329 417 l 639 417 l 493 818 z "},"Ã":{"ha":993,"x_min":6,"x_max":1001,"o":"m 6 0 l 6 42 q 49 46 21 42 q 104 63 78 50 l 454 924 l 433 982 l 547 1024 l 896 64 q 954 46 924 50 q 1001 42 985 42 l 1001 0 l 644 0 l 644 42 q 700 46 664 42 q 767 64 736 50 l 664 346 l 300 346 l 185 64 q 252 46 217 50 q 307 42 288 42 l 307 0 l 6 0 m 493 818 l 329 417 l 639 417 l 493 818 m 314 1103 l 285 1118 q 318 1177 297 1144 q 369 1235 339 1210 q 433 1261 399 1260 q 496 1253 469 1264 q 543 1228 522 1243 q 585 1203 564 1214 q 631 1193 606 1192 q 691 1217 671 1196 q 729 1269 711 1239 l 758 1254 q 726 1197 747 1229 q 675 1139 704 1164 q 610 1111 646 1114 q 549 1120 575 1110 q 501 1145 522 1131 q 459 1171 481 1160 q 413 1181 438 1182 q 353 1155 372 1178 q 314 1103 333 1132 z "},"Æ":{"ha":1276,"x_min":6,"x_max":1242,"o":"m 6 0 l 6 42 q 49 46 21 42 q 104 63 78 50 l 563 925 q 506 938 535 935 q 461 940 478 940 l 461 982 l 1163 982 l 1169 793 l 1124 790 q 1117 847 1122 814 q 1096 911 1111 881 l 760 911 l 760 546 l 1049 546 q 1060 600 1057 574 q 1063 643 1063 626 l 1107 643 l 1107 365 l 1063 365 q 1060 415 1063 383 q 1046 475 1057 446 l 760 475 l 760 71 l 1124 71 q 1158 126 1142 94 q 1185 185 1174 158 q 1199 221 1196 213 l 1242 210 l 1196 0 l 517 0 l 517 42 q 572 46 536 42 q 639 64 608 50 l 639 346 l 339 346 l 189 64 q 256 46 221 50 q 311 42 292 42 l 311 0 l 6 0 m 639 908 l 376 417 l 639 417 l 639 908 z "},"Ǽ":{"ha":1276,"x_min":6,"x_max":1242,"o":"m 6 0 l 6 42 q 49 46 21 42 q 104 63 78 50 l 563 925 q 506 938 535 935 q 461 940 478 940 l 461 982 l 1163 982 l 1169 793 l 1124 790 q 1117 847 1122 814 q 1096 911 1111 881 l 760 911 l 760 546 l 1049 546 q 1060 600 1057 574 q 1063 643 1063 626 l 1107 643 l 1107 365 l 1063 365 q 1060 415 1063 383 q 1046 475 1057 446 l 760 475 l 760 71 l 1124 71 q 1158 126 1142 94 q 1185 185 1174 158 q 1199 221 1196 213 l 1242 210 l 1196 0 l 517 0 l 517 42 q 572 46 536 42 q 639 64 608 50 l 639 346 l 339 346 l 189 64 q 256 46 221 50 q 311 42 292 42 l 311 0 l 6 0 m 639 908 l 376 417 l 639 417 l 639 908 m 749 1096 l 729 1129 l 1015 1294 l 1064 1211 l 749 1096 z "},"B":{"ha":868,"x_min":69,"x_max":839,"o":"m 69 0 l 69 42 q 125 46 89 42 q 192 64 161 50 l 192 929 q 126 938 158 936 q 74 936 93 939 l 69 978 q 249 991 179 986 q 369 999 319 996 q 467 1001 419 1001 q 635 962 575 1001 q 722 864 696 922 q 739 741 750 804 q 692 627 728 678 q 606 553 656 576 q 686 515 640 542 q 772 442 732 488 q 826 331 811 396 q 826 220 839 278 q 774 113 814 163 q 665 31 733 63 q 500 0 597 0 l 69 0 m 313 549 q 354 548 325 549 q 419 549 383 547 q 490 558 456 550 q 550 582 525 565 q 601 639 581 601 q 626 724 622 676 q 610 817 629 771 q 499 926 574 903 q 313 935 424 949 l 313 549 m 576 75 q 686 158 651 99 q 700 301 721 217 q 642 404 685 363 q 544 464 600 446 q 427 485 489 485 q 313 485 365 485 l 313 96 q 376 70 332 81 q 476 60 421 60 q 576 75 531 61 z "},"C":{"ha":1029,"x_min":58,"x_max":994,"o":"m 886 18 q 582 -18 718 -26 q 344 41 446 -10 q 178 174 243 92 q 86 357 114 256 q 74 559 58 460 q 140 745 89 658 q 272 894 192 832 q 456 983 353 957 q 626 1003 540 1007 q 787 983 713 999 q 907 956 861 968 l 935 758 l 893 750 q 792 882 860 839 q 639 933 724 925 q 472 918 554 940 q 338 847 396 897 q 247 726 281 797 q 205 569 213 654 q 221 393 197 483 q 290 240 242 310 q 403 123 338 171 q 546 56 469 75 q 701 53 622 36 q 801 86 760 65 q 878 145 842 107 q 953 244 914 183 l 994 224 l 886 18 z "},"Ć":{"ha":1029,"x_min":58,"x_max":994,"o":"m 886 18 q 582 -18 718 -26 q 344 41 446 -10 q 178 174 243 92 q 86 357 114 256 q 74 559 58 460 q 140 745 89 658 q 272 894 192 832 q 456 983 353 957 q 626 1003 540 1007 q 787 983 713 999 q 907 956 861 968 l 935 758 l 893 750 q 792 882 860 839 q 639 933 724 925 q 472 918 554 940 q 338 847 396 897 q 247 726 281 797 q 205 569 213 654 q 221 393 197 483 q 290 240 242 310 q 403 123 338 171 q 546 56 469 75 q 701 53 622 36 q 801 86 760 65 q 878 145 842 107 q 953 244 914 183 l 994 224 l 886 18 m 497 1085 l 478 1118 l 764 1283 l 813 1200 l 497 1085 z "},"Č":{"ha":1029,"x_min":58,"x_max":994,"o":"m 886 18 q 582 -18 718 -26 q 344 41 446 -10 q 178 174 243 92 q 86 357 114 256 q 74 559 58 460 q 140 745 89 658 q 272 894 192 832 q 456 983 353 957 q 626 1003 540 1007 q 787 983 713 999 q 907 956 861 968 l 935 758 l 893 750 q 792 882 860 839 q 639 933 724 925 q 472 918 554 940 q 338 847 396 897 q 247 726 281 797 q 205 569 213 654 q 221 393 197 483 q 290 240 242 310 q 403 123 338 171 q 546 56 469 75 q 701 53 622 36 q 801 86 760 65 q 878 145 842 107 q 953 244 914 183 l 994 224 l 886 18 m 779 1326 l 806 1294 l 582 1106 l 549 1106 l 325 1294 l 351 1326 l 565 1204 l 779 1326 z "},"Ç":{"ha":1029,"x_min":58,"x_max":994,"o":"m 886 18 q 582 -18 718 -26 q 344 41 446 -10 q 178 174 243 92 q 86 357 114 256 q 74 559 58 460 q 140 745 89 658 q 272 894 192 832 q 456 983 353 957 q 626 1003 540 1007 q 787 983 713 999 q 907 956 861 968 l 935 758 l 893 750 q 792 882 860 839 q 639 933 724 925 q 472 918 554 940 q 338 847 396 897 q 247 726 281 797 q 205 569 213 654 q 221 393 197 483 q 290 240 242 310 q 403 123 338 171 q 546 56 469 75 q 701 53 622 36 q 801 86 760 65 q 878 145 842 107 q 953 244 914 183 l 994 224 l 886 18 m 553 -333 q 482 -317 514 -333 q 431 -274 450 -300 l 453 -251 q 492 -281 469 -269 q 536 -292 515 -292 q 582 -272 565 -292 q 599 -225 599 -251 q 578 -170 599 -193 q 533 -133 558 -147 q 489 -115 507 -118 l 547 0 l 608 0 l 575 -64 q 649 -119 614 -85 q 685 -210 685 -153 q 648 -300 685 -267 q 553 -333 611 -333 z "},"Ĉ":{"ha":1029,"x_min":58,"x_max":994,"o":"m 886 18 q 582 -18 718 -26 q 344 41 446 -10 q 178 174 243 92 q 86 357 114 256 q 74 559 58 460 q 140 745 89 658 q 272 894 192 832 q 456 983 353 957 q 626 1003 540 1007 q 787 983 713 999 q 907 956 861 968 l 935 758 l 893 750 q 792 882 860 839 q 639 933 724 925 q 472 918 554 940 q 338 847 396 897 q 247 726 281 797 q 205 569 213 654 q 221 393 197 483 q 290 240 242 310 q 403 123 338 171 q 546 56 469 75 q 701 53 622 36 q 801 86 760 65 q 878 145 842 107 q 953 244 914 183 l 994 224 l 886 18 m 347 1096 l 321 1128 l 544 1317 l 578 1317 l 801 1128 l 775 1096 l 561 1218 l 347 1096 z "},"Ċ":{"ha":1029,"x_min":58,"x_max":994,"o":"m 886 18 q 582 -18 718 -26 q 344 41 446 -10 q 178 174 243 92 q 86 357 114 256 q 74 559 58 460 q 140 745 89 658 q 272 894 192 832 q 456 983 353 957 q 626 1003 540 1007 q 787 983 713 999 q 907 956 861 968 l 935 758 l 893 750 q 792 882 860 839 q 639 933 724 925 q 472 918 554 940 q 338 847 396 897 q 247 726 281 797 q 205 569 213 654 q 221 393 197 483 q 290 240 242 310 q 403 123 338 171 q 546 56 469 75 q 701 53 622 36 q 801 86 760 65 q 878 145 842 107 q 953 244 914 183 l 994 224 l 886 18 m 561 1111 q 506 1133 528 1111 q 485 1188 485 1156 q 506 1242 485 1218 q 561 1265 528 1265 q 617 1243 594 1265 q 639 1189 639 1221 q 617 1135 639 1158 q 561 1111 594 1111 z "},"D":{"ha":1156,"x_min":69,"x_max":1086,"o":"m 69 0 l 69 42 q 125 46 89 42 q 192 64 161 50 l 192 922 q 126 931 158 929 q 74 929 93 932 l 69 971 q 263 990 164 979 q 461 1001 363 1001 q 782 945 640 1001 q 1005 778 924 889 q 1086 506 1086 668 q 1033 296 1086 394 q 891 127 981 197 q 688 26 801 57 q 569 7 642 14 q 431 0 496 0 l 69 0 m 490 65 q 730 114 626 65 q 892 253 833 163 q 950 468 950 343 q 883 717 950 613 q 698 879 815 822 q 431 936 581 936 q 313 928 375 936 l 313 96 q 393 74 349 82 q 490 65 438 65 z "},"Ð":{"ha":1161,"x_min":69,"x_max":1092,"o":"m 75 0 l 75 42 q 131 46 94 42 q 197 64 167 50 l 197 478 l 69 478 l 69 536 l 197 536 l 197 922 q 131 931 164 929 q 79 929 99 932 l 75 971 q 269 990 169 979 q 467 1001 368 1001 q 788 945 646 1001 q 1010 778 929 889 q 1092 506 1092 668 q 1039 296 1092 394 q 897 127 986 197 q 693 26 807 57 q 574 7 647 14 q 436 0 501 0 l 75 0 m 496 65 q 735 114 632 65 q 897 253 839 163 q 956 468 956 343 q 888 717 956 613 q 703 879 821 822 q 436 936 586 936 q 318 928 381 936 l 318 536 l 582 536 l 582 478 l 318 478 l 318 96 q 399 74 354 82 q 496 65 443 65 z "},"Ď":{"ha":1156,"x_min":69,"x_max":1086,"o":"m 69 0 l 69 42 q 125 46 89 42 q 192 64 161 50 l 192 922 q 126 931 158 929 q 74 929 93 932 l 69 971 q 263 990 164 979 q 461 1001 363 1001 q 782 945 640 1001 q 1005 778 924 889 q 1086 506 1086 668 q 1033 296 1086 394 q 891 127 981 197 q 688 26 801 57 q 569 7 642 14 q 431 0 496 0 l 69 0 m 490 65 q 730 114 626 65 q 892 253 833 163 q 950 468 950 343 q 883 717 950 613 q 698 879 815 822 q 431 936 581 936 q 313 928 375 936 l 313 96 q 393 74 349 82 q 490 65 438 65 m 746 1326 l 772 1294 l 549 1106 l 515 1106 l 292 1294 l 318 1326 l 532 1204 l 746 1326 z "},"Đ":{"ha":1161,"x_min":69,"x_max":1092,"o":"m 75 0 l 75 42 q 131 46 94 42 q 197 64 167 50 l 197 478 l 69 478 l 69 536 l 197 536 l 197 922 q 131 931 164 929 q 79 929 99 932 l 75 971 q 269 990 169 979 q 467 1001 368 1001 q 788 945 646 1001 q 1010 778 929 889 q 1092 506 1092 668 q 1039 296 1092 394 q 897 127 986 197 q 693 26 807 57 q 574 7 647 14 q 436 0 501 0 l 75 0 m 496 65 q 735 114 632 65 q 897 253 839 163 q 956 468 956 343 q 888 717 956 613 q 703 879 821 822 q 436 936 586 936 q 318 928 381 936 l 318 536 l 582 536 l 582 478 l 318 478 l 318 96 q 399 74 354 82 q 496 65 443 65 z "},"E":{"ha":831,"x_min":69,"x_max":796,"o":"m 69 0 l 69 42 q 125 46 89 42 q 192 64 161 50 l 192 918 q 125 936 161 932 q 69 940 89 940 l 69 982 l 715 982 l 722 793 l 678 790 q 670 847 676 814 q 650 911 664 881 l 313 911 l 313 546 l 603 546 q 613 600 610 574 q 615 643 615 626 l 660 643 l 660 365 l 615 365 q 613 415 615 383 q 599 475 610 446 l 313 475 l 313 71 l 678 71 q 712 126 696 94 q 739 185 728 158 q 751 221 750 213 l 796 210 l 750 0 l 69 0 z "},"É":{"ha":831,"x_min":69,"x_max":796,"o":"m 69 0 l 69 42 q 125 46 89 42 q 192 64 161 50 l 192 918 q 125 936 161 932 q 69 940 89 940 l 69 982 l 715 982 l 722 793 l 678 790 q 670 847 676 814 q 650 911 664 881 l 313 911 l 313 546 l 603 546 q 613 600 610 574 q 615 643 615 626 l 660 643 l 660 365 l 615 365 q 613 415 615 383 q 599 475 610 446 l 313 475 l 313 71 l 678 71 q 712 126 696 94 q 739 185 728 158 q 751 221 750 213 l 796 210 l 750 0 l 69 0 m 372 1085 l 353 1118 l 639 1283 l 688 1200 l 372 1085 z "},"Ĕ":{"ha":831,"x_min":69,"x_max":796,"o":"m 69 0 l 69 42 q 125 46 89 42 q 192 64 161 50 l 192 918 q 125 936 161 932 q 69 940 89 940 l 69 982 l 715 982 l 722 793 l 678 790 q 670 847 676 814 q 650 911 664 881 l 313 911 l 313 546 l 603 546 q 613 600 610 574 q 615 643 615 626 l 660 643 l 660 365 l 615 365 q 613 415 615 383 q 599 475 610 446 l 313 475 l 313 71 l 678 71 q 712 126 696 94 q 739 185 728 158 q 751 221 750 213 l 796 210 l 750 0 l 69 0 m 436 1125 q 319 1158 378 1124 q 228 1282 261 1193 l 260 1299 q 342 1231 296 1244 q 436 1218 389 1218 q 529 1231 481 1218 q 613 1299 578 1244 l 644 1282 q 553 1160 610 1193 q 436 1125 496 1126 z "},"Ě":{"ha":831,"x_min":69,"x_max":796,"o":"m 69 0 l 69 42 q 125 46 89 42 q 192 64 161 50 l 192 918 q 125 936 161 932 q 69 940 89 940 l 69 982 l 715 982 l 722 793 l 678 790 q 670 847 676 814 q 650 911 664 881 l 313 911 l 313 546 l 603 546 q 613 600 610 574 q 615 643 615 626 l 660 643 l 660 365 l 615 365 q 613 415 615 383 q 599 475 610 446 l 313 475 l 313 71 l 678 71 q 712 126 696 94 q 739 185 728 158 q 751 221 750 213 l 796 210 l 750 0 l 69 0 m 654 1326 l 681 1294 l 457 1106 l 424 1106 l 200 1294 l 226 1326 l 440 1204 l 654 1326 z "},"Ê":{"ha":831,"x_min":69,"x_max":796,"o":"m 69 0 l 69 42 q 125 46 89 42 q 192 64 161 50 l 192 918 q 125 936 161 932 q 69 940 89 940 l 69 982 l 715 982 l 722 793 l 678 790 q 670 847 676 814 q 650 911 664 881 l 313 911 l 313 546 l 603 546 q 613 600 610 574 q 615 643 615 626 l 660 643 l 660 365 l 615 365 q 613 415 615 383 q 599 475 610 446 l 313 475 l 313 71 l 678 71 q 712 126 696 94 q 739 185 728 158 q 751 221 750 213 l 796 210 l 750 0 l 69 0 m 222 1096 l 196 1128 l 419 1317 l 453 1317 l 676 1128 l 650 1096 l 436 1218 l 222 1096 z "},"Ë":{"ha":831,"x_min":69,"x_max":796,"o":"m 69 0 l 69 42 q 125 46 89 42 q 192 64 161 50 l 192 918 q 125 936 161 932 q 69 940 89 940 l 69 982 l 715 982 l 722 793 l 678 790 q 670 847 676 814 q 650 911 664 881 l 313 911 l 313 546 l 603 546 q 613 600 610 574 q 615 643 615 626 l 660 643 l 660 365 l 615 365 q 613 415 615 383 q 599 475 610 446 l 313 475 l 313 71 l 678 71 q 712 126 696 94 q 739 185 728 158 q 751 221 750 213 l 796 210 l 750 0 l 69 0 m 310 1111 q 261 1131 281 1111 q 242 1178 242 1150 q 261 1226 242 1206 q 310 1247 281 1247 q 359 1228 339 1247 q 379 1181 379 1208 q 359 1132 379 1153 q 310 1111 339 1111 m 561 1111 q 513 1131 532 1111 q 493 1178 493 1150 q 513 1226 493 1206 q 561 1247 532 1247 q 610 1228 590 1247 q 631 1181 631 1208 q 610 1132 631 1153 q 561 1111 590 1111 z "},"Ė":{"ha":831,"x_min":69,"x_max":796,"o":"m 69 0 l 69 42 q 125 46 89 42 q 192 64 161 50 l 192 918 q 125 936 161 932 q 69 940 89 940 l 69 982 l 715 982 l 722 793 l 678 790 q 670 847 676 814 q 650 911 664 881 l 313 911 l 313 546 l 603 546 q 613 600 610 574 q 615 643 615 626 l 660 643 l 660 365 l 615 365 q 613 415 615 383 q 599 475 610 446 l 313 475 l 313 71 l 678 71 q 712 126 696 94 q 739 185 728 158 q 751 221 750 213 l 796 210 l 750 0 l 69 0 m 436 1111 q 381 1133 403 1111 q 360 1188 360 1156 q 381 1242 360 1218 q 436 1265 403 1265 q 492 1243 469 1265 q 514 1189 514 1221 q 492 1135 514 1158 q 436 1111 469 1111 z "},"Ẹ":{"ha":831,"x_min":69,"x_max":796,"o":"m 69 0 l 69 42 q 125 46 89 42 q 192 64 161 50 l 192 918 q 125 936 161 932 q 69 940 89 940 l 69 982 l 715 982 l 722 793 l 678 790 q 670 847 676 814 q 650 911 664 881 l 313 911 l 313 546 l 603 546 q 613 600 610 574 q 615 643 615 626 l 660 643 l 660 365 l 615 365 q 613 415 615 383 q 599 475 610 446 l 313 475 l 313 71 l 678 71 q 712 126 696 94 q 739 185 728 158 q 751 221 750 213 l 796 210 l 750 0 l 69 0 m 449 -251 q 394 -229 415 -251 q 372 -175 372 -207 q 394 -121 372 -144 q 449 -97 415 -97 q 504 -119 482 -97 q 526 -174 526 -142 q 504 -228 526 -204 q 449 -251 482 -251 z "},"È":{"ha":831,"x_min":69,"x_max":796,"o":"m 69 0 l 69 42 q 125 46 89 42 q 192 64 161 50 l 192 918 q 125 936 161 932 q 69 940 89 940 l 69 982 l 715 982 l 722 793 l 678 790 q 670 847 676 814 q 650 911 664 881 l 313 911 l 313 546 l 603 546 q 613 600 610 574 q 615 643 615 626 l 660 643 l 660 365 l 615 365 q 613 415 615 383 q 599 475 610 446 l 313 475 l 313 71 l 678 71 q 712 126 696 94 q 739 185 728 158 q 751 221 750 213 l 796 210 l 750 0 l 69 0 m 528 1096 l 213 1211 l 261 1294 l 547 1129 l 528 1096 z "},"Ē":{"ha":831,"x_min":69,"x_max":796,"o":"m 69 0 l 69 42 q 125 46 89 42 q 192 64 161 50 l 192 918 q 125 936 161 932 q 69 940 89 940 l 69 982 l 715 982 l 722 793 l 678 790 q 670 847 676 814 q 650 911 664 881 l 313 911 l 313 546 l 603 546 q 613 600 610 574 q 615 643 615 626 l 660 643 l 660 365 l 615 365 q 613 415 615 383 q 599 475 610 446 l 313 475 l 313 71 l 678 71 q 712 126 696 94 q 739 185 728 158 q 751 221 750 213 l 796 210 l 750 0 l 69 0 m 200 1119 l 200 1186 l 672 1186 l 672 1119 l 200 1119 z "},"Ę":{"ha":831,"x_min":69,"x_max":796,"o":"m 69 0 l 69 42 q 125 46 89 42 q 192 64 161 50 l 192 918 q 125 936 161 932 q 69 940 89 940 l 69 982 l 715 982 l 722 793 l 678 790 q 670 847 676 814 q 650 911 664 881 l 313 911 l 313 546 l 603 546 q 613 600 610 574 q 615 643 615 626 l 660 643 l 660 365 l 615 365 q 613 415 615 383 q 599 475 610 446 l 313 475 l 313 71 l 678 71 q 712 126 696 94 q 739 185 728 158 q 751 221 750 213 l 796 210 l 750 0 l 69 0 m 569 -333 q 483 -308 518 -333 q 447 -225 447 -282 q 485 -113 447 -167 q 604 0 524 -60 l 658 0 q 574 -99 606 -50 q 543 -187 543 -147 q 563 -244 543 -222 q 619 -267 583 -267 q 658 -259 639 -267 q 688 -242 676 -251 l 703 -264 q 641 -313 679 -293 q 569 -333 603 -333 z "},"Ẽ":{"ha":831,"x_min":69,"x_max":796,"o":"m 69 0 l 69 42 q 125 46 89 42 q 192 64 161 50 l 192 918 q 125 936 161 932 q 69 940 89 940 l 69 982 l 715 982 l 722 793 l 678 790 q 670 847 676 814 q 650 911 664 881 l 313 911 l 313 546 l 603 546 q 613 600 610 574 q 615 643 615 626 l 660 643 l 660 365 l 615 365 q 613 415 615 383 q 599 475 610 446 l 313 475 l 313 71 l 678 71 q 712 126 696 94 q 739 185 728 158 q 751 221 750 213 l 796 210 l 750 0 l 69 0 m 249 1103 l 219 1118 q 253 1177 232 1144 q 303 1235 274 1210 q 368 1261 333 1260 q 431 1253 404 1264 q 478 1228 457 1243 q 519 1203 499 1214 q 565 1193 540 1192 q 626 1217 606 1196 q 664 1269 646 1239 l 693 1254 q 660 1197 682 1229 q 610 1139 639 1164 q 544 1111 581 1114 q 483 1120 510 1110 q 436 1145 457 1131 q 394 1171 415 1160 q 347 1181 372 1182 q 288 1155 307 1178 q 249 1103 268 1132 z "},"Ə":{"ha":1019,"x_min":49,"x_max":950,"o":"m 479 -19 q 306 10 388 -19 q 166 97 225 40 q 78 230 107 153 q 58 401 49 307 l 822 401 q 824 443 824 422 q 793 628 824 542 q 708 783 763 715 q 578 888 653 850 q 418 926 504 926 q 307 906 360 926 q 214 857 254 885 q 150 806 174 829 l 108 846 q 175 909 129 872 q 290 974 221 946 q 450 1001 358 1001 q 647 963 556 1001 q 806 856 738 925 q 912 697 874 788 q 950 500 950 606 q 887 216 950 332 q 717 40 824 100 q 479 -19 610 -19 m 482 47 q 650 85 582 47 q 758 188 718 124 q 813 331 797 253 l 199 331 q 219 237 199 286 q 276 144 239 188 q 365 74 313 101 q 482 47 418 47 z "},"F":{"ha":757,"x_min":69,"x_max":722,"o":"m 69 0 l 69 42 q 125 46 89 42 q 192 64 161 50 l 192 918 q 125 936 161 932 q 69 940 89 940 l 69 982 l 715 982 l 722 793 l 678 790 q 670 847 676 814 q 650 911 664 881 l 313 911 l 313 531 l 597 531 q 608 585 606 558 q 611 628 611 613 l 653 628 l 653 350 l 611 350 q 608 399 611 368 q 594 460 606 431 l 313 460 l 313 64 q 386 46 347 50 q 447 42 425 42 l 447 0 l 69 0 z "},"G":{"ha":1111,"x_min":60,"x_max":1056,"o":"m 576 -18 q 361 33 461 -11 q 189 158 261 76 q 86 356 117 239 q 75 558 60 458 q 141 743 90 657 q 272 892 192 829 q 454 982 353 954 q 588 1000 518 999 q 725 994 658 1001 q 847 974 792 986 q 936 953 903 963 l 965 756 l 924 747 q 849 855 899 814 q 735 915 799 896 q 602 933 671 933 q 472 915 533 932 q 337 844 394 894 q 245 723 279 794 q 204 566 211 651 q 221 390 197 481 q 277 260 238 324 q 376 144 317 196 q 510 65 435 93 q 673 42 585 36 q 858 96 761 47 l 858 306 q 792 324 828 319 q 736 328 756 328 l 736 372 l 1056 372 l 1056 328 q 1015 320 1039 328 q 979 306 990 313 l 979 104 q 994 85 983 94 q 1015 71 1006 76 l 1015 22 q 882 7 950 19 q 739 -15 814 -6 q 576 -18 664 -24 z "},"Ǵ":{"ha":1111,"x_min":60,"x_max":1056,"o":"m 576 -18 q 361 33 461 -11 q 189 158 261 76 q 86 356 117 239 q 75 558 60 458 q 141 743 90 657 q 272 892 192 829 q 454 982 353 954 q 588 1000 518 999 q 725 994 658 1001 q 847 974 792 986 q 936 953 903 963 l 965 756 l 924 747 q 849 855 899 814 q 735 915 799 896 q 602 933 671 933 q 472 915 533 932 q 337 844 394 894 q 245 723 279 794 q 204 566 211 651 q 221 390 197 481 q 277 260 238 324 q 376 144 317 196 q 510 65 435 93 q 673 42 585 36 q 858 96 761 47 l 858 306 q 792 324 828 319 q 736 328 756 328 l 736 372 l 1056 372 l 1056 328 q 1015 320 1039 328 q 979 306 990 313 l 979 104 q 994 85 983 94 q 1015 71 1006 76 l 1015 22 q 882 7 950 19 q 739 -15 814 -6 q 576 -18 664 -24 m 533 1085 l 514 1118 l 800 1283 l 849 1200 l 533 1085 z "},"Ğ":{"ha":1111,"x_min":60,"x_max":1056,"o":"m 576 -18 q 361 33 461 -11 q 189 158 261 76 q 86 356 117 239 q 75 558 60 458 q 141 743 90 657 q 272 892 192 829 q 454 982 353 954 q 588 1000 518 999 q 725 994 658 1001 q 847 974 792 986 q 936 953 903 963 l 965 756 l 924 747 q 849 855 899 814 q 735 915 799 896 q 602 933 671 933 q 472 915 533 932 q 337 844 394 894 q 245 723 279 794 q 204 566 211 651 q 221 390 197 481 q 277 260 238 324 q 376 144 317 196 q 510 65 435 93 q 673 42 585 36 q 858 96 761 47 l 858 306 q 792 324 828 319 q 736 328 756 328 l 736 372 l 1056 372 l 1056 328 q 1015 320 1039 328 q 979 306 990 313 l 979 104 q 994 85 983 94 q 1015 71 1006 76 l 1015 22 q 882 7 950 19 q 739 -15 814 -6 q 576 -18 664 -24 m 597 1125 q 481 1158 539 1124 q 389 1282 422 1193 l 421 1299 q 503 1231 457 1244 q 597 1218 550 1218 q 690 1231 642 1218 q 774 1299 739 1244 l 806 1282 q 714 1160 771 1193 q 597 1125 657 1126 z "},"Ǧ":{"ha":1111,"x_min":60,"x_max":1056,"o":"m 576 -18 q 361 33 461 -11 q 189 158 261 76 q 86 356 117 239 q 75 558 60 458 q 141 743 90 657 q 272 892 192 829 q 454 982 353 954 q 588 1000 518 999 q 725 994 658 1001 q 847 974 792 986 q 936 953 903 963 l 965 756 l 924 747 q 849 855 899 814 q 735 915 799 896 q 602 933 671 933 q 472 915 533 932 q 337 844 394 894 q 245 723 279 794 q 204 566 211 651 q 221 390 197 481 q 277 260 238 324 q 376 144 317 196 q 510 65 435 93 q 673 42 585 36 q 858 96 761 47 l 858 306 q 792 324 828 319 q 736 328 756 328 l 736 372 l 1056 372 l 1056 328 q 1015 320 1039 328 q 979 306 990 313 l 979 104 q 994 85 983 94 q 1015 71 1006 76 l 1015 22 q 882 7 950 19 q 739 -15 814 -6 q 576 -18 664 -24 m 815 1326 l 842 1294 l 618 1106 l 585 1106 l 361 1294 l 388 1326 l 601 1204 l 815 1326 z "},"Ĝ":{"ha":1111,"x_min":60,"x_max":1056,"o":"m 576 -18 q 361 33 461 -11 q 189 158 261 76 q 86 356 117 239 q 75 558 60 458 q 141 743 90 657 q 272 892 192 829 q 454 982 353 954 q 588 1000 518 999 q 725 994 658 1001 q 847 974 792 986 q 936 953 903 963 l 965 756 l 924 747 q 849 855 899 814 q 735 915 799 896 q 602 933 671 933 q 472 915 533 932 q 337 844 394 894 q 245 723 279 794 q 204 566 211 651 q 221 390 197 481 q 277 260 238 324 q 376 144 317 196 q 510 65 435 93 q 673 42 585 36 q 858 96 761 47 l 858 306 q 792 324 828 319 q 736 328 756 328 l 736 372 l 1056 372 l 1056 328 q 1015 320 1039 328 q 979 306 990 313 l 979 104 q 994 85 983 94 q 1015 71 1006 76 l 1015 22 q 882 7 950 19 q 739 -15 814 -6 q 576 -18 664 -24 m 383 1096 l 357 1128 l 581 1317 l 614 1317 l 838 1128 l 811 1096 l 597 1218 l 383 1096 z "},"Ģ":{"ha":1111,"x_min":60,"x_max":1056,"o":"m 576 -18 q 361 33 461 -11 q 189 158 261 76 q 86 356 117 239 q 75 558 60 458 q 141 743 90 657 q 272 892 192 829 q 454 982 353 954 q 588 1000 518 999 q 725 994 658 1001 q 847 974 792 986 q 936 953 903 963 l 965 756 l 924 747 q 849 855 899 814 q 735 915 799 896 q 602 933 671 933 q 472 915 533 932 q 337 844 394 894 q 245 723 279 794 q 204 566 211 651 q 221 390 197 481 q 277 260 238 324 q 376 144 317 196 q 510 65 435 93 q 673 42 585 36 q 858 96 761 47 l 858 306 q 792 324 828 319 q 736 328 756 328 l 736 372 l 1056 372 l 1056 328 q 1015 320 1039 328 q 979 306 990 313 l 979 104 q 994 85 983 94 q 1015 71 1006 76 l 1015 22 q 882 7 950 19 q 739 -15 814 -6 q 576 -18 664 -24 m 536 -440 l 517 -414 q 580 -342 557 -383 q 603 -250 603 -300 l 601 -250 q 547 -228 568 -250 q 525 -175 525 -207 q 547 -121 525 -144 q 601 -97 568 -97 q 654 -119 633 -97 q 678 -178 675 -142 q 669 -267 682 -217 q 624 -363 656 -317 q 536 -440 592 -410 z "},"Ġ":{"ha":1111,"x_min":60,"x_max":1056,"o":"m 576 -18 q 361 33 461 -11 q 189 158 261 76 q 86 356 117 239 q 75 558 60 458 q 141 743 90 657 q 272 892 192 829 q 454 982 353 954 q 588 1000 518 999 q 725 994 658 1001 q 847 974 792 986 q 936 953 903 963 l 965 756 l 924 747 q 849 855 899 814 q 735 915 799 896 q 602 933 671 933 q 472 915 533 932 q 337 844 394 894 q 245 723 279 794 q 204 566 211 651 q 221 390 197 481 q 277 260 238 324 q 376 144 317 196 q 510 65 435 93 q 673 42 585 36 q 858 96 761 47 l 858 306 q 792 324 828 319 q 736 328 756 328 l 736 372 l 1056 372 l 1056 328 q 1015 320 1039 328 q 979 306 990 313 l 979 104 q 994 85 983 94 q 1015 71 1006 76 l 1015 22 q 882 7 950 19 q 739 -15 814 -6 q 576 -18 664 -24 m 597 1111 q 542 1133 564 1111 q 521 1188 521 1156 q 542 1242 521 1218 q 597 1265 564 1265 q 653 1243 631 1265 q 675 1189 675 1221 q 653 1135 675 1158 q 597 1111 631 1111 z "},"H":{"ha":1181,"x_min":69,"x_max":1111,"o":"m 69 0 l 69 42 q 125 46 89 42 q 192 64 161 50 l 192 918 q 125 936 161 932 q 69 940 89 940 l 69 982 l 435 982 l 435 940 q 380 936 415 940 q 313 918 344 932 l 313 554 l 868 554 l 868 918 q 801 936 838 932 q 746 940 765 940 l 746 982 l 1111 982 l 1111 940 q 1056 936 1092 940 q 989 918 1021 932 l 989 64 q 1056 46 1021 50 q 1111 42 1092 42 l 1111 0 l 746 0 l 746 42 q 801 46 765 42 q 868 64 838 50 l 868 483 l 313 483 l 313 64 q 380 46 344 50 q 435 42 415 42 l 435 0 l 69 0 z "},"Ħ":{"ha":1158,"x_min":58,"x_max":1106,"o":"m 60 0 l 60 42 q 115 46 79 42 q 182 64 151 50 l 182 693 l 58 693 l 58 751 l 182 751 l 182 918 q 115 936 151 932 q 60 940 79 940 l 60 982 l 425 982 l 425 940 q 370 936 406 940 q 303 918 335 932 l 303 751 l 858 751 l 858 918 q 792 936 828 932 q 736 940 756 940 l 736 982 l 1101 982 l 1101 940 q 1047 936 1082 940 q 979 918 1011 932 l 979 751 l 1106 751 l 1106 693 l 979 693 l 979 64 q 1047 46 1011 50 q 1101 42 1082 42 l 1101 0 l 736 0 l 736 42 q 792 46 756 42 q 858 64 828 50 l 858 456 l 303 456 l 303 64 q 370 46 335 50 q 425 42 406 42 l 425 0 l 60 0 m 303 526 l 858 526 l 858 693 l 303 693 l 303 526 z "},"Ȟ":{"ha":1181,"x_min":69,"x_max":1111,"o":"m 69 0 l 69 42 q 125 46 89 42 q 192 64 161 50 l 192 918 q 125 936 161 932 q 69 940 89 940 l 69 982 l 435 982 l 435 940 q 380 936 415 940 q 313 918 344 932 l 313 554 l 868 554 l 868 918 q 801 936 838 932 q 746 940 765 940 l 746 982 l 1111 982 l 1111 940 q 1056 936 1092 940 q 989 918 1021 932 l 989 64 q 1056 46 1021 50 q 1111 42 1092 42 l 1111 0 l 746 0 l 746 42 q 801 46 765 42 q 868 64 838 50 l 868 483 l 313 483 l 313 64 q 380 46 344 50 q 435 42 415 42 l 435 0 l 69 0 m 808 1326 l 835 1294 l 611 1106 l 578 1106 l 354 1294 l 381 1326 l 594 1204 l 808 1326 z "},"Ĥ":{"ha":1181,"x_min":69,"x_max":1111,"o":"m 69 0 l 69 42 q 125 46 89 42 q 192 64 161 50 l 192 918 q 125 936 161 932 q 69 940 89 940 l 69 982 l 435 982 l 435 940 q 380 936 415 940 q 313 918 344 932 l 313 554 l 868 554 l 868 918 q 801 936 838 932 q 746 940 765 940 l 746 982 l 1111 982 l 1111 940 q 1056 936 1092 940 q 989 918 1021 932 l 989 64 q 1056 46 1021 50 q 1111 42 1092 42 l 1111 0 l 746 0 l 746 42 q 801 46 765 42 q 868 64 838 50 l 868 483 l 313 483 l 313 64 q 380 46 344 50 q 435 42 415 42 l 435 0 l 69 0 m 376 1096 l 350 1128 l 574 1317 l 607 1317 l 831 1128 l 804 1096 l 590 1218 l 376 1096 z "},"I":{"ha":504,"x_min":69,"x_max":435,"o":"m 69 0 l 69 42 q 125 46 89 42 q 192 64 161 50 l 192 918 q 125 936 161 932 q 69 940 89 940 l 69 982 l 435 982 l 435 940 q 380 936 415 940 q 313 918 344 932 l 313 64 q 380 46 344 50 q 435 42 415 42 l 435 0 l 69 0 z "},"Ĳ":{"ha":993,"x_min":69,"x_max":924,"o":"m 69 0 l 69 42 q 125 46 89 42 q 192 64 161 50 l 192 918 q 125 936 161 932 q 69 940 89 940 l 69 982 l 435 982 l 435 940 q 380 936 415 940 q 313 918 344 932 l 313 64 q 380 46 344 50 q 435 42 415 42 l 435 0 l 69 0 m 529 -397 l 499 -365 q 557 -301 525 -342 q 619 -203 589 -260 q 665 -82 649 -147 q 675 -26 672 -54 q 679 28 678 1 l 679 918 q 613 936 649 932 q 557 940 576 940 l 557 982 l 924 982 l 924 940 q 869 936 904 940 q 801 918 833 932 l 801 0 q 739 -162 779 -92 q 655 -282 699 -232 q 576 -360 611 -332 q 529 -397 542 -389 z "},"Í":{"ha":504,"x_min":69,"x_max":503,"o":"m 69 0 l 69 42 q 125 46 89 42 q 192 64 161 50 l 192 918 q 125 936 161 932 q 69 940 89 940 l 69 982 l 435 982 l 435 940 q 380 936 415 940 q 313 918 344 932 l 313 64 q 380 46 344 50 q 435 42 415 42 l 435 0 l 69 0 m 188 1085 l 168 1118 l 454 1283 l 503 1200 l 188 1085 z "},"Ĭ":{"ha":504,"x_min":43,"x_max":460,"o":"m 69 0 l 69 42 q 125 46 89 42 q 192 64 161 50 l 192 918 q 125 936 161 932 q 69 940 89 940 l 69 982 l 435 982 l 435 940 q 380 936 415 940 q 313 918 344 932 l 313 64 q 380 46 344 50 q 435 42 415 42 l 435 0 l 69 0 m 251 1125 q 135 1158 193 1124 q 43 1282 76 1193 l 75 1299 q 158 1231 111 1244 q 251 1218 204 1218 q 344 1231 296 1218 q 428 1299 393 1244 l 460 1282 q 368 1160 425 1193 q 251 1125 311 1126 z "},"Î":{"ha":504,"x_min":11,"x_max":492,"o":"m 69 0 l 69 42 q 125 46 89 42 q 192 64 161 50 l 192 918 q 125 936 161 932 q 69 940 89 940 l 69 982 l 435 982 l 435 940 q 380 936 415 940 q 313 918 344 932 l 313 64 q 380 46 344 50 q 435 42 415 42 l 435 0 l 69 0 m 38 1096 l 11 1128 l 235 1317 l 268 1317 l 492 1128 l 465 1096 l 251 1218 l 38 1096 z "},"Ï":{"ha":504,"x_min":57,"x_max":446,"o":"m 69 0 l 69 42 q 125 46 89 42 q 192 64 161 50 l 192 918 q 125 936 161 932 q 69 940 89 940 l 69 982 l 435 982 l 435 940 q 380 936 415 940 q 313 918 344 932 l 313 64 q 380 46 344 50 q 435 42 415 42 l 435 0 l 69 0 m 125 1111 q 76 1131 96 1111 q 57 1178 57 1150 q 76 1226 57 1206 q 125 1247 96 1247 q 174 1228 154 1247 q 194 1181 194 1208 q 174 1132 194 1153 q 125 1111 154 1111 m 376 1111 q 328 1131 347 1111 q 308 1178 308 1150 q 328 1226 308 1206 q 376 1247 347 1247 q 426 1228 406 1247 q 446 1181 446 1208 q 426 1132 446 1153 q 376 1111 406 1111 z "},"İ":{"ha":504,"x_min":69,"x_max":435,"o":"m 69 0 l 69 42 q 125 46 89 42 q 192 64 161 50 l 192 918 q 125 936 161 932 q 69 940 89 940 l 69 982 l 435 982 l 435 940 q 380 936 415 940 q 313 918 344 932 l 313 64 q 380 46 344 50 q 435 42 415 42 l 435 0 l 69 0 m 251 1111 q 197 1133 218 1111 q 175 1188 175 1156 q 197 1242 175 1218 q 251 1265 218 1265 q 307 1243 285 1265 q 329 1189 329 1221 q 307 1135 329 1158 q 251 1111 285 1111 z "},"Ị":{"ha":504,"x_min":69,"x_max":435,"o":"m 69 0 l 69 42 q 125 46 89 42 q 192 64 161 50 l 192 918 q 125 936 161 932 q 69 940 89 940 l 69 982 l 435 982 l 435 940 q 380 936 415 940 q 313 918 344 932 l 313 64 q 380 46 344 50 q 435 42 415 42 l 435 0 l 69 0 m 251 -251 q 197 -229 218 -251 q 175 -175 175 -207 q 197 -121 175 -144 q 251 -97 218 -97 q 307 -119 285 -97 q 329 -174 329 -142 q 307 -228 329 -204 q 251 -251 285 -251 z "},"Ì":{"ha":504,"x_min":28,"x_max":435,"o":"m 69 0 l 69 42 q 125 46 89 42 q 192 64 161 50 l 192 918 q 125 936 161 932 q 69 940 89 940 l 69 982 l 435 982 l 435 940 q 380 936 415 940 q 313 918 344 932 l 313 64 q 380 46 344 50 q 435 42 415 42 l 435 0 l 69 0 m 343 1096 l 28 1211 l 76 1294 l 363 1129 l 343 1096 z "},"Ī":{"ha":504,"x_min":39,"x_max":464,"o":"m 39 1119 l 39 1186 l 464 1186 l 464 1119 l 39 1119 m 69 0 l 69 42 q 125 46 89 42 q 192 64 161 50 l 192 918 q 125 936 161 932 q 69 940 89 940 l 69 982 l 435 982 l 435 940 q 380 936 415 940 q 313 918 344 932 l 313 64 q 380 46 344 50 q 435 42 415 42 l 435 0 l 69 0 z "},"Į":{"ha":504,"x_min":69,"x_max":435,"o":"m 69 0 l 69 42 q 125 46 89 42 q 192 64 161 50 l 192 918 q 125 936 161 932 q 69 940 89 940 l 69 982 l 435 982 l 435 940 q 380 936 415 940 q 313 918 344 932 l 313 64 q 380 46 344 50 q 435 42 415 42 l 435 0 l 69 0 m 221 -333 q 134 -308 169 -333 q 99 -225 99 -282 q 137 -113 99 -167 q 256 0 175 -60 l 310 0 q 226 -99 257 -50 q 194 -187 194 -147 q 215 -244 194 -222 q 271 -267 235 -267 q 309 -259 290 -267 q 339 -242 328 -251 l 354 -264 q 292 -313 331 -293 q 221 -333 254 -333 z "},"Ĩ":{"ha":504,"x_min":26,"x_max":500,"o":"m 69 0 l 69 42 q 125 46 89 42 q 192 64 161 50 l 192 918 q 125 936 161 932 q 69 940 89 940 l 69 982 l 435 982 l 435 940 q 380 936 415 940 q 313 918 344 932 l 313 64 q 380 46 344 50 q 435 42 415 42 l 435 0 l 69 0 m 56 1103 l 26 1118 q 60 1177 39 1144 q 110 1235 81 1210 q 175 1261 140 1260 q 238 1253 211 1264 q 285 1228 264 1243 q 326 1203 306 1214 q 372 1193 347 1192 q 433 1217 413 1196 q 471 1269 453 1239 l 500 1254 q 467 1197 489 1229 q 417 1139 446 1164 q 351 1111 388 1114 q 290 1120 317 1110 q 243 1145 264 1131 q 201 1171 222 1160 q 154 1181 179 1182 q 94 1155 114 1178 q 56 1103 75 1132 z "},"J":{"ha":558,"x_min":64,"x_max":489,"o":"m 94 -397 l 64 -365 q 122 -301 90 -342 q 184 -203 154 -260 q 231 -82 214 -147 q 240 -26 238 -54 q 244 28 243 1 l 244 918 q 178 936 214 932 q 122 940 142 940 l 122 982 l 489 982 l 489 940 q 434 936 469 940 q 367 918 399 932 l 367 0 q 304 -162 344 -92 q 220 -282 264 -232 q 142 -360 176 -332 q 94 -397 107 -389 z "},"Ĵ":{"ha":558,"x_min":64,"x_max":546,"o":"m 94 -397 l 64 -365 q 122 -301 90 -342 q 184 -203 154 -260 q 231 -82 214 -147 q 240 -26 238 -54 q 244 28 243 1 l 244 918 q 178 936 214 932 q 122 940 142 940 l 122 982 l 489 982 l 489 940 q 434 936 469 940 q 367 918 399 932 l 367 0 q 304 -162 344 -92 q 220 -282 264 -232 q 142 -360 176 -332 q 94 -397 107 -389 m 92 1096 l 65 1128 l 289 1317 l 322 1317 l 546 1128 l 519 1096 l 306 1218 l 92 1096 z "},"K":{"ha":981,"x_min":69,"x_max":989,"o":"m 979 -42 q 826 -24 885 -40 q 729 21 768 -8 q 651 90 690 50 q 597 156 631 113 q 524 255 563 200 q 447 363 485 310 q 381 458 410 417 q 338 518 351 500 l 711 918 q 656 936 685 932 q 611 940 626 940 l 611 982 l 928 982 l 928 940 q 874 936 908 940 q 807 918 839 932 l 460 544 q 517 467 482 514 q 593 366 553 419 q 674 263 633 313 q 747 176 714 213 q 816 103 785 136 q 888 44 847 69 q 989 0 928 19 l 979 -42 m 69 0 l 69 42 q 125 46 89 42 q 192 64 161 50 l 192 918 q 125 936 161 932 q 69 940 89 940 l 69 982 l 435 982 l 435 940 q 380 936 415 940 q 313 918 344 932 l 313 64 q 382 46 344 50 q 440 42 419 42 l 440 0 l 69 0 z "},"Ķ":{"ha":981,"x_min":69,"x_max":989,"o":"m 979 -42 q 826 -24 885 -40 q 729 21 768 -8 q 651 90 690 50 q 597 156 631 113 q 524 255 563 200 q 447 363 485 310 q 381 458 410 417 q 338 518 351 500 l 711 918 q 656 936 685 932 q 611 940 626 940 l 611 982 l 928 982 l 928 940 q 874 936 908 940 q 807 918 839 932 l 460 544 q 517 467 482 514 q 593 366 553 419 q 674 263 633 313 q 747 176 714 213 q 816 103 785 136 q 888 44 847 69 q 989 0 928 19 l 979 -42 m 69 0 l 69 42 q 125 46 89 42 q 192 64 161 50 l 192 918 q 125 936 161 932 q 69 940 89 940 l 69 982 l 435 982 l 435 940 q 380 936 415 940 q 313 918 344 932 l 313 64 q 382 46 344 50 q 440 42 419 42 l 440 0 l 69 0 m 433 -440 l 414 -414 q 477 -342 454 -383 q 500 -250 500 -300 l 499 -250 q 444 -228 465 -250 q 422 -175 422 -207 q 444 -121 422 -144 q 499 -97 465 -97 q 551 -119 531 -97 q 575 -178 572 -142 q 566 -267 579 -217 q 521 -363 553 -317 q 433 -440 489 -410 z "},"L":{"ha":819,"x_min":69,"x_max":814,"o":"m 69 0 l 69 42 q 125 46 89 42 q 192 64 161 50 l 192 918 q 125 936 161 932 q 69 940 89 940 l 69 982 l 435 982 l 435 940 q 380 936 415 940 q 313 918 344 932 l 313 71 l 685 71 q 719 119 701 89 q 751 178 736 149 q 771 219 765 207 l 814 206 l 750 0 l 69 0 z "},"Ĺ":{"ha":819,"x_min":69,"x_max":814,"o":"m 69 0 l 69 42 q 125 46 89 42 q 192 64 161 50 l 192 918 q 125 936 161 932 q 69 940 89 940 l 69 982 l 435 982 l 435 940 q 380 936 415 940 q 313 918 344 932 l 313 71 l 685 71 q 719 119 701 89 q 751 178 736 149 q 771 219 765 207 l 814 206 l 750 0 l 69 0 m 189 1085 l 169 1118 l 456 1283 l 504 1200 l 189 1085 z "},"Ľ":{"ha":819,"x_min":69,"x_max":814,"o":"m 611 661 l 564 660 l 553 989 l 658 993 l 611 661 m 69 0 l 69 42 q 125 46 89 42 q 192 64 161 50 l 192 918 q 125 936 161 932 q 69 940 89 940 l 69 982 l 435 982 l 435 940 q 380 936 415 940 q 313 918 344 932 l 313 71 l 685 71 q 719 119 701 89 q 751 178 736 149 q 771 219 765 207 l 814 206 l 750 0 l 69 0 z "},"Ļ":{"ha":819,"x_min":69,"x_max":814,"o":"m 69 0 l 69 42 q 125 46 89 42 q 192 64 161 50 l 192 918 q 125 936 161 932 q 69 940 89 940 l 69 982 l 435 982 l 435 940 q 380 936 415 940 q 313 918 344 932 l 313 71 l 685 71 q 719 119 701 89 q 751 178 736 149 q 771 219 765 207 l 814 206 l 750 0 l 69 0 m 374 -440 l 354 -414 q 417 -342 394 -383 q 440 -250 440 -300 l 439 -250 q 384 -228 406 -250 q 363 -175 363 -207 q 384 -121 363 -144 q 439 -97 406 -97 q 492 -119 471 -97 q 515 -178 513 -142 q 506 -267 519 -217 q 461 -363 493 -317 q 374 -440 429 -410 z "},"Ŀ":{"ha":819,"x_min":69,"x_max":814,"o":"m 69 0 l 69 42 q 125 46 89 42 q 192 64 161 50 l 192 918 q 125 936 161 932 q 69 940 89 940 l 69 982 l 435 982 l 435 940 q 380 936 415 940 q 313 918 344 932 l 313 71 l 685 71 q 719 119 701 89 q 751 178 736 149 q 771 219 765 207 l 814 206 l 750 0 l 69 0 m 682 397 q 619 422 644 397 q 594 483 594 447 q 619 546 594 519 q 682 572 644 572 q 745 547 719 572 q 771 486 771 522 q 745 424 771 451 q 682 397 719 397 z "},"Ł":{"ha":819,"x_min":69,"x_max":814,"o":"m 69 0 l 69 42 q 125 46 89 42 q 192 64 161 50 l 192 411 l 99 365 l 72 418 l 192 476 l 192 918 q 125 936 161 932 q 69 940 89 940 l 69 982 l 435 982 l 435 940 q 380 936 415 940 q 313 918 344 932 l 313 536 l 538 646 l 564 593 l 313 469 l 313 71 l 685 71 q 719 119 701 89 q 751 178 736 149 q 771 219 765 207 l 814 206 l 750 0 l 69 0 z "},"M":{"ha":1321,"x_min":56,"x_max":1251,"o":"m 56 0 l 56 42 q 111 46 75 42 q 178 64 147 50 l 215 918 q 149 936 185 932 q 93 940 113 940 l 93 982 l 340 982 l 646 235 l 1013 982 l 1217 982 l 1217 940 q 1163 936 1197 940 q 1096 918 1128 932 l 1129 64 q 1197 46 1161 50 q 1251 42 1232 42 l 1251 0 l 886 0 l 886 42 q 941 46 906 42 q 1007 64 976 50 l 981 757 l 610 0 l 288 788 l 256 64 q 323 46 288 50 q 378 42 358 42 l 378 0 l 56 0 z "},"N":{"ha":1119,"x_min":56,"x_max":1064,"o":"m 879 -19 l 256 808 l 256 64 q 323 46 288 50 q 378 42 358 42 l 378 0 l 56 0 l 56 42 q 111 46 75 42 q 178 64 147 50 l 178 918 q 111 936 147 932 q 56 940 75 940 l 56 982 l 276 982 l 864 204 l 864 918 q 797 936 833 932 q 742 940 761 940 l 742 982 l 1064 982 l 1064 940 q 1009 936 1044 940 q 942 918 974 932 l 942 -19 l 879 -19 z "},"Ń":{"ha":1119,"x_min":56,"x_max":1064,"o":"m 879 -19 l 256 808 l 256 64 q 323 46 288 50 q 378 42 358 42 l 378 0 l 56 0 l 56 42 q 111 46 75 42 q 178 64 147 50 l 178 918 q 111 936 147 932 q 56 940 75 940 l 56 982 l 276 982 l 864 204 l 864 918 q 797 936 833 932 q 742 940 761 940 l 742 982 l 1064 982 l 1064 940 q 1009 936 1044 940 q 942 918 974 932 l 942 -19 l 879 -19 m 501 1085 l 482 1118 l 768 1283 l 817 1200 l 501 1085 z "},"Ň":{"ha":1119,"x_min":56,"x_max":1064,"o":"m 879 -19 l 256 808 l 256 64 q 323 46 288 50 q 378 42 358 42 l 378 0 l 56 0 l 56 42 q 111 46 75 42 q 178 64 147 50 l 178 918 q 111 936 147 932 q 56 940 75 940 l 56 982 l 276 982 l 864 204 l 864 918 q 797 936 833 932 q 742 940 761 940 l 742 982 l 1064 982 l 1064 940 q 1009 936 1044 940 q 942 918 974 932 l 942 -19 l 879 -19 m 783 1326 l 810 1294 l 586 1106 l 553 1106 l 329 1294 l 356 1326 l 569 1204 l 783 1326 z "},"Ņ":{"ha":1119,"x_min":56,"x_max":1064,"o":"m 879 -19 l 256 808 l 256 64 q 323 46 288 50 q 378 42 358 42 l 378 0 l 56 0 l 56 42 q 111 46 75 42 q 178 64 147 50 l 178 918 q 111 936 147 932 q 56 940 75 940 l 56 982 l 276 982 l 864 204 l 864 918 q 797 936 833 932 q 742 940 761 940 l 742 982 l 1064 982 l 1064 940 q 1009 936 1044 940 q 942 918 974 932 l 942 -19 l 879 -19 m 504 -440 l 485 -414 q 548 -342 525 -383 q 571 -250 571 -300 l 569 -250 q 515 -228 536 -250 q 493 -175 493 -207 q 515 -121 493 -144 q 569 -97 536 -97 q 622 -119 601 -97 q 646 -178 643 -142 q 637 -267 650 -217 q 592 -363 624 -317 q 504 -440 560 -410 z "},"Ɲ":{"ha":1104,"x_min":-47,"x_max":1049,"o":"m -39 -318 l -47 -204 q 51 -212 3 -217 q 126 -182 100 -208 q 158 -120 150 -158 q 163 3 165 -82 l 163 918 q 96 936 132 932 q 40 940 60 940 l 40 982 l 264 982 l 849 206 l 849 918 q 782 936 818 932 q 726 940 746 940 l 726 982 l 1049 982 l 1049 940 q 994 936 1029 940 q 926 918 958 932 l 926 -19 l 865 -19 l 240 810 l 240 196 q 240 124 240 169 q 240 27 240 78 q 240 -65 240 -24 q 236 -128 239 -107 q 208 -215 231 -171 q 140 -290 186 -258 q 57 -322 101 -317 q -39 -318 13 -328 z "},"Ñ":{"ha":1119,"x_min":56,"x_max":1064,"o":"m 879 -19 l 256 808 l 256 64 q 323 46 288 50 q 378 42 358 42 l 378 0 l 56 0 l 56 42 q 111 46 75 42 q 178 64 147 50 l 178 918 q 111 936 147 932 q 56 940 75 940 l 56 982 l 276 982 l 864 204 l 864 918 q 797 936 833 932 q 742 940 761 940 l 742 982 l 1064 982 l 1064 940 q 1009 936 1044 940 q 942 918 974 932 l 942 -19 l 879 -19 m 378 1103 l 349 1118 q 382 1177 361 1144 q 433 1235 403 1210 q 497 1261 463 1260 q 560 1253 533 1264 q 607 1228 586 1243 q 649 1203 628 1214 q 694 1193 669 1192 q 755 1217 735 1196 q 793 1269 775 1239 l 822 1254 q 790 1197 811 1229 q 739 1139 768 1164 q 674 1111 710 1114 q 613 1120 639 1110 q 565 1145 586 1131 q 523 1171 544 1160 q 476 1181 501 1182 q 417 1155 436 1178 q 378 1103 397 1132 z "},"Ŋ":{"ha":1117,"x_min":56,"x_max":1061,"o":"m 663 -318 l 654 -204 q 753 -212 704 -217 q 828 -182 801 -207 q 859 -120 851 -158 q 864 3 867 -82 l 256 810 l 256 64 q 323 46 288 50 q 378 42 358 42 l 378 0 l 56 0 l 56 42 q 111 46 75 42 q 178 64 147 50 l 178 918 q 111 936 147 932 q 56 940 75 940 l 56 982 l 279 982 l 864 206 l 864 919 q 799 936 833 932 q 744 940 764 940 l 744 982 l 1061 982 l 1061 940 q 1008 936 1042 940 q 942 919 974 932 l 942 196 q 941 124 942 169 q 940 27 940 78 q 937 -65 939 -24 q 932 -128 935 -107 q 907 -212 926 -167 q 842 -290 888 -258 q 758 -322 803 -317 q 663 -318 714 -328 z "},"O":{"ha":1172,"x_min":69,"x_max":1103,"o":"m 582 -19 q 383 19 476 -19 q 219 127 290 58 q 109 287 149 196 q 69 483 69 378 q 110 684 69 590 q 222 849 150 778 q 388 961 293 921 q 589 1001 482 1001 q 788 963 694 1001 q 951 856 881 925 q 1063 697 1022 788 q 1103 500 1103 606 q 1062 299 1103 393 q 949 134 1021 206 q 783 22 878 63 q 582 -19 689 -19 m 624 57 q 806 109 726 57 q 930 249 885 161 q 975 443 975 336 q 942 622 975 535 q 851 777 910 708 q 715 886 793 846 q 549 926 638 926 q 367 875 447 926 q 242 736 288 824 q 196 542 196 649 q 228 364 196 450 q 319 208 261 278 q 456 98 378 139 q 624 57 533 57 z "},"Ó":{"ha":1172,"x_min":69,"x_max":1103,"o":"m 582 -19 q 383 19 476 -19 q 219 127 290 58 q 109 287 149 196 q 69 483 69 378 q 110 684 69 590 q 222 849 150 778 q 388 961 293 921 q 589 1001 482 1001 q 788 963 694 1001 q 951 856 881 925 q 1063 697 1022 788 q 1103 500 1103 606 q 1062 299 1103 393 q 949 134 1021 206 q 783 22 878 63 q 582 -19 689 -19 m 624 57 q 806 109 726 57 q 930 249 885 161 q 975 443 975 336 q 942 622 975 535 q 851 777 910 708 q 715 886 793 846 q 549 926 638 926 q 367 875 447 926 q 242 736 288 824 q 196 542 196 649 q 228 364 196 450 q 319 208 261 278 q 456 98 378 139 q 624 57 533 57 m 531 1085 l 511 1118 l 797 1283 l 846 1200 l 531 1085 z "},"Ŏ":{"ha":1172,"x_min":69,"x_max":1103,"o":"m 582 -19 q 383 19 476 -19 q 219 127 290 58 q 109 287 149 196 q 69 483 69 378 q 110 684 69 590 q 222 849 150 778 q 388 961 293 921 q 589 1001 482 1001 q 788 963 694 1001 q 951 856 881 925 q 1063 697 1022 788 q 1103 500 1103 606 q 1062 299 1103 393 q 949 134 1021 206 q 783 22 878 63 q 582 -19 689 -19 m 624 57 q 806 109 726 57 q 930 249 885 161 q 975 443 975 336 q 942 622 975 535 q 851 777 910 708 q 715 886 793 846 q 549 926 638 926 q 367 875 447 926 q 242 736 288 824 q 196 542 196 649 q 228 364 196 450 q 319 208 261 278 q 456 98 378 139 q 624 57 533 57 m 594 1125 q 478 1158 536 1124 q 386 1282 419 1193 l 418 1299 q 501 1231 454 1244 q 594 1218 547 1218 q 688 1231 639 1218 q 771 1299 736 1244 l 803 1282 q 711 1160 768 1193 q 594 1125 654 1126 z "},"Ô":{"ha":1172,"x_min":69,"x_max":1103,"o":"m 582 -19 q 383 19 476 -19 q 219 127 290 58 q 109 287 149 196 q 69 483 69 378 q 110 684 69 590 q 222 849 150 778 q 388 961 293 921 q 589 1001 482 1001 q 788 963 694 1001 q 951 856 881 925 q 1063 697 1022 788 q 1103 500 1103 606 q 1062 299 1103 393 q 949 134 1021 206 q 783 22 878 63 q 582 -19 689 -19 m 624 57 q 806 109 726 57 q 930 249 885 161 q 975 443 975 336 q 942 622 975 535 q 851 777 910 708 q 715 886 793 846 q 549 926 638 926 q 367 875 447 926 q 242 736 288 824 q 196 542 196 649 q 228 364 196 450 q 319 208 261 278 q 456 98 378 139 q 624 57 533 57 m 381 1096 l 354 1128 l 578 1317 l 611 1317 l 835 1128 l 808 1096 l 594 1218 l 381 1096 z "},"Ö":{"ha":1172,"x_min":69,"x_max":1103,"o":"m 582 -19 q 383 19 476 -19 q 219 127 290 58 q 109 287 149 196 q 69 483 69 378 q 110 684 69 590 q 222 849 150 778 q 388 961 293 921 q 589 1001 482 1001 q 788 963 694 1001 q 951 856 881 925 q 1063 697 1022 788 q 1103 500 1103 606 q 1062 299 1103 393 q 949 134 1021 206 q 783 22 878 63 q 582 -19 689 -19 m 624 57 q 806 109 726 57 q 930 249 885 161 q 975 443 975 336 q 942 622 975 535 q 851 777 910 708 q 715 886 793 846 q 549 926 638 926 q 367 875 447 926 q 242 736 288 824 q 196 542 196 649 q 228 364 196 450 q 319 208 261 278 q 456 98 378 139 q 624 57 533 57 m 468 1111 q 419 1131 439 1111 q 400 1178 400 1150 q 419 1226 400 1206 q 468 1247 439 1247 q 517 1228 497 1247 q 538 1181 538 1208 q 517 1132 538 1153 q 468 1111 497 1111 m 719 1111 q 671 1131 690 1111 q 651 1178 651 1150 q 671 1226 651 1206 q 719 1247 690 1247 q 769 1228 749 1247 q 789 1181 789 1208 q 769 1132 789 1153 q 719 1111 749 1111 z "},"Ọ":{"ha":1172,"x_min":69,"x_max":1103,"o":"m 582 -19 q 383 19 476 -19 q 219 127 290 58 q 109 287 149 196 q 69 483 69 378 q 110 684 69 590 q 222 849 150 778 q 388 961 293 921 q 589 1001 482 1001 q 788 963 694 1001 q 951 856 881 925 q 1063 697 1022 788 q 1103 500 1103 606 q 1062 299 1103 393 q 949 134 1021 206 q 783 22 878 63 q 582 -19 689 -19 m 624 57 q 806 109 726 57 q 930 249 885 161 q 975 443 975 336 q 942 622 975 535 q 851 777 910 708 q 715 886 793 846 q 549 926 638 926 q 367 875 447 926 q 242 736 288 824 q 196 542 196 649 q 228 364 196 450 q 319 208 261 278 q 456 98 378 139 q 624 57 533 57 m 607 -251 q 552 -229 574 -251 q 531 -175 531 -207 q 552 -121 531 -144 q 607 -97 574 -97 q 663 -119 640 -97 q 685 -174 685 -142 q 663 -228 685 -204 q 607 -251 640 -251 z "},"Ò":{"ha":1172,"x_min":69,"x_max":1103,"o":"m 582 -19 q 383 19 476 -19 q 219 127 290 58 q 109 287 149 196 q 69 483 69 378 q 110 684 69 590 q 222 849 150 778 q 388 961 293 921 q 589 1001 482 1001 q 788 963 694 1001 q 951 856 881 925 q 1063 697 1022 788 q 1103 500 1103 606 q 1062 299 1103 393 q 949 134 1021 206 q 783 22 878 63 q 582 -19 689 -19 m 624 57 q 806 109 726 57 q 930 249 885 161 q 975 443 975 336 q 942 622 975 535 q 851 777 910 708 q 715 886 793 846 q 549 926 638 926 q 367 875 447 926 q 242 736 288 824 q 196 542 196 649 q 228 364 196 450 q 319 208 261 278 q 456 98 378 139 q 624 57 533 57 m 686 1096 l 371 1211 l 419 1294 l 706 1129 l 686 1096 z "},"Ő":{"ha":1172,"x_min":69,"x_max":1103,"o":"m 582 -19 q 383 19 476 -19 q 219 127 290 58 q 109 287 149 196 q 69 483 69 378 q 110 684 69 590 q 222 849 150 778 q 388 961 293 921 q 589 1001 482 1001 q 788 963 694 1001 q 951 856 881 925 q 1063 697 1022 788 q 1103 500 1103 606 q 1062 299 1103 393 q 949 134 1021 206 q 783 22 878 63 q 582 -19 689 -19 m 624 57 q 806 109 726 57 q 930 249 885 161 q 975 443 975 336 q 942 622 975 535 q 851 777 910 708 q 715 886 793 846 q 549 926 638 926 q 367 875 447 926 q 242 736 288 824 q 196 542 196 649 q 228 364 196 450 q 319 208 261 278 q 456 98 378 139 q 624 57 533 57 m 693 1096 l 660 1124 l 808 1358 l 888 1297 l 693 1096 m 492 1085 l 458 1113 l 607 1347 l 686 1286 l 492 1085 z "},"Ō":{"ha":1172,"x_min":69,"x_max":1103,"o":"m 582 -19 q 383 19 476 -19 q 219 127 290 58 q 109 287 149 196 q 69 483 69 378 q 110 684 69 590 q 222 849 150 778 q 388 961 293 921 q 589 1001 482 1001 q 788 963 694 1001 q 951 856 881 925 q 1063 697 1022 788 q 1103 500 1103 606 q 1062 299 1103 393 q 949 134 1021 206 q 783 22 878 63 q 582 -19 689 -19 m 624 57 q 806 109 726 57 q 930 249 885 161 q 975 443 975 336 q 942 622 975 535 q 851 777 910 708 q 715 886 793 846 q 549 926 638 926 q 367 875 447 926 q 242 736 288 824 q 196 542 196 649 q 228 364 196 450 q 319 208 261 278 q 456 98 378 139 q 624 57 533 57 m 358 1119 l 358 1186 l 831 1186 l 831 1119 l 358 1119 z "},"Ǫ":{"ha":1172,"x_min":69,"x_max":1103,"o":"m 582 -19 q 383 19 476 -19 q 219 127 290 58 q 109 287 149 196 q 69 483 69 378 q 110 684 69 590 q 222 849 150 778 q 388 961 293 921 q 589 1001 482 1001 q 788 963 694 1001 q 951 856 881 925 q 1063 697 1022 788 q 1103 500 1103 606 q 1062 299 1103 393 q 949 134 1021 206 q 783 22 878 63 q 582 -19 689 -19 m 624 57 q 806 109 726 57 q 930 249 885 161 q 975 443 975 336 q 942 622 975 535 q 851 777 910 708 q 715 886 793 846 q 549 926 638 926 q 367 875 447 926 q 242 736 288 824 q 196 542 196 649 q 228 364 196 450 q 319 208 261 278 q 456 98 378 139 q 624 57 533 57 m 578 -333 q 491 -308 526 -333 q 456 -225 456 -282 q 494 -113 456 -167 q 613 0 532 -60 l 667 0 q 583 -99 614 -50 q 551 -187 551 -147 q 572 -244 551 -222 q 628 -267 592 -267 q 666 -259 647 -267 q 696 -242 685 -251 l 711 -264 q 649 -313 688 -293 q 578 -333 611 -333 z "},"Ø":{"ha":1172,"x_min":69,"x_max":1103,"o":"m 267 -139 l 214 -108 l 310 57 q 135 235 201 124 q 69 483 69 347 q 110 684 69 590 q 222 849 150 778 q 388 961 293 921 q 589 1001 482 1001 q 710 988 651 1001 q 822 947 769 974 l 917 1110 l 971 1081 l 876 917 q 1040 740 978 849 q 1103 500 1103 632 q 1062 299 1103 393 q 949 134 1021 206 q 783 22 878 63 q 582 -19 689 -19 q 468 -7 524 -19 q 363 28 413 6 l 267 -139 m 196 542 q 242 331 196 433 q 368 158 289 228 l 768 853 q 665 907 721 888 q 549 926 610 926 q 367 875 447 926 q 242 736 288 824 q 196 542 196 649 m 624 57 q 806 109 726 57 q 930 249 885 161 q 975 443 975 336 q 932 647 975 549 q 817 814 889 744 l 417 121 q 515 74 463 90 q 624 57 567 57 z "},"Ǿ":{"ha":1172,"x_min":69,"x_max":1103,"o":"m 267 -139 l 214 -108 l 310 57 q 135 235 201 124 q 69 483 69 347 q 110 684 69 590 q 222 849 150 778 q 388 961 293 921 q 589 1001 482 1001 q 710 988 651 1001 q 822 947 769 974 l 917 1110 l 971 1081 l 876 917 q 1040 740 978 849 q 1103 500 1103 632 q 1062 299 1103 393 q 949 134 1021 206 q 783 22 878 63 q 582 -19 689 -19 q 468 -7 524 -19 q 363 28 413 6 l 267 -139 m 196 542 q 242 331 196 433 q 368 158 289 228 l 768 853 q 665 907 721 888 q 549 926 610 926 q 367 875 447 926 q 242 736 288 824 q 196 542 196 649 m 624 57 q 806 109 726 57 q 930 249 885 161 q 975 443 975 336 q 932 647 975 549 q 817 814 889 744 l 417 121 q 515 74 463 90 q 624 57 567 57 m 531 1085 l 511 1118 l 797 1283 l 846 1200 l 531 1085 z "},"Õ":{"ha":1172,"x_min":69,"x_max":1103,"o":"m 582 -19 q 383 19 476 -19 q 219 127 290 58 q 109 287 149 196 q 69 483 69 378 q 110 684 69 590 q 222 849 150 778 q 388 961 293 921 q 589 1001 482 1001 q 788 963 694 1001 q 951 856 881 925 q 1063 697 1022 788 q 1103 500 1103 606 q 1062 299 1103 393 q 949 134 1021 206 q 783 22 878 63 q 582 -19 689 -19 m 624 57 q 806 109 726 57 q 930 249 885 161 q 975 443 975 336 q 942 622 975 535 q 851 777 910 708 q 715 886 793 846 q 549 926 638 926 q 367 875 447 926 q 242 736 288 824 q 196 542 196 649 q 228 364 196 450 q 319 208 261 278 q 456 98 378 139 q 624 57 533 57 m 407 1103 l 378 1118 q 411 1177 390 1144 q 462 1235 432 1210 q 526 1261 492 1260 q 589 1253 563 1264 q 636 1228 615 1243 q 678 1203 657 1214 q 724 1193 699 1192 q 784 1217 764 1196 q 822 1269 804 1239 l 851 1254 q 819 1197 840 1229 q 768 1139 797 1164 q 703 1111 739 1114 q 642 1120 668 1110 q 594 1145 615 1131 q 552 1171 574 1160 q 506 1181 531 1182 q 446 1155 465 1178 q 407 1103 426 1132 z "},"Œ":{"ha":1456,"x_min":69,"x_max":1421,"o":"m 582 -19 q 382 19 475 -19 q 219 128 289 58 q 109 288 149 197 q 69 483 69 379 q 110 684 69 590 q 222 849 150 778 q 388 961 293 921 q 589 1001 482 1001 q 731 982 660 1001 l 1340 982 l 1347 793 l 1303 790 q 1295 847 1301 814 q 1275 911 1289 881 l 938 911 l 938 546 l 1228 546 q 1238 600 1235 574 q 1240 643 1240 626 l 1285 643 l 1285 365 l 1240 365 q 1238 415 1240 383 q 1224 475 1235 446 l 938 475 l 938 71 l 1303 71 q 1337 126 1321 94 q 1364 185 1353 158 q 1376 221 1375 213 l 1421 210 l 1375 0 l 724 0 q 658 -15 692 -10 q 582 -19 624 -19 m 624 57 q 724 73 675 57 q 817 117 774 89 l 817 842 q 697 906 763 883 q 564 929 632 929 q 372 878 456 929 q 242 739 289 826 q 196 542 196 651 q 228 365 196 451 q 319 208 261 278 q 456 98 378 139 q 624 57 533 57 z "},"P":{"ha":875,"x_min":69,"x_max":806,"o":"m 69 0 l 69 42 q 125 46 89 42 q 192 64 161 50 l 192 926 q 126 935 163 933 q 75 933 90 936 l 71 975 q 221 988 160 982 q 331 998 282 994 q 432 1001 381 1001 q 585 974 517 1001 q 703 901 654 947 q 779 799 753 856 q 806 682 806 742 q 758 528 806 601 q 619 412 710 456 q 399 372 529 368 l 392 417 q 608 493 539 426 q 676 653 676 560 q 634 801 676 738 q 522 900 592 864 q 367 936 451 936 q 313 932 340 936 l 313 64 q 386 46 347 50 q 447 42 425 42 l 447 0 l 69 0 z "},"Þ":{"ha":808,"x_min":69,"x_max":739,"o":"m 69 0 l 69 42 q 125 46 89 42 q 192 64 161 50 l 192 918 q 125 936 161 932 q 69 940 89 940 l 69 982 l 435 982 l 435 940 q 380 936 415 940 q 313 918 344 932 l 313 772 q 353 777 335 775 q 392 779 372 779 q 567 743 488 779 q 692 644 646 707 q 739 497 739 581 q 697 364 739 428 q 575 260 656 300 q 375 226 494 221 l 369 269 q 557 333 497 276 q 617 471 617 389 q 579 607 617 553 q 483 688 542 661 q 361 715 425 715 q 313 711 336 715 l 313 64 q 380 46 344 50 q 435 42 415 42 l 435 0 l 69 0 z "},"Q":{"ha":1157,"x_min":69,"x_max":1185,"o":"m 1181 -278 q 874 -206 1008 -267 q 618 -18 739 -146 q 600 -19 608 -19 q 582 -19 592 -19 q 382 19 475 -19 q 219 128 289 58 q 109 288 149 197 q 69 483 69 379 q 110 684 69 590 q 223 849 151 778 q 388 961 294 921 q 589 1001 482 1001 q 788 963 694 1001 q 952 855 881 924 q 1064 695 1024 786 q 1104 499 1104 604 q 1059 288 1104 386 q 935 118 1014 190 q 754 10 856 46 q 958 -157 846 -92 q 1185 -233 1071 -222 l 1181 -278 m 624 57 q 806 109 726 57 q 930 249 885 161 q 975 443 975 336 q 942 622 975 535 q 851 777 910 708 q 715 886 793 846 q 549 926 638 926 q 366 874 446 926 q 241 735 286 822 q 196 542 196 649 q 228 365 196 451 q 319 208 261 278 q 456 98 378 139 q 624 57 533 57 z "},"R":{"ha":982,"x_min":69,"x_max":990,"o":"m 69 0 l 69 42 q 125 46 89 42 q 192 64 161 50 l 192 929 q 126 938 158 936 q 74 936 93 939 l 69 978 q 313 997 203 989 q 509 997 424 1004 q 653 956 594 989 q 739 851 711 922 q 755 765 754 814 q 735 667 756 717 q 667 571 714 617 q 543 492 621 525 q 603 392 568 447 q 676 281 638 336 q 751 178 715 225 q 817 103 786 135 q 890 47 849 71 q 990 0 931 24 l 978 -40 q 823 -17 882 -33 q 724 30 764 0 q 647 101 685 60 q 596 172 625 126 q 536 272 567 218 q 478 374 506 325 q 431 457 450 424 q 313 440 375 446 l 313 64 q 382 46 344 50 q 440 42 419 42 l 440 0 l 69 0 m 313 490 q 474 524 407 494 q 581 597 542 553 q 632 693 621 642 q 625 794 643 744 q 522 917 594 879 q 313 940 449 956 l 313 490 z "},"Ŕ":{"ha":982,"x_min":69,"x_max":990,"o":"m 69 0 l 69 42 q 125 46 89 42 q 192 64 161 50 l 192 929 q 126 938 158 936 q 74 936 93 939 l 69 978 q 313 997 203 989 q 509 997 424 1004 q 653 956 594 989 q 739 851 711 922 q 755 765 754 814 q 735 667 756 717 q 667 571 714 617 q 543 492 621 525 q 603 392 568 447 q 676 281 638 336 q 751 178 715 225 q 817 103 786 135 q 890 47 849 71 q 990 0 931 24 l 978 -40 q 823 -17 882 -33 q 724 30 764 0 q 647 101 685 60 q 596 172 625 126 q 536 272 567 218 q 478 374 506 325 q 431 457 450 424 q 313 440 375 446 l 313 64 q 382 46 344 50 q 440 42 419 42 l 440 0 l 69 0 m 313 490 q 474 524 407 494 q 581 597 542 553 q 632 693 621 642 q 625 794 643 744 q 522 917 594 879 q 313 940 449 956 l 313 490 m 335 1085 l 315 1118 l 601 1283 l 650 1200 l 335 1085 z "},"Ř":{"ha":982,"x_min":69,"x_max":990,"o":"m 69 0 l 69 42 q 125 46 89 42 q 192 64 161 50 l 192 929 q 126 938 158 936 q 74 936 93 939 l 69 978 q 313 997 203 989 q 509 997 424 1004 q 653 956 594 989 q 739 851 711 922 q 755 765 754 814 q 735 667 756 717 q 667 571 714 617 q 543 492 621 525 q 603 392 568 447 q 676 281 638 336 q 751 178 715 225 q 817 103 786 135 q 890 47 849 71 q 990 0 931 24 l 978 -40 q 823 -17 882 -33 q 724 30 764 0 q 647 101 685 60 q 596 172 625 126 q 536 272 567 218 q 478 374 506 325 q 431 457 450 424 q 313 440 375 446 l 313 64 q 382 46 344 50 q 440 42 419 42 l 440 0 l 69 0 m 313 490 q 474 524 407 494 q 581 597 542 553 q 632 693 621 642 q 625 794 643 744 q 522 917 594 879 q 313 940 449 956 l 313 490 m 617 1326 l 643 1294 l 419 1106 l 386 1106 l 163 1294 l 189 1326 l 403 1204 l 617 1326 z "},"Ŗ":{"ha":982,"x_min":69,"x_max":990,"o":"m 69 0 l 69 42 q 125 46 89 42 q 192 64 161 50 l 192 929 q 126 938 158 936 q 74 936 93 939 l 69 978 q 313 997 203 989 q 509 997 424 1004 q 653 956 594 989 q 739 851 711 922 q 755 765 754 814 q 735 667 756 717 q 667 571 714 617 q 543 492 621 525 q 603 392 568 447 q 676 281 638 336 q 751 178 715 225 q 817 103 786 135 q 890 47 849 71 q 990 0 931 24 l 978 -40 q 823 -17 882 -33 q 724 30 764 0 q 647 101 685 60 q 596 172 625 126 q 536 272 567 218 q 478 374 506 325 q 431 457 450 424 q 313 440 375 446 l 313 64 q 382 46 344 50 q 440 42 419 42 l 440 0 l 69 0 m 313 490 q 474 524 407 494 q 581 597 542 553 q 632 693 621 642 q 625 794 643 744 q 522 917 594 879 q 313 940 449 956 l 313 490 m 433 -440 l 414 -414 q 477 -342 454 -383 q 500 -250 500 -300 l 499 -250 q 444 -228 465 -250 q 422 -175 422 -207 q 444 -121 422 -144 q 499 -97 465 -97 q 551 -119 531 -97 q 575 -178 572 -142 q 566 -267 579 -217 q 521 -363 553 -317 q 433 -440 489 -410 z "},"S":{"ha":769,"x_min":64,"x_max":699,"o":"m 378 -19 q 252 -9 313 -19 q 151 14 192 1 q 107 32 111 26 l 64 299 l 110 307 q 194 117 138 188 q 364 46 251 46 q 514 91 456 46 q 572 215 572 136 q 540 313 572 271 q 458 390 508 356 q 349 459 407 425 q 241 533 292 493 q 158 624 190 572 q 126 746 126 675 q 171 888 126 832 q 290 973 215 944 q 456 1001 365 1001 q 571 991 519 1001 q 649 975 622 981 l 679 750 l 633 744 q 578 885 622 832 q 446 938 533 938 q 348 917 393 938 q 276 860 303 896 q 249 778 249 824 q 281 683 249 724 q 365 610 314 643 q 474 544 417 578 q 582 469 531 511 q 666 371 633 428 q 699 233 699 314 q 656 95 699 151 q 540 10 613 39 q 378 -19 468 -19 z "},"Ś":{"ha":769,"x_min":64,"x_max":699,"o":"m 378 -19 q 252 -9 313 -19 q 151 14 192 1 q 107 32 111 26 l 64 299 l 110 307 q 194 117 138 188 q 364 46 251 46 q 514 91 456 46 q 572 215 572 136 q 540 313 572 271 q 458 390 508 356 q 349 459 407 425 q 241 533 292 493 q 158 624 190 572 q 126 746 126 675 q 171 888 126 832 q 290 973 215 944 q 456 1001 365 1001 q 571 991 519 1001 q 649 975 622 981 l 679 750 l 633 744 q 578 885 622 832 q 446 938 533 938 q 348 917 393 938 q 276 860 303 896 q 249 778 249 824 q 281 683 249 724 q 365 610 314 643 q 474 544 417 578 q 582 469 531 511 q 666 371 633 428 q 699 233 699 314 q 656 95 699 151 q 540 10 613 39 q 378 -19 468 -19 m 342 1085 l 322 1118 l 608 1283 l 657 1200 l 342 1085 z "},"Š":{"ha":769,"x_min":64,"x_max":699,"o":"m 378 -19 q 252 -9 313 -19 q 151 14 192 1 q 107 32 111 26 l 64 299 l 110 307 q 194 117 138 188 q 364 46 251 46 q 514 91 456 46 q 572 215 572 136 q 540 313 572 271 q 458 390 508 356 q 349 459 407 425 q 241 533 292 493 q 158 624 190 572 q 126 746 126 675 q 171 888 126 832 q 290 973 215 944 q 456 1001 365 1001 q 571 991 519 1001 q 649 975 622 981 l 679 750 l 633 744 q 578 885 622 832 q 446 938 533 938 q 348 917 393 938 q 276 860 303 896 q 249 778 249 824 q 281 683 249 724 q 365 610 314 643 q 474 544 417 578 q 582 469 531 511 q 666 371 633 428 q 699 233 699 314 q 656 95 699 151 q 540 10 613 39 q 378 -19 468 -19 m 624 1326 l 650 1294 l 426 1106 l 393 1106 l 169 1294 l 196 1326 l 410 1204 l 624 1326 z "},"Ş":{"ha":769,"x_min":64,"x_max":699,"o":"m 378 -19 q 252 -9 313 -19 q 151 14 192 1 q 107 32 111 26 l 64 299 l 110 307 q 194 117 138 188 q 364 46 251 46 q 514 91 456 46 q 572 215 572 136 q 540 313 572 271 q 458 390 508 356 q 349 459 407 425 q 241 533 292 493 q 158 624 190 572 q 126 746 126 675 q 171 888 126 832 q 290 973 215 944 q 456 1001 365 1001 q 571 991 519 1001 q 649 975 622 981 l 679 750 l 633 744 q 578 885 622 832 q 446 938 533 938 q 348 917 393 938 q 276 860 303 896 q 249 778 249 824 q 281 683 249 724 q 365 610 314 643 q 474 544 417 578 q 582 469 531 511 q 666 371 633 428 q 699 233 699 314 q 656 95 699 151 q 540 10 613 39 q 378 -19 468 -19 m 383 -333 q 313 -317 344 -333 q 261 -274 281 -300 l 283 -251 q 323 -281 300 -269 q 367 -292 346 -292 q 413 -272 396 -292 q 429 -225 429 -251 q 409 -170 429 -193 q 363 -133 389 -147 q 319 -115 338 -118 l 378 0 l 439 0 l 406 -64 q 480 -119 444 -85 q 515 -210 515 -153 q 478 -300 515 -267 q 383 -333 442 -333 z "},"Ŝ":{"ha":769,"x_min":64,"x_max":699,"o":"m 378 -19 q 252 -9 313 -19 q 151 14 192 1 q 107 32 111 26 l 64 299 l 110 307 q 194 117 138 188 q 364 46 251 46 q 514 91 456 46 q 572 215 572 136 q 540 313 572 271 q 458 390 508 356 q 349 459 407 425 q 241 533 292 493 q 158 624 190 572 q 126 746 126 675 q 171 888 126 832 q 290 973 215 944 q 456 1001 365 1001 q 571 991 519 1001 q 649 975 622 981 l 679 750 l 633 744 q 578 885 622 832 q 446 938 533 938 q 348 917 393 938 q 276 860 303 896 q 249 778 249 824 q 281 683 249 724 q 365 610 314 643 q 474 544 417 578 q 582 469 531 511 q 666 371 633 428 q 699 233 699 314 q 656 95 699 151 q 540 10 613 39 q 378 -19 468 -19 m 192 1096 l 165 1128 l 389 1317 l 422 1317 l 646 1128 l 619 1096 l 406 1218 l 192 1096 z "},"Ș":{"ha":769,"x_min":64,"x_max":699,"o":"m 378 -19 q 252 -9 313 -19 q 151 14 192 1 q 107 32 111 26 l 64 299 l 110 307 q 194 117 138 188 q 364 46 251 46 q 514 91 456 46 q 572 215 572 136 q 540 313 572 271 q 458 390 508 356 q 349 459 407 425 q 241 533 292 493 q 158 624 190 572 q 126 746 126 675 q 171 888 126 832 q 290 973 215 944 q 456 1001 365 1001 q 571 991 519 1001 q 649 975 622 981 l 679 750 l 633 744 q 578 885 622 832 q 446 938 533 938 q 348 917 393 938 q 276 860 303 896 q 249 778 249 824 q 281 683 249 724 q 365 610 314 643 q 474 544 417 578 q 582 469 531 511 q 666 371 633 428 q 699 233 699 314 q 656 95 699 151 q 540 10 613 39 q 378 -19 468 -19 m 331 -440 l 311 -414 q 374 -342 351 -383 q 397 -250 397 -300 l 396 -250 q 341 -228 363 -250 q 319 -175 319 -207 q 341 -121 319 -144 q 396 -97 363 -97 q 449 -119 428 -97 q 472 -178 469 -142 q 463 -267 476 -217 q 418 -363 450 -317 q 331 -440 386 -410 z "},"ẞ":{"ha":1025,"x_min":39,"x_max":990,"o":"m 700 -19 q 627 -11 668 -19 q 550 9 586 -3 q 493 33 514 21 l 451 294 l 499 304 q 580 117 522 190 q 722 44 638 44 q 840 88 793 44 q 886 196 886 132 q 844 317 886 260 q 731 431 801 374 q 576 551 661 488 l 728 797 q 623 892 682 853 q 486 932 564 932 q 352 885 396 932 q 296 760 308 839 q 283 581 283 681 l 283 64 q 343 46 311 50 q 393 42 375 42 l 393 0 l 39 0 l 39 42 q 94 46 58 42 q 161 64 131 50 l 161 526 q 167 659 161 592 q 198 790 174 726 q 276 907 222 854 q 391 978 325 954 q 519 1001 457 1001 q 690 969 614 1001 q 839 868 765 938 l 692 633 q 838 515 769 576 q 948 383 906 453 q 990 236 990 314 q 956 106 990 164 q 858 15 922 49 q 700 -19 793 -19 z "},"T":{"ha":886,"x_min":14,"x_max":872,"o":"m 260 0 l 260 42 q 315 46 279 42 q 382 64 351 50 l 382 911 l 92 911 q 72 822 79 865 q 58 738 65 779 l 14 738 l 14 982 l 872 982 l 836 733 l 793 738 q 794 821 794 778 q 788 911 794 864 l 503 911 l 503 64 q 570 46 535 50 q 625 42 606 42 l 625 0 l 260 0 z "},"Ŧ":{"ha":886,"x_min":14,"x_max":872,"o":"m 260 0 l 260 42 q 315 46 279 42 q 382 64 351 50 l 382 471 l 200 471 l 200 529 l 382 529 l 382 911 l 92 911 q 72 822 79 865 q 58 738 65 779 l 14 738 l 14 982 l 872 982 l 836 733 l 793 738 q 794 821 794 778 q 788 911 794 864 l 503 911 l 503 529 l 686 529 l 686 471 l 503 471 l 503 64 q 570 46 535 50 q 625 42 606 42 l 625 0 l 260 0 z "},"Ť":{"ha":886,"x_min":14,"x_max":872,"o":"m 260 0 l 260 42 q 315 46 279 42 q 382 64 351 50 l 382 911 l 92 911 q 72 822 79 865 q 58 738 65 779 l 14 738 l 14 982 l 872 982 l 836 733 l 793 738 q 794 821 794 778 q 788 911 794 864 l 503 911 l 503 64 q 570 46 535 50 q 625 42 606 42 l 625 0 l 260 0 m 661 1326 l 688 1294 l 464 1106 l 431 1106 l 207 1294 l 233 1326 l 447 1204 l 661 1326 z "},"Ţ":{"ha":886,"x_min":14,"x_max":872,"o":"m 260 0 l 260 42 q 315 46 279 42 q 382 64 351 50 l 382 911 l 92 911 q 72 822 79 865 q 58 738 65 779 l 14 738 l 14 982 l 872 982 l 836 733 l 793 738 q 794 821 794 778 q 788 911 794 864 l 503 911 l 503 64 q 570 46 535 50 q 625 42 606 42 l 625 0 l 260 0 m 435 -333 q 364 -317 396 -333 q 313 -274 332 -300 l 335 -251 q 374 -281 351 -269 q 418 -292 397 -292 q 464 -272 447 -292 q 481 -225 481 -251 q 460 -170 481 -193 q 415 -133 440 -147 q 371 -115 389 -118 l 429 0 l 490 0 l 457 -64 q 531 -119 496 -85 q 567 -210 567 -153 q 530 -300 567 -267 q 435 -333 493 -333 z "},"Ț":{"ha":886,"x_min":14,"x_max":872,"o":"m 260 0 l 260 42 q 315 46 279 42 q 382 64 351 50 l 382 911 l 92 911 q 72 822 79 865 q 58 738 65 779 l 14 738 l 14 982 l 872 982 l 836 733 l 793 738 q 794 821 794 778 q 788 911 794 864 l 503 911 l 503 64 q 570 46 535 50 q 625 42 606 42 l 625 0 l 260 0 m 382 -440 l 363 -414 q 426 -342 403 -383 q 449 -250 449 -300 l 447 -250 q 392 -228 414 -250 q 371 -175 371 -207 q 392 -121 371 -144 q 447 -97 414 -97 q 500 -119 479 -97 q 524 -178 521 -142 q 515 -267 528 -217 q 469 -363 501 -317 q 382 -440 438 -410 z "},"Ṭ":{"ha":886,"x_min":14,"x_max":872,"o":"m 260 0 l 260 42 q 315 46 279 42 q 382 64 351 50 l 382 911 l 92 911 q 72 822 79 865 q 58 738 65 779 l 14 738 l 14 982 l 872 982 l 836 733 l 793 738 q 794 821 794 778 q 788 911 794 864 l 503 911 l 503 64 q 570 46 535 50 q 625 42 606 42 l 625 0 l 260 0 m 442 -251 q 387 -229 408 -251 q 365 -175 365 -207 q 387 -121 365 -144 q 442 -97 408 -97 q 497 -119 475 -97 q 519 -174 519 -142 q 497 -228 519 -204 q 442 -251 475 -251 z "},"U":{"ha":1158,"x_min":69,"x_max":1103,"o":"m 588 -19 q 493 -10 544 -19 q 390 23 442 0 q 296 86 339 46 q 226 186 253 126 q 197 337 201 247 q 192 533 192 426 l 192 918 q 125 936 161 932 q 69 940 89 940 l 69 982 l 435 982 l 435 940 q 380 936 415 940 q 313 918 344 932 l 313 540 q 313 473 313 514 q 314 387 313 432 q 320 300 315 342 q 333 231 325 258 q 387 142 350 183 q 478 77 424 101 q 601 53 533 53 q 779 94 700 53 q 885 225 858 136 q 902 370 901 283 q 903 556 903 457 l 903 918 q 836 936 872 932 q 781 940 800 940 l 781 982 l 1103 982 l 1103 940 q 1048 936 1083 940 q 981 918 1013 932 l 981 546 q 980 420 981 486 q 974 294 979 354 q 956 193 969 235 q 891 88 935 129 q 793 22 847 46 q 685 -10 739 -1 q 588 -19 631 -19 z "},"Ú":{"ha":1158,"x_min":69,"x_max":1103,"o":"m 588 -19 q 493 -10 544 -19 q 390 23 442 0 q 296 86 339 46 q 226 186 253 126 q 197 337 201 247 q 192 533 192 426 l 192 918 q 125 936 161 932 q 69 940 89 940 l 69 982 l 435 982 l 435 940 q 380 936 415 940 q 313 918 344 932 l 313 540 q 313 473 313 514 q 314 387 313 432 q 320 300 315 342 q 333 231 325 258 q 387 142 350 183 q 478 77 424 101 q 601 53 533 53 q 779 94 700 53 q 885 225 858 136 q 902 370 901 283 q 903 556 903 457 l 903 918 q 836 936 872 932 q 781 940 800 940 l 781 982 l 1103 982 l 1103 940 q 1048 936 1083 940 q 981 918 1013 932 l 981 546 q 980 420 981 486 q 974 294 979 354 q 956 193 969 235 q 891 88 935 129 q 793 22 847 46 q 685 -10 739 -1 q 588 -19 631 -19 m 542 1085 l 522 1118 l 808 1283 l 857 1200 l 542 1085 z "},"Ŭ":{"ha":1158,"x_min":69,"x_max":1103,"o":"m 588 -19 q 493 -10 544 -19 q 390 23 442 0 q 296 86 339 46 q 226 186 253 126 q 197 337 201 247 q 192 533 192 426 l 192 918 q 125 936 161 932 q 69 940 89 940 l 69 982 l 435 982 l 435 940 q 380 936 415 940 q 313 918 344 932 l 313 540 q 313 473 313 514 q 314 387 313 432 q 320 300 315 342 q 333 231 325 258 q 387 142 350 183 q 478 77 424 101 q 601 53 533 53 q 779 94 700 53 q 885 225 858 136 q 902 370 901 283 q 903 556 903 457 l 903 918 q 836 936 872 932 q 781 940 800 940 l 781 982 l 1103 982 l 1103 940 q 1048 936 1083 940 q 981 918 1013 932 l 981 546 q 980 420 981 486 q 974 294 979 354 q 956 193 969 235 q 891 88 935 129 q 793 22 847 46 q 685 -10 739 -1 q 588 -19 631 -19 m 606 1125 q 489 1158 547 1124 q 397 1282 431 1193 l 429 1299 q 512 1231 465 1244 q 606 1218 558 1218 q 699 1231 650 1218 q 782 1299 747 1244 l 814 1282 q 722 1160 779 1193 q 606 1125 665 1126 z "},"Û":{"ha":1158,"x_min":69,"x_max":1103,"o":"m 588 -19 q 493 -10 544 -19 q 390 23 442 0 q 296 86 339 46 q 226 186 253 126 q 197 337 201 247 q 192 533 192 426 l 192 918 q 125 936 161 932 q 69 940 89 940 l 69 982 l 435 982 l 435 940 q 380 936 415 940 q 313 918 344 932 l 313 540 q 313 473 313 514 q 314 387 313 432 q 320 300 315 342 q 333 231 325 258 q 387 142 350 183 q 478 77 424 101 q 601 53 533 53 q 779 94 700 53 q 885 225 858 136 q 902 370 901 283 q 903 556 903 457 l 903 918 q 836 936 872 932 q 781 940 800 940 l 781 982 l 1103 982 l 1103 940 q 1048 936 1083 940 q 981 918 1013 932 l 981 546 q 980 420 981 486 q 974 294 979 354 q 956 193 969 235 q 891 88 935 129 q 793 22 847 46 q 685 -10 739 -1 q 588 -19 631 -19 m 392 1096 l 365 1128 l 589 1317 l 622 1317 l 846 1128 l 819 1096 l 606 1218 l 392 1096 z "},"Ü":{"ha":1158,"x_min":69,"x_max":1103,"o":"m 588 -19 q 493 -10 544 -19 q 390 23 442 0 q 296 86 339 46 q 226 186 253 126 q 197 337 201 247 q 192 533 192 426 l 192 918 q 125 936 161 932 q 69 940 89 940 l 69 982 l 435 982 l 435 940 q 380 936 415 940 q 313 918 344 932 l 313 540 q 313 473 313 514 q 314 387 313 432 q 320 300 315 342 q 333 231 325 258 q 387 142 350 183 q 478 77 424 101 q 601 53 533 53 q 779 94 700 53 q 885 225 858 136 q 902 370 901 283 q 903 556 903 457 l 903 918 q 836 936 872 932 q 781 940 800 940 l 781 982 l 1103 982 l 1103 940 q 1048 936 1083 940 q 981 918 1013 932 l 981 546 q 980 420 981 486 q 974 294 979 354 q 956 193 969 235 q 891 88 935 129 q 793 22 847 46 q 685 -10 739 -1 q 588 -19 631 -19 m 479 1111 q 431 1131 450 1111 q 411 1178 411 1150 q 431 1226 411 1206 q 479 1247 450 1247 q 528 1228 508 1247 q 549 1181 549 1208 q 528 1132 549 1153 q 479 1111 508 1111 m 731 1111 q 682 1131 701 1111 q 663 1178 663 1150 q 682 1226 663 1206 q 731 1247 701 1247 q 780 1228 760 1247 q 800 1181 800 1208 q 780 1132 800 1153 q 731 1111 760 1111 z "},"Ụ":{"ha":1158,"x_min":69,"x_max":1103,"o":"m 588 -19 q 493 -10 544 -19 q 390 23 442 0 q 296 86 339 46 q 226 186 253 126 q 197 337 201 247 q 192 533 192 426 l 192 918 q 125 936 161 932 q 69 940 89 940 l 69 982 l 435 982 l 435 940 q 380 936 415 940 q 313 918 344 932 l 313 540 q 313 473 313 514 q 314 387 313 432 q 320 300 315 342 q 333 231 325 258 q 387 142 350 183 q 478 77 424 101 q 601 53 533 53 q 779 94 700 53 q 885 225 858 136 q 902 370 901 283 q 903 556 903 457 l 903 918 q 836 936 872 932 q 781 940 800 940 l 781 982 l 1103 982 l 1103 940 q 1048 936 1083 940 q 981 918 1013 932 l 981 546 q 980 420 981 486 q 974 294 979 354 q 956 193 969 235 q 891 88 935 129 q 793 22 847 46 q 685 -10 739 -1 q 588 -19 631 -19 m 606 -251 q 551 -229 572 -251 q 529 -175 529 -207 q 551 -121 529 -144 q 606 -97 572 -97 q 661 -119 639 -97 q 683 -174 683 -142 q 661 -228 683 -204 q 606 -251 639 -251 z "},"Ù":{"ha":1158,"x_min":69,"x_max":1103,"o":"m 588 -19 q 493 -10 544 -19 q 390 23 442 0 q 296 86 339 46 q 226 186 253 126 q 197 337 201 247 q 192 533 192 426 l 192 918 q 125 936 161 932 q 69 940 89 940 l 69 982 l 435 982 l 435 940 q 380 936 415 940 q 313 918 344 932 l 313 540 q 313 473 313 514 q 314 387 313 432 q 320 300 315 342 q 333 231 325 258 q 387 142 350 183 q 478 77 424 101 q 601 53 533 53 q 779 94 700 53 q 885 225 858 136 q 902 370 901 283 q 903 556 903 457 l 903 918 q 836 936 872 932 q 781 940 800 940 l 781 982 l 1103 982 l 1103 940 q 1048 936 1083 940 q 981 918 1013 932 l 981 546 q 980 420 981 486 q 974 294 979 354 q 956 193 969 235 q 891 88 935 129 q 793 22 847 46 q 685 -10 739 -1 q 588 -19 631 -19 m 697 1096 l 382 1211 l 431 1294 l 717 1129 l 697 1096 z "},"Ű":{"ha":1158,"x_min":69,"x_max":1103,"o":"m 588 -19 q 493 -10 544 -19 q 390 23 442 0 q 296 86 339 46 q 226 186 253 126 q 197 337 201 247 q 192 533 192 426 l 192 918 q 125 936 161 932 q 69 940 89 940 l 69 982 l 435 982 l 435 940 q 380 936 415 940 q 313 918 344 932 l 313 540 q 313 473 313 514 q 314 387 313 432 q 320 300 315 342 q 333 231 325 258 q 387 142 350 183 q 478 77 424 101 q 601 53 533 53 q 779 94 700 53 q 885 225 858 136 q 902 370 901 283 q 903 556 903 457 l 903 918 q 836 936 872 932 q 781 940 800 940 l 781 982 l 1103 982 l 1103 940 q 1048 936 1083 940 q 981 918 1013 932 l 981 546 q 980 420 981 486 q 974 294 979 354 q 956 193 969 235 q 891 88 935 129 q 793 22 847 46 q 685 -10 739 -1 q 588 -19 631 -19 m 704 1096 l 671 1124 l 819 1358 l 899 1297 l 704 1096 m 503 1085 l 469 1113 l 618 1347 l 697 1286 l 503 1085 z "},"Ū":{"ha":1158,"x_min":69,"x_max":1103,"o":"m 588 -19 q 493 -10 544 -19 q 390 23 442 0 q 296 86 339 46 q 226 186 253 126 q 197 337 201 247 q 192 533 192 426 l 192 918 q 125 936 161 932 q 69 940 89 940 l 69 982 l 435 982 l 435 940 q 380 936 415 940 q 313 918 344 932 l 313 540 q 313 473 313 514 q 314 387 313 432 q 320 300 315 342 q 333 231 325 258 q 387 142 350 183 q 478 77 424 101 q 601 53 533 53 q 779 94 700 53 q 885 225 858 136 q 902 370 901 283 q 903 556 903 457 l 903 918 q 836 936 872 932 q 781 940 800 940 l 781 982 l 1103 982 l 1103 940 q 1048 936 1083 940 q 981 918 1013 932 l 981 546 q 980 420 981 486 q 974 294 979 354 q 956 193 969 235 q 891 88 935 129 q 793 22 847 46 q 685 -10 739 -1 q 588 -19 631 -19 m 369 1119 l 369 1186 l 842 1186 l 842 1119 l 369 1119 z "},"Ų":{"ha":1158,"x_min":69,"x_max":1103,"o":"m 588 -19 q 493 -10 544 -19 q 390 23 442 0 q 296 86 339 46 q 226 186 253 126 q 197 337 201 247 q 192 533 192 426 l 192 918 q 125 936 161 932 q 69 940 89 940 l 69 982 l 435 982 l 435 940 q 380 936 415 940 q 313 918 344 932 l 313 540 q 313 473 313 514 q 314 387 313 432 q 320 300 315 342 q 333 231 325 258 q 387 142 350 183 q 478 77 424 101 q 601 53 533 53 q 779 94 700 53 q 885 225 858 136 q 902 370 901 283 q 903 556 903 457 l 903 918 q 836 936 872 932 q 781 940 800 940 l 781 982 l 1103 982 l 1103 940 q 1048 936 1083 940 q 981 918 1013 932 l 981 546 q 980 420 981 486 q 974 294 979 354 q 956 193 969 235 q 891 88 935 129 q 793 22 847 46 q 685 -10 739 -1 q 588 -19 631 -19 m 601 -333 q 515 -308 550 -333 q 479 -225 479 -282 q 517 -113 479 -167 q 636 0 556 -60 l 690 0 q 606 -99 638 -50 q 575 -187 575 -147 q 595 -244 575 -222 q 651 -267 615 -267 q 690 -259 671 -267 q 719 -242 708 -251 l 735 -264 q 673 -313 711 -293 q 601 -333 635 -333 z "},"Ů":{"ha":1158,"x_min":69,"x_max":1103,"o":"m 588 -19 q 493 -10 544 -19 q 390 23 442 0 q 296 86 339 46 q 226 186 253 126 q 197 337 201 247 q 192 533 192 426 l 192 918 q 125 936 161 932 q 69 940 89 940 l 69 982 l 435 982 l 435 940 q 380 936 415 940 q 313 918 344 932 l 313 540 q 313 473 313 514 q 314 387 313 432 q 320 300 315 342 q 333 231 325 258 q 387 142 350 183 q 478 77 424 101 q 601 53 533 53 q 779 94 700 53 q 885 225 858 136 q 902 370 901 283 q 903 556 903 457 l 903 918 q 836 936 872 932 q 781 940 800 940 l 781 982 l 1103 982 l 1103 940 q 1048 936 1083 940 q 981 918 1013 932 l 981 546 q 980 420 981 486 q 974 294 979 354 q 956 193 969 235 q 891 88 935 129 q 793 22 847 46 q 685 -10 739 -1 q 588 -19 631 -19 m 606 1111 q 515 1147 554 1111 q 476 1240 476 1183 q 514 1334 476 1294 q 604 1374 551 1374 q 696 1335 658 1374 q 733 1243 733 1296 q 696 1151 733 1190 q 606 1111 658 1111 m 613 1156 q 656 1176 639 1158 q 672 1231 672 1193 q 651 1295 672 1264 q 597 1326 629 1326 q 556 1306 574 1326 q 538 1253 538 1285 q 558 1185 538 1218 q 613 1156 579 1153 z "},"Ũ":{"ha":1158,"x_min":69,"x_max":1103,"o":"m 588 -19 q 493 -10 544 -19 q 390 23 442 0 q 296 86 339 46 q 226 186 253 126 q 197 337 201 247 q 192 533 192 426 l 192 918 q 125 936 161 932 q 69 940 89 940 l 69 982 l 435 982 l 435 940 q 380 936 415 940 q 313 918 344 932 l 313 540 q 313 473 313 514 q 314 387 313 432 q 320 300 315 342 q 333 231 325 258 q 387 142 350 183 q 478 77 424 101 q 601 53 533 53 q 779 94 700 53 q 885 225 858 136 q 902 370 901 283 q 903 556 903 457 l 903 918 q 836 936 872 932 q 781 940 800 940 l 781 982 l 1103 982 l 1103 940 q 1048 936 1083 940 q 981 918 1013 932 l 981 546 q 980 420 981 486 q 974 294 979 354 q 956 193 969 235 q 891 88 935 129 q 793 22 847 46 q 685 -10 739 -1 q 588 -19 631 -19 m 418 1103 l 389 1118 q 422 1177 401 1144 q 473 1235 443 1210 q 538 1261 503 1260 q 600 1253 574 1264 q 647 1228 626 1243 q 689 1203 668 1214 q 735 1193 710 1192 q 795 1217 775 1196 q 833 1269 815 1239 l 863 1254 q 830 1197 851 1229 q 779 1139 808 1164 q 714 1111 750 1114 q 653 1120 679 1110 q 606 1145 626 1131 q 563 1171 585 1160 q 517 1181 542 1182 q 457 1155 476 1178 q 418 1103 438 1132 z "},"V":{"ha":1008,"x_min":6,"x_max":1003,"o":"m 465 -19 l 115 918 q 56 936 88 932 q 6 940 24 940 l 6 982 l 368 982 l 368 940 q 313 936 349 940 q 246 918 278 932 l 524 174 l 829 918 q 763 936 799 932 q 707 940 726 940 l 707 982 l 1003 982 l 1003 940 q 959 936 988 940 q 906 918 931 932 l 522 -19 l 465 -19 z "},"W":{"ha":1318,"x_min":6,"x_max":1351,"o":"m 354 -19 l 111 919 q 53 936 85 932 q 6 940 22 940 l 6 982 l 358 982 l 358 940 q 303 936 339 940 q 238 918 268 932 l 424 199 l 693 860 l 750 860 l 1006 211 l 1178 918 q 1112 936 1147 932 q 1057 940 1076 940 l 1057 982 l 1351 982 l 1351 940 q 1307 936 1336 940 q 1251 918 1278 932 l 1021 -19 l 964 -19 l 693 672 l 411 -19 l 354 -19 z "},"Ẃ":{"ha":1318,"x_min":6,"x_max":1351,"o":"m 354 -19 l 111 919 q 53 936 85 932 q 6 940 22 940 l 6 982 l 358 982 l 358 940 q 303 936 339 940 q 238 918 268 932 l 424 199 l 693 860 l 750 860 l 1006 211 l 1178 918 q 1112 936 1147 932 q 1057 940 1076 940 l 1057 982 l 1351 982 l 1351 940 q 1307 936 1336 940 q 1251 918 1278 932 l 1021 -19 l 964 -19 l 693 672 l 411 -19 l 354 -19 m 658 1096 l 639 1129 l 925 1294 l 974 1211 l 658 1096 z "},"Ŵ":{"ha":1318,"x_min":6,"x_max":1351,"o":"m 354 -19 l 111 919 q 53 936 85 932 q 6 940 22 940 l 6 982 l 358 982 l 358 940 q 303 936 339 940 q 238 918 268 932 l 424 199 l 693 860 l 750 860 l 1006 211 l 1178 918 q 1112 936 1147 932 q 1057 940 1076 940 l 1057 982 l 1351 982 l 1351 940 q 1307 936 1336 940 q 1251 918 1278 932 l 1021 -19 l 964 -19 l 693 672 l 411 -19 l 354 -19 m 508 1096 l 482 1128 l 706 1317 l 739 1317 l 963 1128 l 936 1096 l 722 1218 l 508 1096 z "},"Ẅ":{"ha":1318,"x_min":6,"x_max":1351,"o":"m 354 -19 l 111 919 q 53 936 85 932 q 6 940 22 940 l 6 982 l 358 982 l 358 940 q 303 936 339 940 q 238 918 268 932 l 424 199 l 693 860 l 750 860 l 1006 211 l 1178 918 q 1112 936 1147 932 q 1057 940 1076 940 l 1057 982 l 1351 982 l 1351 940 q 1307 936 1336 940 q 1251 918 1278 932 l 1021 -19 l 964 -19 l 693 672 l 411 -19 l 354 -19 m 596 1111 q 547 1131 567 1111 q 528 1178 528 1150 q 547 1226 528 1206 q 596 1247 567 1247 q 645 1228 625 1247 q 665 1181 665 1208 q 645 1132 665 1153 q 596 1111 625 1111 m 847 1111 q 799 1131 818 1111 q 779 1178 779 1150 q 799 1226 779 1206 q 847 1247 818 1247 q 897 1228 876 1247 q 917 1181 917 1208 q 897 1132 917 1153 q 847 1111 876 1111 z "},"Ẁ":{"ha":1318,"x_min":6,"x_max":1351,"o":"m 354 -19 l 111 919 q 53 936 85 932 q 6 940 22 940 l 6 982 l 358 982 l 358 940 q 303 936 339 940 q 238 918 268 932 l 424 199 l 693 860 l 750 860 l 1006 211 l 1178 918 q 1112 936 1147 932 q 1057 940 1076 940 l 1057 982 l 1351 982 l 1351 940 q 1307 936 1336 940 q 1251 918 1278 932 l 1021 -19 l 964 -19 l 693 672 l 411 -19 l 354 -19 m 814 1096 l 499 1211 l 547 1294 l 833 1129 l 814 1096 z "},"X":{"ha":938,"x_min":6,"x_max":932,"o":"m 6 0 l 6 42 q 50 46 21 42 q 106 64 79 50 l 401 489 l 122 919 q 65 936 96 932 q 17 940 33 940 l 17 982 l 392 982 l 392 940 q 337 936 372 940 q 269 918 301 932 l 483 589 l 715 918 q 649 936 685 932 q 593 940 613 940 l 593 982 l 901 982 l 901 940 q 858 936 886 940 q 803 918 829 932 l 526 524 l 825 64 q 883 46 853 50 q 932 42 914 42 l 932 0 l 557 0 l 557 42 q 612 46 576 42 q 678 64 647 50 l 444 424 l 193 64 q 260 46 225 50 q 315 42 296 42 l 315 0 l 6 0 z "},"Y":{"ha":906,"x_min":6,"x_max":900,"o":"m 282 0 l 282 42 q 338 46 301 42 q 404 64 374 50 l 404 389 l 111 918 q 53 936 85 932 q 6 940 22 940 l 6 982 l 372 982 l 372 940 q 318 936 353 940 q 251 918 283 932 l 485 496 l 721 918 q 654 936 690 932 q 599 940 618 940 l 599 982 l 900 982 l 900 940 q 856 936 885 940 q 801 919 828 932 l 525 421 l 525 64 q 592 46 557 50 q 647 42 628 42 l 647 0 l 282 0 z "},"Ý":{"ha":906,"x_min":6,"x_max":900,"o":"m 282 0 l 282 42 q 338 46 301 42 q 404 64 374 50 l 404 389 l 111 918 q 53 936 85 932 q 6 940 22 940 l 6 982 l 372 982 l 372 940 q 318 936 353 940 q 251 918 283 932 l 485 496 l 721 918 q 654 936 690 932 q 599 940 618 940 l 599 982 l 900 982 l 900 940 q 856 936 885 940 q 801 919 828 932 l 525 421 l 525 64 q 592 46 557 50 q 647 42 628 42 l 647 0 l 282 0 m 407 1085 l 388 1118 l 674 1283 l 722 1200 l 407 1085 z "},"Ŷ":{"ha":906,"x_min":6,"x_max":900,"o":"m 282 0 l 282 42 q 338 46 301 42 q 404 64 374 50 l 404 389 l 111 918 q 53 936 85 932 q 6 940 22 940 l 6 982 l 372 982 l 372 940 q 318 936 353 940 q 251 918 283 932 l 485 496 l 721 918 q 654 936 690 932 q 599 940 618 940 l 599 982 l 900 982 l 900 940 q 856 936 885 940 q 801 919 828 932 l 525 421 l 525 64 q 592 46 557 50 q 647 42 628 42 l 647 0 l 282 0 m 257 1096 l 231 1128 l 454 1317 l 488 1317 l 711 1128 l 685 1096 l 471 1218 l 257 1096 z "},"Ÿ":{"ha":906,"x_min":6,"x_max":900,"o":"m 282 0 l 282 42 q 338 46 301 42 q 404 64 374 50 l 404 389 l 111 918 q 53 936 85 932 q 6 940 22 940 l 6 982 l 372 982 l 372 940 q 318 936 353 940 q 251 918 283 932 l 485 496 l 721 918 q 654 936 690 932 q 599 940 618 940 l 599 982 l 900 982 l 900 940 q 856 936 885 940 q 801 919 828 932 l 525 421 l 525 64 q 592 46 557 50 q 647 42 628 42 l 647 0 l 282 0 m 344 1111 q 296 1131 315 1111 q 276 1178 276 1150 q 296 1226 276 1206 q 344 1247 315 1247 q 394 1228 374 1247 q 414 1181 414 1208 q 394 1132 414 1153 q 344 1111 374 1111 m 596 1111 q 547 1131 567 1111 q 528 1178 528 1150 q 547 1226 528 1206 q 596 1247 567 1247 q 645 1228 625 1247 q 665 1181 665 1208 q 645 1132 665 1153 q 596 1111 625 1111 z "},"Ỳ":{"ha":906,"x_min":6,"x_max":900,"o":"m 282 0 l 282 42 q 338 46 301 42 q 404 64 374 50 l 404 389 l 111 918 q 53 936 85 932 q 6 940 22 940 l 6 982 l 372 982 l 372 940 q 318 936 353 940 q 251 918 283 932 l 485 496 l 721 918 q 654 936 690 932 q 599 940 618 940 l 599 982 l 900 982 l 900 940 q 856 936 885 940 q 801 919 828 932 l 525 421 l 525 64 q 592 46 557 50 q 647 42 628 42 l 647 0 l 282 0 m 563 1096 l 247 1211 l 296 1294 l 582 1129 l 563 1096 z "},"Ȳ":{"ha":906,"x_min":6,"x_max":900,"o":"m 282 0 l 282 42 q 338 46 301 42 q 404 64 374 50 l 404 389 l 111 918 q 53 936 85 932 q 6 940 22 940 l 6 982 l 372 982 l 372 940 q 318 936 353 940 q 251 918 283 932 l 485 496 l 721 918 q 654 936 690 932 q 599 940 618 940 l 599 982 l 900 982 l 900 940 q 856 936 885 940 q 801 919 828 932 l 525 421 l 525 64 q 592 46 557 50 q 647 42 628 42 l 647 0 l 282 0 m 235 1119 l 235 1186 l 707 1186 l 707 1119 l 235 1119 z "},"Ỹ":{"ha":906,"x_min":6,"x_max":900,"o":"m 282 0 l 282 42 q 338 46 301 42 q 404 64 374 50 l 404 389 l 111 918 q 53 936 85 932 q 6 940 22 940 l 6 982 l 372 982 l 372 940 q 318 936 353 940 q 251 918 283 932 l 485 496 l 721 918 q 654 936 690 932 q 599 940 618 940 l 599 982 l 900 982 l 900 940 q 856 936 885 940 q 801 919 828 932 l 525 421 l 525 64 q 592 46 557 50 q 647 42 628 42 l 647 0 l 282 0 m 283 1103 l 254 1118 q 288 1177 267 1144 q 338 1235 308 1210 q 403 1261 368 1260 q 465 1253 439 1264 q 513 1228 492 1243 q 554 1203 533 1214 q 600 1193 575 1192 q 660 1217 640 1196 q 699 1269 681 1239 l 728 1254 q 695 1197 717 1229 q 644 1139 674 1164 q 579 1111 615 1114 q 518 1120 544 1110 q 471 1145 492 1131 q 428 1171 450 1160 q 382 1181 407 1182 q 322 1155 342 1178 q 283 1103 303 1132 z "},"Z":{"ha":861,"x_min":35,"x_max":826,"o":"m 56 0 l 35 53 l 611 911 l 131 911 q 110 825 118 867 q 94 742 103 783 l 50 744 l 60 982 l 747 982 l 771 929 l 193 71 l 694 71 q 735 135 717 99 q 767 202 754 171 q 783 243 781 233 l 826 232 l 772 0 l 56 0 z "},"Ź":{"ha":861,"x_min":35,"x_max":826,"o":"m 56 0 l 35 53 l 611 911 l 131 911 q 110 825 118 867 q 94 742 103 783 l 50 744 l 60 982 l 747 982 l 771 929 l 193 71 l 694 71 q 735 135 717 99 q 767 202 754 171 q 783 243 781 233 l 826 232 l 772 0 l 56 0 m 338 1085 l 318 1118 l 604 1283 l 653 1200 l 338 1085 z "},"Ž":{"ha":861,"x_min":35,"x_max":826,"o":"m 56 0 l 35 53 l 611 911 l 131 911 q 110 825 118 867 q 94 742 103 783 l 50 744 l 60 982 l 747 982 l 771 929 l 193 71 l 694 71 q 735 135 717 99 q 767 202 754 171 q 783 243 781 233 l 826 232 l 772 0 l 56 0 m 619 1326 l 646 1294 l 422 1106 l 389 1106 l 165 1294 l 192 1326 l 406 1204 l 619 1326 z "},"Ẑ":{"ha":861,"x_min":35,"x_max":826,"o":"m 56 0 l 35 53 l 611 911 l 131 911 q 110 825 118 867 q 94 742 103 783 l 50 744 l 60 982 l 747 982 l 771 929 l 193 71 l 694 71 q 735 135 717 99 q 767 202 754 171 q 783 243 781 233 l 826 232 l 772 0 l 56 0 m 188 1096 l 161 1128 l 385 1317 l 418 1317 l 642 1128 l 615 1096 l 401 1218 l 188 1096 z "},"Ż":{"ha":861,"x_min":35,"x_max":826,"o":"m 56 0 l 35 53 l 611 911 l 131 911 q 110 825 118 867 q 94 742 103 783 l 50 744 l 60 982 l 747 982 l 771 929 l 193 71 l 694 71 q 735 135 717 99 q 767 202 754 171 q 783 243 781 233 l 826 232 l 772 0 l 56 0 m 401 1111 q 347 1133 368 1111 q 325 1188 325 1156 q 347 1242 325 1218 q 401 1265 368 1265 q 457 1243 435 1265 q 479 1189 479 1221 q 457 1135 479 1158 q 401 1111 435 1111 z "},"a":{"ha":615,"x_min":44,"x_max":585,"o":"m 211 -12 q 92 33 139 -12 q 44 153 44 79 q 49 204 44 179 q 64 247 54 229 q 115 269 76 254 q 203 301 153 283 q 299 336 253 319 q 375 363 346 353 l 375 471 q 373 515 375 499 q 361 547 371 532 q 335 572 353 561 q 289 583 317 583 q 209 548 239 583 q 188 460 179 513 l 76 415 q 108 540 75 489 q 199 618 142 592 q 324 644 257 644 q 440 610 396 644 q 485 504 485 576 l 485 147 q 487 94 485 113 q 503 65 489 76 q 531 58 514 58 q 568 65 547 58 l 585 29 q 531 -1 560 11 q 463 -12 501 -12 q 408 9 429 -12 q 381 61 386 31 q 297 11 336 35 q 211 -12 258 -12 m 253 74 q 306 82 275 74 q 375 110 336 90 l 375 301 q 287 269 333 288 q 205 237 240 251 q 158 215 169 222 q 172 114 144 154 q 253 74 199 74 z "},"á":{"ha":615,"x_min":44,"x_max":585,"o":"m 211 -12 q 92 33 139 -12 q 44 153 44 79 q 49 204 44 179 q 64 247 54 229 q 115 269 76 254 q 203 301 153 283 q 299 336 253 319 q 375 363 346 353 l 375 471 q 373 515 375 499 q 361 547 371 532 q 335 572 353 561 q 289 583 317 583 q 209 548 239 583 q 188 460 179 513 l 76 415 q 108 540 75 489 q 199 618 142 592 q 324 644 257 644 q 440 610 396 644 q 485 504 485 576 l 485 147 q 487 94 485 113 q 503 65 489 76 q 531 58 514 58 q 568 65 547 58 l 585 29 q 531 -1 560 11 q 463 -12 501 -12 q 408 9 429 -12 q 381 61 386 31 q 297 11 336 35 q 211 -12 258 -12 m 253 74 q 306 82 275 74 q 375 110 336 90 l 375 301 q 287 269 333 288 q 205 237 240 251 q 158 215 169 222 q 172 114 144 154 q 253 74 199 74 m 260 718 l 224 749 l 436 1001 l 517 935 l 260 718 z "},"ă":{"ha":615,"x_min":44,"x_max":585,"o":"m 211 -12 q 92 33 139 -12 q 44 153 44 79 q 49 204 44 179 q 64 247 54 229 q 115 269 76 254 q 203 301 153 283 q 299 336 253 319 q 375 363 346 353 l 375 471 q 373 515 375 499 q 361 547 371 532 q 335 572 353 561 q 289 583 317 583 q 209 548 239 583 q 188 460 179 513 l 76 415 q 108 540 75 489 q 199 618 142 592 q 324 644 257 644 q 440 610 396 644 q 485 504 485 576 l 485 147 q 487 94 485 113 q 503 65 489 76 q 531 58 514 58 q 568 65 547 58 l 585 29 q 531 -1 560 11 q 463 -12 501 -12 q 408 9 429 -12 q 381 61 386 31 q 297 11 336 35 q 211 -12 258 -12 m 253 74 q 306 82 275 74 q 375 110 336 90 l 375 301 q 287 269 333 288 q 205 237 240 251 q 158 215 169 222 q 172 114 144 154 q 253 74 199 74 m 293 776 q 173 819 225 775 q 97 947 121 863 l 132 958 q 196 889 156 908 q 293 869 236 869 q 390 889 349 869 q 454 958 432 908 l 489 947 q 414 820 465 863 q 293 776 363 778 z "},"â":{"ha":615,"x_min":44,"x_max":585,"o":"m 211 -12 q 92 33 139 -12 q 44 153 44 79 q 49 204 44 179 q 64 247 54 229 q 115 269 76 254 q 203 301 153 283 q 299 336 253 319 q 375 363 346 353 l 375 471 q 373 515 375 499 q 361 547 371 532 q 335 572 353 561 q 289 583 317 583 q 209 548 239 583 q 188 460 179 513 l 76 415 q 108 540 75 489 q 199 618 142 592 q 324 644 257 644 q 440 610 396 644 q 485 504 485 576 l 485 147 q 487 94 485 113 q 503 65 489 76 q 531 58 514 58 q 568 65 547 58 l 585 29 q 531 -1 560 11 q 463 -12 501 -12 q 408 9 429 -12 q 381 61 386 31 q 297 11 336 35 q 211 -12 258 -12 m 253 74 q 306 82 275 74 q 375 110 336 90 l 375 301 q 287 269 333 288 q 205 237 240 251 q 158 215 169 222 q 172 114 144 154 q 253 74 199 74 m 111 718 l 79 746 l 275 964 l 311 964 l 507 746 l 475 718 l 293 858 l 111 718 z "},"ä":{"ha":615,"x_min":44,"x_max":585,"o":"m 211 -12 q 92 33 139 -12 q 44 153 44 79 q 49 204 44 179 q 64 247 54 229 q 115 269 76 254 q 203 301 153 283 q 299 336 253 319 q 375 363 346 353 l 375 471 q 373 515 375 499 q 361 547 371 532 q 335 572 353 561 q 289 583 317 583 q 209 548 239 583 q 188 460 179 513 l 76 415 q 108 540 75 489 q 199 618 142 592 q 324 644 257 644 q 440 610 396 644 q 485 504 485 576 l 485 147 q 487 94 485 113 q 503 65 489 76 q 531 58 514 58 q 568 65 547 58 l 585 29 q 531 -1 560 11 q 463 -12 501 -12 q 408 9 429 -12 q 381 61 386 31 q 297 11 336 35 q 211 -12 258 -12 m 253 74 q 306 82 275 74 q 375 110 336 90 l 375 301 q 287 269 333 288 q 205 237 240 251 q 158 215 169 222 q 172 114 144 154 q 253 74 199 74 m 167 761 q 118 781 138 761 q 99 828 99 800 q 118 876 99 856 q 167 897 138 897 q 216 878 196 897 q 236 831 236 858 q 216 782 236 803 q 167 761 196 761 m 418 761 q 369 781 389 761 q 350 828 350 800 q 369 876 350 856 q 418 897 389 897 q 467 878 447 897 q 488 831 488 858 q 467 782 488 803 q 418 761 447 761 z "},"ạ":{"ha":615,"x_min":44,"x_max":585,"o":"m 211 -12 q 92 33 139 -12 q 44 153 44 79 q 49 204 44 179 q 64 247 54 229 q 115 269 76 254 q 203 301 153 283 q 299 336 253 319 q 375 363 346 353 l 375 471 q 373 515 375 499 q 361 547 371 532 q 335 572 353 561 q 289 583 317 583 q 209 548 239 583 q 188 460 179 513 l 76 415 q 108 540 75 489 q 199 618 142 592 q 324 644 257 644 q 440 610 396 644 q 485 504 485 576 l 485 147 q 487 94 485 113 q 503 65 489 76 q 531 58 514 58 q 568 65 547 58 l 585 29 q 531 -1 560 11 q 463 -12 501 -12 q 408 9 429 -12 q 381 61 386 31 q 297 11 336 35 q 211 -12 258 -12 m 253 74 q 306 82 275 74 q 375 110 336 90 l 375 301 q 287 269 333 288 q 205 237 240 251 q 158 215 169 222 q 172 114 144 154 q 253 74 199 74 m 307 -251 q 252 -229 274 -251 q 231 -175 231 -207 q 252 -121 231 -144 q 307 -97 274 -97 q 363 -119 340 -97 q 385 -174 385 -142 q 363 -228 385 -204 q 307 -251 340 -251 z "},"à":{"ha":615,"x_min":44,"x_max":585,"o":"m 211 -12 q 92 33 139 -12 q 44 153 44 79 q 49 204 44 179 q 64 247 54 229 q 115 269 76 254 q 203 301 153 283 q 299 336 253 319 q 375 363 346 353 l 375 471 q 373 515 375 499 q 361 547 371 532 q 335 572 353 561 q 289 583 317 583 q 209 548 239 583 q 188 460 179 513 l 76 415 q 108 540 75 489 q 199 618 142 592 q 324 644 257 644 q 440 610 396 644 q 485 504 485 576 l 485 147 q 487 94 485 113 q 503 65 489 76 q 531 58 514 58 q 568 65 547 58 l 585 29 q 531 -1 560 11 q 463 -12 501 -12 q 408 9 429 -12 q 381 61 386 31 q 297 11 336 35 q 211 -12 258 -12 m 253 74 q 306 82 275 74 q 375 110 336 90 l 375 301 q 287 269 333 288 q 205 237 240 251 q 158 215 169 222 q 172 114 144 154 q 253 74 199 74 m 326 718 l 69 935 l 150 1001 l 363 749 l 326 718 z "},"ā":{"ha":615,"x_min":44,"x_max":585,"o":"m 211 -12 q 92 33 139 -12 q 44 153 44 79 q 49 204 44 179 q 64 247 54 229 q 115 269 76 254 q 203 301 153 283 q 299 336 253 319 q 375 363 346 353 l 375 471 q 373 515 375 499 q 361 547 371 532 q 335 572 353 561 q 289 583 317 583 q 209 548 239 583 q 188 460 179 513 l 76 415 q 108 540 75 489 q 199 618 142 592 q 324 644 257 644 q 440 610 396 644 q 485 504 485 576 l 485 147 q 487 94 485 113 q 503 65 489 76 q 531 58 514 58 q 568 65 547 58 l 585 29 q 531 -1 560 11 q 463 -12 501 -12 q 408 9 429 -12 q 381 61 386 31 q 297 11 336 35 q 211 -12 258 -12 m 253 74 q 306 82 275 74 q 375 110 336 90 l 375 301 q 287 269 333 288 q 205 237 240 251 q 158 215 169 222 q 172 114 144 154 q 253 74 199 74 m 85 799 l 85 865 l 501 865 l 501 799 l 85 799 z "},"ą":{"ha":615,"x_min":44,"x_max":585,"o":"m 211 -12 q 92 33 139 -12 q 44 153 44 79 q 49 204 44 179 q 64 247 54 229 q 115 269 76 254 q 203 301 153 283 q 299 336 253 319 q 375 363 346 353 l 375 471 q 373 515 375 499 q 361 547 371 532 q 335 572 353 561 q 289 583 317 583 q 209 548 239 583 q 188 460 179 513 l 76 415 q 108 540 75 489 q 199 618 142 592 q 324 644 257 644 q 440 610 396 644 q 485 504 485 576 l 485 147 q 487 94 485 113 q 503 65 489 76 q 531 58 514 58 q 568 65 547 58 l 585 29 q 531 -1 560 11 q 463 -12 501 -12 q 408 9 429 -12 q 381 61 386 31 q 297 11 336 35 q 211 -12 258 -12 m 253 74 q 306 82 275 74 q 375 110 336 90 l 375 301 q 287 269 333 288 q 205 237 240 251 q 158 215 169 222 q 172 114 144 154 q 253 74 199 74 m 429 -333 q 342 -308 378 -333 q 307 -225 307 -282 q 345 -113 307 -167 q 464 0 383 -60 l 518 0 q 434 -99 465 -50 q 403 -187 403 -147 q 423 -244 403 -222 q 479 -267 443 -267 q 517 -259 499 -267 q 547 -242 536 -251 l 563 -264 q 501 -313 539 -293 q 429 -333 463 -333 z "},"å":{"ha":615,"x_min":44,"x_max":585,"o":"m 211 -12 q 92 33 139 -12 q 44 153 44 79 q 49 204 44 179 q 64 247 54 229 q 115 269 76 254 q 203 301 153 283 q 299 336 253 319 q 375 363 346 353 l 375 471 q 373 515 375 499 q 361 547 371 532 q 335 572 353 561 q 289 583 317 583 q 209 548 239 583 q 188 460 179 513 l 76 415 q 108 540 75 489 q 199 618 142 592 q 324 644 257 644 q 440 610 396 644 q 485 504 485 576 l 485 147 q 487 94 485 113 q 503 65 489 76 q 531 58 514 58 q 568 65 547 58 l 585 29 q 531 -1 560 11 q 463 -12 501 -12 q 408 9 429 -12 q 381 61 386 31 q 297 11 336 35 q 211 -12 258 -12 m 253 74 q 306 82 275 74 q 375 110 336 90 l 375 301 q 287 269 333 288 q 205 237 240 251 q 158 215 169 222 q 172 114 144 154 q 253 74 199 74 m 292 761 q 201 797 240 761 q 163 890 163 833 q 200 984 163 944 q 290 1024 238 1024 q 382 985 344 1024 q 419 893 419 946 q 382 801 419 840 q 292 761 344 761 m 299 807 q 342 827 325 810 q 358 882 358 844 q 337 947 358 915 q 283 978 315 978 q 242 957 260 978 q 224 904 224 936 q 244 837 224 869 q 299 807 265 804 z "},"ǻ":{"ha":615,"x_min":44,"x_max":585,"o":"m 254 1000 l 222 1028 l 414 1256 l 486 1196 l 254 1000 m 286 692 q 196 728 235 692 q 157 821 157 764 q 194 915 157 875 q 285 954 232 954 q 376 915 339 954 q 414 824 414 876 q 376 731 414 771 q 286 692 339 692 m 293 738 q 336 758 319 740 q 353 813 353 775 q 331 877 353 846 q 278 908 310 908 q 236 888 254 908 q 218 835 218 867 q 239 767 218 800 q 293 738 260 735 m 211 -12 q 92 33 139 -12 q 44 153 44 79 q 49 204 44 179 q 64 247 54 229 q 115 269 76 254 q 203 301 153 283 q 299 336 253 319 q 375 363 346 353 l 375 471 q 373 515 375 499 q 361 547 371 532 q 335 572 353 561 q 289 583 317 583 q 209 548 239 583 q 188 460 179 513 l 76 415 q 108 540 75 489 q 199 618 142 592 q 324 644 257 644 q 440 610 396 644 q 485 504 485 576 l 485 147 q 487 94 485 113 q 503 65 489 76 q 531 58 514 58 q 568 65 547 58 l 585 29 q 531 -1 560 11 q 463 -12 501 -12 q 408 9 429 -12 q 381 61 386 31 q 297 11 336 35 q 211 -12 258 -12 m 253 74 q 306 82 275 74 q 375 110 336 90 l 375 301 q 287 269 333 288 q 205 237 240 251 q 158 215 169 222 q 172 114 144 154 q 253 74 199 74 z "},"ã":{"ha":615,"x_min":44,"x_max":585,"o":"m 211 -12 q 92 33 139 -12 q 44 153 44 79 q 49 204 44 179 q 64 247 54 229 q 115 269 76 254 q 203 301 153 283 q 299 336 253 319 q 375 363 346 353 l 375 471 q 373 515 375 499 q 361 547 371 532 q 335 572 353 561 q 289 583 317 583 q 209 548 239 583 q 188 460 179 513 l 76 415 q 108 540 75 489 q 199 618 142 592 q 324 644 257 644 q 440 610 396 644 q 485 504 485 576 l 485 147 q 487 94 485 113 q 503 65 489 76 q 531 58 514 58 q 568 65 547 58 l 585 29 q 531 -1 560 11 q 463 -12 501 -12 q 408 9 429 -12 q 381 61 386 31 q 297 11 336 35 q 211 -12 258 -12 m 253 74 q 306 82 275 74 q 375 110 336 90 l 375 301 q 287 269 333 288 q 205 237 240 251 q 158 215 169 222 q 172 114 144 154 q 253 74 199 74 m 107 754 l 78 769 q 111 828 90 796 q 162 886 132 861 q 226 913 192 911 q 289 905 263 915 q 336 880 315 894 q 378 854 357 865 q 424 844 399 843 q 484 869 464 847 q 522 921 504 890 l 551 906 q 519 848 540 881 q 468 790 497 815 q 403 763 439 765 q 342 772 368 761 q 294 797 315 782 q 252 822 274 811 q 206 832 231 833 q 146 806 165 829 q 107 754 126 783 z "},"æ":{"ha":917,"x_min":44,"x_max":890,"o":"m 211 -12 q 92 33 139 -12 q 44 153 44 79 q 49 199 44 179 q 64 236 54 218 q 115 258 76 243 q 204 290 154 272 q 301 325 254 308 q 376 351 347 342 l 375 471 q 373 515 375 499 q 361 547 371 532 q 335 572 353 561 q 289 583 317 583 q 209 548 239 583 q 188 460 179 513 l 76 415 q 108 540 75 489 q 199 618 142 592 q 324 644 257 644 q 420 624 381 644 q 475 560 460 604 q 674 644 557 644 q 781 619 731 644 q 860 548 831 593 q 886 444 890 503 l 479 319 q 518 203 488 256 q 597 121 549 151 q 704 90 644 90 q 790 109 751 90 q 856 151 829 128 l 885 126 q 827 64 864 96 q 743 10 790 32 q 642 -11 696 -11 q 531 15 582 -11 q 446 89 479 42 q 372 47 415 71 q 285 6 329 24 q 211 -12 242 -12 m 638 575 q 558 547 593 575 q 503 476 524 519 q 478 381 482 432 l 765 478 q 714 553 753 531 q 638 575 675 575 m 158 204 q 172 108 144 143 q 253 74 199 74 q 306 82 275 74 q 375 110 336 90 l 419 132 q 387 214 397 174 q 376 290 376 254 q 288 258 333 276 q 206 226 242 240 q 158 204 169 211 z "},"ǽ":{"ha":917,"x_min":44,"x_max":890,"o":"m 211 -12 q 92 33 139 -12 q 44 153 44 79 q 49 199 44 179 q 64 236 54 218 q 115 258 76 243 q 204 290 154 272 q 301 325 254 308 q 376 351 347 342 l 375 471 q 373 515 375 499 q 361 547 371 532 q 335 572 353 561 q 289 583 317 583 q 209 548 239 583 q 188 460 179 513 l 76 415 q 108 540 75 489 q 199 618 142 592 q 324 644 257 644 q 420 624 381 644 q 475 560 460 604 q 674 644 557 644 q 781 619 731 644 q 860 548 831 593 q 886 444 890 503 l 479 319 q 518 203 488 256 q 597 121 549 151 q 704 90 644 90 q 790 109 751 90 q 856 151 829 128 l 885 126 q 827 64 864 96 q 743 10 790 32 q 642 -11 696 -11 q 531 15 582 -11 q 446 89 479 42 q 372 47 415 71 q 285 6 329 24 q 211 -12 242 -12 m 638 575 q 558 547 593 575 q 503 476 524 519 q 478 381 482 432 l 765 478 q 714 553 753 531 q 638 575 675 575 m 158 204 q 172 108 144 143 q 253 74 199 74 q 306 82 275 74 q 375 110 336 90 l 419 132 q 387 214 397 174 q 376 290 376 254 q 288 258 333 276 q 206 226 242 240 q 158 204 169 211 m 467 718 l 431 749 l 643 1001 l 724 935 l 467 718 z "},"b":{"ha":719,"x_min":33,"x_max":686,"o":"m 318 -11 q 224 -3 268 -11 q 132 32 181 6 l 132 978 q 90 985 114 985 q 46 983 65 986 l 33 1019 l 217 1096 l 244 1076 l 244 533 q 351 614 294 583 q 460 644 407 644 q 572 608 521 644 q 650 515 622 572 q 678 440 669 478 q 686 363 686 401 q 642 185 686 269 q 533 54 599 101 q 432 6 488 22 q 318 -11 376 -11 m 244 115 q 303 74 268 89 q 376 58 338 58 q 435 67 404 58 q 493 96 465 76 q 561 183 540 128 q 582 299 582 239 q 544 451 582 388 q 482 522 519 494 q 400 549 444 549 q 318 527 358 549 q 244 475 278 506 l 244 115 z "},"c":{"ha":603,"x_min":47,"x_max":572,"o":"m 326 -12 q 267 -6 297 -12 q 210 15 238 1 q 85 140 124 60 q 47 307 47 221 q 85 472 47 401 q 179 585 124 543 q 261 628 215 613 q 357 644 307 644 q 465 629 422 644 q 534 592 508 614 q 572 550 560 569 l 486 468 q 419 539 458 511 q 335 572 379 567 q 246 554 290 578 q 176 475 199 528 q 153 363 153 422 q 182 222 153 285 q 271 122 211 160 q 342 91 307 100 q 410 82 378 82 q 478 94 446 82 q 533 128 511 107 l 563 101 q 467 22 532 57 q 326 -12 401 -12 z "},"ć":{"ha":603,"x_min":47,"x_max":572,"o":"m 326 -12 q 267 -6 297 -12 q 210 15 238 1 q 85 140 124 60 q 47 307 47 221 q 85 472 47 401 q 179 585 124 543 q 261 628 215 613 q 357 644 307 644 q 465 629 422 644 q 534 592 508 614 q 572 550 560 569 l 486 468 q 419 539 458 511 q 335 572 379 567 q 246 554 290 578 q 176 475 199 528 q 153 363 153 422 q 182 222 153 285 q 271 122 211 160 q 342 91 307 100 q 410 82 378 82 q 478 94 446 82 q 533 128 511 107 l 563 101 q 467 22 532 57 q 326 -12 401 -12 m 300 718 l 264 749 l 476 1001 l 557 935 l 300 718 z "},"č":{"ha":603,"x_min":47,"x_max":572,"o":"m 326 -12 q 267 -6 297 -12 q 210 15 238 1 q 85 140 124 60 q 47 307 47 221 q 85 472 47 401 q 179 585 124 543 q 261 628 215 613 q 357 644 307 644 q 465 629 422 644 q 534 592 508 614 q 572 550 560 569 l 486 468 q 419 539 458 511 q 335 572 379 567 q 246 554 290 578 q 176 475 199 528 q 153 363 153 422 q 182 222 153 285 q 271 122 211 160 q 342 91 307 100 q 410 82 378 82 q 478 94 446 82 q 533 128 511 107 l 563 101 q 467 22 532 57 q 326 -12 401 -12 m 515 972 l 547 944 l 351 726 l 315 726 l 119 944 l 151 972 l 333 832 l 515 972 z "},"ç":{"ha":603,"x_min":47,"x_max":572,"o":"m 326 -12 q 267 -6 297 -12 q 210 15 238 1 q 85 140 124 60 q 47 307 47 221 q 85 472 47 401 q 179 585 124 543 q 261 628 215 613 q 357 644 307 644 q 465 629 422 644 q 534 592 508 614 q 572 550 560 569 l 486 468 q 419 539 458 511 q 335 572 379 567 q 246 554 290 578 q 176 475 199 528 q 153 363 153 422 q 182 222 153 285 q 271 122 211 160 q 342 91 307 100 q 410 82 378 82 q 478 94 446 82 q 533 128 511 107 l 563 101 q 467 22 532 57 q 326 -12 401 -12 m 325 -333 q 254 -317 286 -333 q 203 -274 222 -300 l 225 -251 q 265 -281 242 -269 q 308 -292 288 -292 q 354 -272 338 -292 q 371 -225 371 -251 q 351 -170 371 -193 q 305 -133 331 -147 q 261 -115 279 -118 l 319 0 l 381 0 l 347 -64 q 422 -119 386 -85 q 457 -210 457 -153 q 420 -300 457 -267 q 325 -333 383 -333 z "},"ĉ":{"ha":603,"x_min":47,"x_max":572,"o":"m 326 -12 q 267 -6 297 -12 q 210 15 238 1 q 85 140 124 60 q 47 307 47 221 q 85 472 47 401 q 179 585 124 543 q 261 628 215 613 q 357 644 307 644 q 465 629 422 644 q 534 592 508 614 q 572 550 560 569 l 486 468 q 419 539 458 511 q 335 572 379 567 q 246 554 290 578 q 176 475 199 528 q 153 363 153 422 q 182 222 153 285 q 271 122 211 160 q 342 91 307 100 q 410 82 378 82 q 478 94 446 82 q 533 128 511 107 l 563 101 q 467 22 532 57 q 326 -12 401 -12 m 151 718 l 119 746 l 315 964 l 351 964 l 547 746 l 515 718 l 333 858 l 151 718 z "},"ċ":{"ha":603,"x_min":47,"x_max":572,"o":"m 326 -12 q 267 -6 297 -12 q 210 15 238 1 q 85 140 124 60 q 47 307 47 221 q 85 472 47 401 q 179 585 124 543 q 261 628 215 613 q 357 644 307 644 q 465 629 422 644 q 534 592 508 614 q 572 550 560 569 l 486 468 q 419 539 458 511 q 335 572 379 567 q 246 554 290 578 q 176 475 199 528 q 153 363 153 422 q 182 222 153 285 q 271 122 211 160 q 342 91 307 100 q 410 82 378 82 q 478 94 446 82 q 533 128 511 107 l 563 101 q 467 22 532 57 q 326 -12 401 -12 m 343 785 q 288 807 310 785 q 267 861 267 829 q 288 915 267 892 q 343 939 310 939 q 399 917 376 939 q 421 863 421 894 q 399 808 421 832 q 343 785 376 785 z "},"d":{"ha":765,"x_min":47,"x_max":735,"o":"m 301 -11 q 169 27 226 -11 q 80 131 113 65 q 47 281 47 197 q 74 417 47 351 q 147 534 100 483 q 253 615 193 585 q 382 644 314 644 q 500 619 440 644 l 499 978 q 457 985 481 985 q 413 983 433 986 l 400 1019 l 583 1096 l 611 1076 l 611 92 q 669 96 640 89 q 718 110 697 103 l 735 72 l 567 -11 q 512 37 521 4 q 503 93 503 69 l 503 103 q 413 19 457 50 q 301 -11 368 -11 m 149 346 q 176 217 149 276 q 253 122 204 158 q 365 86 301 86 q 436 103 400 86 q 503 158 472 119 l 501 496 q 353 572 446 572 q 205 510 261 572 q 149 346 149 449 z "},"ð":{"ha":724,"x_min":47,"x_max":694,"o":"m 369 -11 q 192 43 275 -11 q 69 193 108 97 q 53 253 58 222 q 47 314 47 283 q 72 441 47 381 q 141 549 96 501 q 247 621 186 596 q 306 639 276 633 q 365 644 336 644 q 455 631 413 644 q 535 592 497 617 q 499 685 519 642 q 457 765 479 729 q 411 825 438 796 l 226 735 l 210 804 l 358 876 q 90 1024 250 969 l 107 1069 q 272 1007 188 1046 q 431 911 357 968 l 597 992 l 614 924 l 488 863 q 547 794 521 829 q 623 666 589 740 q 676 504 657 592 q 689 321 694 417 q 632 134 683 217 q 489 13 581 51 q 430 -6 460 0 q 369 -11 400 -11 m 178 275 q 224 158 192 210 q 300 78 256 107 q 392 50 344 50 q 407 51 399 50 q 422 53 415 51 q 523 133 488 68 q 565 283 558 197 q 565 426 571 357 q 506 504 542 468 q 428 563 471 540 q 344 585 386 585 q 313 581 329 585 q 209 503 249 567 q 169 353 169 439 q 178 275 169 315 z "},"ď":{"ha":765,"x_min":47,"x_max":818,"o":"m 301 -11 q 169 27 226 -11 q 80 131 113 65 q 47 281 47 197 q 74 417 47 351 q 147 534 100 483 q 253 615 193 585 q 382 644 314 644 q 500 619 440 644 l 499 978 q 457 985 481 985 q 413 983 433 986 l 400 1019 l 583 1096 l 611 1076 l 611 92 q 669 96 640 89 q 718 110 697 103 l 735 72 l 567 -11 q 512 37 521 4 q 503 93 503 69 l 503 103 q 413 19 457 50 q 301 -11 368 -11 m 771 750 l 724 749 l 713 1078 l 818 1082 l 771 750 m 149 346 q 176 217 149 276 q 253 122 204 158 q 365 86 301 86 q 436 103 400 86 q 503 158 472 119 l 501 496 q 353 572 446 572 q 205 510 261 572 q 149 346 149 449 z "},"đ":{"ha":751,"x_min":47,"x_max":735,"o":"m 301 -11 q 169 27 226 -11 q 80 131 113 65 q 47 281 47 197 q 74 417 47 351 q 147 534 100 483 q 253 615 193 585 q 382 644 314 644 q 500 619 440 644 l 500 775 l 318 775 l 318 828 l 500 828 l 499 978 q 457 985 481 985 q 413 983 433 986 l 400 1019 l 583 1096 l 611 1076 l 611 828 l 735 828 l 735 775 l 611 775 l 611 92 q 669 96 640 89 q 718 110 697 103 l 735 72 l 567 -11 q 512 37 521 4 q 503 93 503 69 l 503 103 q 413 19 457 50 q 301 -11 368 -11 m 149 346 q 176 217 149 276 q 253 122 204 158 q 365 86 301 86 q 436 103 400 86 q 503 158 472 119 l 501 496 q 353 572 446 572 q 205 510 261 572 q 149 346 149 449 z "},"e":{"ha":597,"x_min":47,"x_max":574,"o":"m 313 -11 q 175 32 235 -11 q 81 146 115 75 q 47 299 47 217 q 88 478 47 400 q 195 601 128 557 q 344 644 263 646 q 467 610 414 644 q 547 516 519 575 q 565 386 574 457 l 149 364 l 149 360 q 178 226 149 288 q 258 127 207 164 q 375 90 310 90 q 461 109 422 90 q 526 151 500 128 l 556 126 q 498 64 535 96 q 414 10 461 32 q 313 -11 367 -11 m 311 572 q 210 528 251 572 q 156 419 169 483 l 442 442 q 403 533 442 494 q 311 572 364 572 z "},"é":{"ha":597,"x_min":47,"x_max":574,"o":"m 313 -11 q 175 32 235 -11 q 81 146 115 75 q 47 299 47 217 q 88 478 47 400 q 195 601 128 557 q 344 644 263 646 q 467 610 414 644 q 547 516 519 575 q 565 386 574 457 l 149 364 l 149 360 q 178 226 149 288 q 258 127 207 164 q 375 90 310 90 q 461 109 422 90 q 526 151 500 128 l 556 126 q 498 64 535 96 q 414 10 461 32 q 313 -11 367 -11 m 311 572 q 210 528 251 572 q 156 419 169 483 l 442 442 q 403 533 442 494 q 311 572 364 572 m 289 718 l 253 749 l 465 1001 l 546 935 l 289 718 z "},"ĕ":{"ha":597,"x_min":47,"x_max":574,"o":"m 313 -11 q 175 32 235 -11 q 81 146 115 75 q 47 299 47 217 q 88 478 47 400 q 195 601 128 557 q 344 644 263 646 q 467 610 414 644 q 547 516 519 575 q 565 386 574 457 l 149 364 l 149 360 q 178 226 149 288 q 258 127 207 164 q 375 90 310 90 q 461 109 422 90 q 526 151 500 128 l 556 126 q 498 64 535 96 q 414 10 461 32 q 313 -11 367 -11 m 311 572 q 210 528 251 572 q 156 419 169 483 l 442 442 q 403 533 442 494 q 311 572 364 572 m 322 776 q 202 819 254 775 q 126 947 150 863 l 161 958 q 225 889 185 908 q 322 869 265 869 q 419 889 378 869 q 483 958 461 908 l 518 947 q 443 820 494 863 q 322 776 392 778 z "},"ě":{"ha":597,"x_min":47,"x_max":574,"o":"m 313 -11 q 175 32 235 -11 q 81 146 115 75 q 47 299 47 217 q 88 478 47 400 q 195 601 128 557 q 344 644 263 646 q 467 610 414 644 q 547 516 519 575 q 565 386 574 457 l 149 364 l 149 360 q 178 226 149 288 q 258 127 207 164 q 375 90 310 90 q 461 109 422 90 q 526 151 500 128 l 556 126 q 498 64 535 96 q 414 10 461 32 q 313 -11 367 -11 m 311 572 q 210 528 251 572 q 156 419 169 483 l 442 442 q 403 533 442 494 q 311 572 364 572 m 504 972 l 536 944 l 340 726 l 304 726 l 108 944 l 140 972 l 322 832 l 504 972 z "},"ê":{"ha":597,"x_min":47,"x_max":574,"o":"m 313 -11 q 175 32 235 -11 q 81 146 115 75 q 47 299 47 217 q 88 478 47 400 q 195 601 128 557 q 344 644 263 646 q 467 610 414 644 q 547 516 519 575 q 565 386 574 457 l 149 364 l 149 360 q 178 226 149 288 q 258 127 207 164 q 375 90 310 90 q 461 109 422 90 q 526 151 500 128 l 556 126 q 498 64 535 96 q 414 10 461 32 q 313 -11 367 -11 m 311 572 q 210 528 251 572 q 156 419 169 483 l 442 442 q 403 533 442 494 q 311 572 364 572 m 140 718 l 108 746 l 304 964 l 340 964 l 536 746 l 504 718 l 322 858 l 140 718 z "},"ë":{"ha":597,"x_min":47,"x_max":574,"o":"m 313 -11 q 175 32 235 -11 q 81 146 115 75 q 47 299 47 217 q 88 478 47 400 q 195 601 128 557 q 344 644 263 646 q 467 610 414 644 q 547 516 519 575 q 565 386 574 457 l 149 364 l 149 360 q 178 226 149 288 q 258 127 207 164 q 375 90 310 90 q 461 109 422 90 q 526 151 500 128 l 556 126 q 498 64 535 96 q 414 10 461 32 q 313 -11 367 -11 m 311 572 q 210 528 251 572 q 156 419 169 483 l 442 442 q 403 533 442 494 q 311 572 364 572 m 196 761 q 147 781 167 761 q 128 828 128 800 q 147 876 128 856 q 196 897 167 897 q 245 878 225 897 q 265 831 265 858 q 245 782 265 803 q 196 761 225 761 m 447 761 q 399 781 418 761 q 379 828 379 800 q 399 876 379 856 q 447 897 418 897 q 497 878 476 897 q 517 831 517 858 q 497 782 517 803 q 447 761 476 761 z "},"ė":{"ha":597,"x_min":47,"x_max":574,"o":"m 313 -11 q 175 32 235 -11 q 81 146 115 75 q 47 299 47 217 q 88 478 47 400 q 195 601 128 557 q 344 644 263 646 q 467 610 414 644 q 547 516 519 575 q 565 386 574 457 l 149 364 l 149 360 q 178 226 149 288 q 258 127 207 164 q 375 90 310 90 q 461 109 422 90 q 526 151 500 128 l 556 126 q 498 64 535 96 q 414 10 461 32 q 313 -11 367 -11 m 311 572 q 210 528 251 572 q 156 419 169 483 l 442 442 q 403 533 442 494 q 311 572 364 572 m 332 785 q 277 807 299 785 q 256 861 256 829 q 277 915 256 892 q 332 939 299 939 q 388 917 365 939 q 410 863 410 894 q 388 808 410 832 q 332 785 365 785 z "},"ẹ":{"ha":597,"x_min":47,"x_max":574,"o":"m 313 -11 q 175 32 235 -11 q 81 146 115 75 q 47 299 47 217 q 88 478 47 400 q 195 601 128 557 q 344 644 263 646 q 467 610 414 644 q 547 516 519 575 q 565 386 574 457 l 149 364 l 149 360 q 178 226 149 288 q 258 127 207 164 q 375 90 310 90 q 461 109 422 90 q 526 151 500 128 l 556 126 q 498 64 535 96 q 414 10 461 32 q 313 -11 367 -11 m 311 572 q 210 528 251 572 q 156 419 169 483 l 442 442 q 403 533 442 494 q 311 572 364 572 m 318 -251 q 263 -229 285 -251 q 242 -175 242 -207 q 263 -121 242 -144 q 318 -97 285 -97 q 374 -119 351 -97 q 396 -174 396 -142 q 374 -228 396 -204 q 318 -251 351 -251 z "},"è":{"ha":597,"x_min":47,"x_max":574,"o":"m 313 -11 q 175 32 235 -11 q 81 146 115 75 q 47 299 47 217 q 88 478 47 400 q 195 601 128 557 q 344 644 263 646 q 467 610 414 644 q 547 516 519 575 q 565 386 574 457 l 149 364 l 149 360 q 178 226 149 288 q 258 127 207 164 q 375 90 310 90 q 461 109 422 90 q 526 151 500 128 l 556 126 q 498 64 535 96 q 414 10 461 32 q 313 -11 367 -11 m 311 572 q 210 528 251 572 q 156 419 169 483 l 442 442 q 403 533 442 494 q 311 572 364 572 m 356 718 l 99 935 l 179 1001 l 392 749 l 356 718 z "},"ē":{"ha":597,"x_min":47,"x_max":574,"o":"m 313 -11 q 175 32 235 -11 q 81 146 115 75 q 47 299 47 217 q 88 478 47 400 q 195 601 128 557 q 344 644 263 646 q 467 610 414 644 q 547 516 519 575 q 565 386 574 457 l 149 364 l 149 360 q 178 226 149 288 q 258 127 207 164 q 375 90 310 90 q 461 109 422 90 q 526 151 500 128 l 556 126 q 498 64 535 96 q 414 10 461 32 q 313 -11 367 -11 m 311 572 q 210 528 251 572 q 156 419 169 483 l 442 442 q 403 533 442 494 q 311 572 364 572 m 114 799 l 114 865 l 531 865 l 531 799 l 114 799 z "},"ę":{"ha":597,"x_min":47,"x_max":574,"o":"m 313 -11 q 175 32 235 -11 q 81 146 115 75 q 47 299 47 217 q 88 478 47 400 q 195 601 128 557 q 344 644 263 646 q 467 610 414 644 q 547 516 519 575 q 565 386 574 457 l 149 364 l 149 360 q 178 226 149 288 q 258 127 207 164 q 375 90 310 90 q 461 109 422 90 q 526 151 500 128 l 556 126 q 497 63 533 94 q 413 10 460 31 l 401 0 q 317 -99 349 -50 q 286 -187 286 -147 q 306 -244 286 -222 q 363 -267 326 -267 q 401 -259 382 -267 q 431 -242 419 -251 l 446 -264 q 384 -313 422 -293 q 313 -333 346 -333 q 226 -308 261 -333 q 190 -225 190 -282 q 226 -118 190 -169 q 333 -10 261 -67 q 313 -11 324 -11 m 311 572 q 210 528 251 572 q 156 419 169 483 l 442 442 q 403 533 442 494 q 311 572 364 572 z "},"ẽ":{"ha":597,"x_min":47,"x_max":581,"o":"m 313 -11 q 175 32 235 -11 q 81 146 115 75 q 47 299 47 217 q 88 478 47 400 q 195 601 128 557 q 344 644 263 646 q 467 610 414 644 q 547 516 519 575 q 565 386 574 457 l 149 364 l 149 360 q 178 226 149 288 q 258 127 207 164 q 375 90 310 90 q 461 109 422 90 q 526 151 500 128 l 556 126 q 498 64 535 96 q 414 10 461 32 q 313 -11 367 -11 m 311 572 q 210 528 251 572 q 156 419 169 483 l 442 442 q 403 533 442 494 q 311 572 364 572 m 136 754 l 107 769 q 140 828 119 796 q 191 886 161 861 q 256 913 221 911 q 318 905 292 915 q 365 880 344 894 q 407 854 386 865 q 453 844 428 843 q 513 869 493 847 q 551 921 533 890 l 581 906 q 548 848 569 881 q 497 790 526 815 q 432 763 468 765 q 371 772 397 761 q 324 797 344 782 q 281 822 303 811 q 235 832 260 833 q 175 806 194 829 q 136 754 156 783 z "},"ə":{"ha":599,"x_min":44,"x_max":565,"o":"m 263 -11 q 158 17 208 -11 q 76 99 108 46 q 44 224 44 151 q 45 243 44 233 q 47 263 46 253 l 464 285 q 435 417 463 357 q 357 512 407 476 q 240 547 307 547 q 153 527 193 547 q 86 483 113 507 l 57 508 q 115 572 79 540 q 199 624 151 603 q 300 646 247 646 q 436 603 376 646 q 531 491 496 561 q 565 336 565 421 q 534 182 565 251 q 457 69 503 113 q 371 10 415 31 q 263 -11 326 -11 m 171 207 q 206 105 167 147 q 301 63 246 63 q 406 111 364 63 q 460 229 449 160 l 171 207 z "},"f":{"ha":506,"x_min":39,"x_max":658,"o":"m 39 0 l 39 42 q 89 46 57 42 q 149 64 121 50 l 149 556 l 64 556 l 79 633 l 149 633 q 154 765 149 697 q 184 896 160 832 q 263 1013 208 960 q 369 1083 313 1061 q 482 1106 426 1106 q 583 1090 538 1107 q 658 1044 629 1074 l 561 950 q 483 1002 528 988 q 392 1006 438 1017 q 313 957 347 996 q 276 885 288 929 q 261 793 264 842 q 258 701 258 744 q 258 633 258 658 l 464 633 l 464 556 l 261 556 l 261 64 q 333 46 294 50 q 393 42 372 42 l 393 0 l 39 0 z "},"g":{"ha":711,"x_min":39,"x_max":686,"o":"m 314 161 q 264 167 289 161 q 219 119 239 146 q 204 75 200 93 q 329 19 217 21 q 401 20 357 19 q 495 13 446 21 q 588 -19 544 6 q 658 -96 632 -43 q 676 -169 676 -132 q 647 -275 676 -226 q 569 -359 618 -324 q 457 -414 519 -394 q 329 -433 394 -433 q 221 -423 276 -433 q 120 -387 165 -412 q 53 -317 75 -361 q 39 -260 39 -289 q 68 -178 39 -214 q 138 -110 97 -142 q 214 -44 179 -78 q 123 -12 161 -33 q 85 39 85 8 q 104 92 85 65 q 151 144 124 119 q 206 188 179 169 q 140 239 169 207 q 94 313 111 271 q 81 356 85 335 q 78 400 78 378 q 117 538 78 474 q 225 628 157 601 q 267 641 246 638 q 311 644 289 644 q 415 621 365 644 q 497 556 464 597 l 686 576 l 675 488 l 535 489 q 547 448 543 469 q 550 406 550 426 q 510 271 550 333 q 401 179 471 208 q 314 161 361 161 m 347 228 q 408 269 386 238 q 438 344 431 301 q 438 429 446 388 q 408 506 431 469 q 352 564 385 543 q 281 575 319 585 q 219 535 242 567 q 190 460 197 503 q 190 372 183 417 q 221 298 199 335 q 276 240 243 261 q 347 228 308 219 m 178 -287 q 249 -346 201 -325 q 351 -367 296 -367 q 393 -364 372 -367 q 435 -354 414 -361 q 535 -291 506 -331 q 564 -206 564 -251 q 528 -115 564 -144 q 438 -76 493 -86 q 324 -61 383 -65 q 279 -56 301 -60 q 191 -144 218 -100 q 164 -231 164 -187 q 178 -287 164 -262 z "},"ǵ":{"ha":711,"x_min":39,"x_max":686,"o":"m 314 161 q 264 167 289 161 q 219 119 239 146 q 204 75 200 93 q 329 19 217 21 q 401 20 357 19 q 495 13 446 21 q 588 -19 544 6 q 658 -96 632 -43 q 676 -169 676 -132 q 647 -275 676 -226 q 569 -359 618 -324 q 457 -414 519 -394 q 329 -433 394 -433 q 221 -423 276 -433 q 120 -387 165 -412 q 53 -317 75 -361 q 39 -260 39 -289 q 68 -178 39 -214 q 138 -110 97 -142 q 214 -44 179 -78 q 123 -12 161 -33 q 85 39 85 8 q 104 92 85 65 q 151 144 124 119 q 206 188 179 169 q 140 239 169 207 q 94 313 111 271 q 81 356 85 335 q 78 400 78 378 q 117 538 78 474 q 225 628 157 601 q 267 641 246 638 q 311 644 289 644 q 415 621 365 644 q 497 556 464 597 l 686 576 l 675 488 l 535 489 q 547 448 543 469 q 550 406 550 426 q 510 271 550 333 q 401 179 471 208 q 314 161 361 161 m 347 228 q 408 269 386 238 q 438 344 431 301 q 438 429 446 388 q 408 506 431 469 q 352 564 385 543 q 281 575 319 585 q 219 535 242 567 q 190 460 197 503 q 190 372 183 417 q 221 298 199 335 q 276 240 243 261 q 347 228 308 219 m 178 -287 q 249 -346 201 -325 q 351 -367 296 -367 q 393 -364 372 -367 q 435 -354 414 -361 q 535 -291 506 -331 q 564 -206 564 -251 q 528 -115 564 -144 q 438 -76 493 -86 q 324 -61 383 -65 q 279 -56 301 -60 q 191 -144 218 -100 q 164 -231 164 -187 q 178 -287 164 -262 m 288 718 l 251 749 l 464 1001 l 544 935 l 288 718 z "},"ğ":{"ha":711,"x_min":39,"x_max":686,"o":"m 314 161 q 264 167 289 161 q 219 119 239 146 q 204 75 200 93 q 329 19 217 21 q 401 20 357 19 q 495 13 446 21 q 588 -19 544 6 q 658 -96 632 -43 q 676 -169 676 -132 q 647 -275 676 -226 q 569 -359 618 -324 q 457 -414 519 -394 q 329 -433 394 -433 q 221 -423 276 -433 q 120 -387 165 -412 q 53 -317 75 -361 q 39 -260 39 -289 q 68 -178 39 -214 q 138 -110 97 -142 q 214 -44 179 -78 q 123 -12 161 -33 q 85 39 85 8 q 104 92 85 65 q 151 144 124 119 q 206 188 179 169 q 140 239 169 207 q 94 313 111 271 q 81 356 85 335 q 78 400 78 378 q 117 538 78 474 q 225 628 157 601 q 267 641 246 638 q 311 644 289 644 q 415 621 365 644 q 497 556 464 597 l 686 576 l 675 488 l 535 489 q 547 448 543 469 q 550 406 550 426 q 510 271 550 333 q 401 179 471 208 q 314 161 361 161 m 347 228 q 408 269 386 238 q 438 344 431 301 q 438 429 446 388 q 408 506 431 469 q 352 564 385 543 q 281 575 319 585 q 219 535 242 567 q 190 460 197 503 q 190 372 183 417 q 221 298 199 335 q 276 240 243 261 q 347 228 308 219 m 178 -287 q 249 -346 201 -325 q 351 -367 296 -367 q 393 -364 372 -367 q 435 -354 414 -361 q 535 -291 506 -331 q 564 -206 564 -251 q 528 -115 564 -144 q 438 -76 493 -86 q 324 -61 383 -65 q 279 -56 301 -60 q 191 -144 218 -100 q 164 -231 164 -187 q 178 -287 164 -262 m 321 776 q 201 819 253 775 q 125 947 149 863 l 160 958 q 224 889 183 908 q 321 869 264 869 q 418 889 376 869 q 482 958 460 908 l 517 947 q 442 820 493 863 q 321 776 390 778 z "},"ǧ":{"ha":711,"x_min":39,"x_max":686,"o":"m 314 161 q 264 167 289 161 q 219 119 239 146 q 204 75 200 93 q 329 19 217 21 q 401 20 357 19 q 495 13 446 21 q 588 -19 544 6 q 658 -96 632 -43 q 676 -169 676 -132 q 647 -275 676 -226 q 569 -359 618 -324 q 457 -414 519 -394 q 329 -433 394 -433 q 221 -423 276 -433 q 120 -387 165 -412 q 53 -317 75 -361 q 39 -260 39 -289 q 68 -178 39 -214 q 138 -110 97 -142 q 214 -44 179 -78 q 123 -12 161 -33 q 85 39 85 8 q 104 92 85 65 q 151 144 124 119 q 206 188 179 169 q 140 239 169 207 q 94 313 111 271 q 81 356 85 335 q 78 400 78 378 q 117 538 78 474 q 225 628 157 601 q 267 641 246 638 q 311 644 289 644 q 415 621 365 644 q 497 556 464 597 l 686 576 l 675 488 l 535 489 q 547 448 543 469 q 550 406 550 426 q 510 271 550 333 q 401 179 471 208 q 314 161 361 161 m 347 228 q 408 269 386 238 q 438 344 431 301 q 438 429 446 388 q 408 506 431 469 q 352 564 385 543 q 281 575 319 585 q 219 535 242 567 q 190 460 197 503 q 190 372 183 417 q 221 298 199 335 q 276 240 243 261 q 347 228 308 219 m 178 -287 q 249 -346 201 -325 q 351 -367 296 -367 q 393 -364 372 -367 q 435 -354 414 -361 q 535 -291 506 -331 q 564 -206 564 -251 q 528 -115 564 -144 q 438 -76 493 -86 q 324 -61 383 -65 q 279 -56 301 -60 q 191 -144 218 -100 q 164 -231 164 -187 q 178 -287 164 -262 m 503 972 l 535 944 l 339 726 l 303 726 l 107 944 l 139 972 l 321 832 l 503 972 z "},"ĝ":{"ha":711,"x_min":39,"x_max":686,"o":"m 314 161 q 264 167 289 161 q 219 119 239 146 q 204 75 200 93 q 329 19 217 21 q 401 20 357 19 q 495 13 446 21 q 588 -19 544 6 q 658 -96 632 -43 q 676 -169 676 -132 q 647 -275 676 -226 q 569 -359 618 -324 q 457 -414 519 -394 q 329 -433 394 -433 q 221 -423 276 -433 q 120 -387 165 -412 q 53 -317 75 -361 q 39 -260 39 -289 q 68 -178 39 -214 q 138 -110 97 -142 q 214 -44 179 -78 q 123 -12 161 -33 q 85 39 85 8 q 104 92 85 65 q 151 144 124 119 q 206 188 179 169 q 140 239 169 207 q 94 313 111 271 q 81 356 85 335 q 78 400 78 378 q 117 538 78 474 q 225 628 157 601 q 267 641 246 638 q 311 644 289 644 q 415 621 365 644 q 497 556 464 597 l 686 576 l 675 488 l 535 489 q 547 448 543 469 q 550 406 550 426 q 510 271 550 333 q 401 179 471 208 q 314 161 361 161 m 347 228 q 408 269 386 238 q 438 344 431 301 q 438 429 446 388 q 408 506 431 469 q 352 564 385 543 q 281 575 319 585 q 219 535 242 567 q 190 460 197 503 q 190 372 183 417 q 221 298 199 335 q 276 240 243 261 q 347 228 308 219 m 178 -287 q 249 -346 201 -325 q 351 -367 296 -367 q 393 -364 372 -367 q 435 -354 414 -361 q 535 -291 506 -331 q 564 -206 564 -251 q 528 -115 564 -144 q 438 -76 493 -86 q 324 -61 383 -65 q 279 -56 301 -60 q 191 -144 218 -100 q 164 -231 164 -187 q 178 -287 164 -262 m 139 718 l 107 746 l 303 964 l 339 964 l 535 746 l 503 718 l 321 858 l 139 718 z "},"ģ":{"ha":711,"x_min":39,"x_max":686,"o":"m 403 1085 l 422 1058 q 359 986 382 1028 q 336 894 336 944 l 338 894 q 392 873 371 894 q 414 819 414 851 q 392 765 414 789 q 338 742 371 742 q 285 765 306 742 q 261 822 264 788 q 270 912 257 863 q 316 1008 283 961 q 403 1085 349 1054 m 314 161 q 264 167 289 161 q 219 119 239 146 q 204 75 200 93 q 329 19 217 21 q 401 20 357 19 q 495 13 446 21 q 588 -19 544 6 q 658 -96 632 -43 q 676 -169 676 -132 q 647 -275 676 -226 q 569 -359 618 -324 q 457 -414 519 -394 q 329 -433 394 -433 q 221 -423 276 -433 q 120 -387 165 -412 q 53 -317 75 -361 q 39 -260 39 -289 q 68 -178 39 -214 q 138 -110 97 -142 q 214 -44 179 -78 q 123 -12 161 -33 q 85 39 85 8 q 104 92 85 65 q 151 144 124 119 q 206 188 179 169 q 140 239 169 207 q 94 313 111 271 q 81 356 85 335 q 78 400 78 378 q 117 538 78 474 q 225 628 157 601 q 267 641 246 638 q 311 644 289 644 q 415 621 365 644 q 497 556 464 597 l 686 576 l 675 488 l 535 489 q 547 448 543 469 q 550 406 550 426 q 510 271 550 333 q 401 179 471 208 q 314 161 361 161 m 347 228 q 408 269 386 238 q 438 344 431 301 q 438 429 446 388 q 408 506 431 469 q 352 564 385 543 q 281 575 319 585 q 219 535 242 567 q 190 460 197 503 q 190 372 183 417 q 221 298 199 335 q 276 240 243 261 q 347 228 308 219 m 178 -287 q 249 -346 201 -325 q 351 -367 296 -367 q 393 -364 372 -367 q 435 -354 414 -361 q 535 -291 506 -331 q 564 -206 564 -251 q 528 -115 564 -144 q 438 -76 493 -86 q 324 -61 383 -65 q 279 -56 301 -60 q 191 -144 218 -100 q 164 -231 164 -187 q 178 -287 164 -262 z "},"ġ":{"ha":711,"x_min":39,"x_max":686,"o":"m 314 161 q 264 167 289 161 q 219 119 239 146 q 204 75 200 93 q 329 19 217 21 q 401 20 357 19 q 495 13 446 21 q 588 -19 544 6 q 658 -96 632 -43 q 676 -169 676 -132 q 647 -275 676 -226 q 569 -359 618 -324 q 457 -414 519 -394 q 329 -433 394 -433 q 221 -423 276 -433 q 120 -387 165 -412 q 53 -317 75 -361 q 39 -260 39 -289 q 68 -178 39 -214 q 138 -110 97 -142 q 214 -44 179 -78 q 123 -12 161 -33 q 85 39 85 8 q 104 92 85 65 q 151 144 124 119 q 206 188 179 169 q 140 239 169 207 q 94 313 111 271 q 81 356 85 335 q 78 400 78 378 q 117 538 78 474 q 225 628 157 601 q 267 641 246 638 q 311 644 289 644 q 415 621 365 644 q 497 556 464 597 l 686 576 l 675 488 l 535 489 q 547 448 543 469 q 550 406 550 426 q 510 271 550 333 q 401 179 471 208 q 314 161 361 161 m 347 228 q 408 269 386 238 q 438 344 431 301 q 438 429 446 388 q 408 506 431 469 q 352 564 385 543 q 281 575 319 585 q 219 535 242 567 q 190 460 197 503 q 190 372 183 417 q 221 298 199 335 q 276 240 243 261 q 347 228 308 219 m 178 -287 q 249 -346 201 -325 q 351 -367 296 -367 q 393 -364 372 -367 q 435 -354 414 -361 q 535 -291 506 -331 q 564 -206 564 -251 q 528 -115 564 -144 q 438 -76 493 -86 q 324 -61 383 -65 q 279 -56 301 -60 q 191 -144 218 -100 q 164 -231 164 -187 q 178 -287 164 -262 m 319 785 q 265 807 286 785 q 243 861 243 829 q 265 915 243 892 q 319 939 286 939 q 375 917 353 939 q 397 863 397 894 q 375 808 397 832 q 319 785 353 785 z "},"h":{"ha":818,"x_min":39,"x_max":788,"o":"m 39 0 l 39 42 q 89 46 57 42 q 149 64 121 50 l 149 978 q 106 985 131 985 q 63 983 82 986 l 50 1019 l 233 1096 l 261 1076 l 261 532 q 332 581 292 556 q 415 626 372 607 q 499 644 458 644 q 589 621 549 644 q 660 545 642 592 q 678 436 678 499 l 678 64 q 738 46 706 50 q 788 42 769 42 l 788 0 l 456 0 l 456 42 q 506 46 474 42 q 565 64 538 50 l 565 383 q 558 472 565 436 q 510 538 550 507 q 476 553 496 549 q 432 558 456 558 q 372 544 403 558 q 311 509 340 529 q 261 472 282 489 l 261 64 q 321 46 289 50 q 371 42 353 42 l 371 0 l 39 0 z "},"ħ":{"ha":818,"x_min":39,"x_max":788,"o":"m 39 0 l 39 42 q 89 46 57 42 q 149 64 121 50 l 149 774 l 40 774 l 40 826 l 149 826 l 149 978 q 106 985 131 985 q 63 983 82 986 l 50 1019 l 233 1096 l 261 1076 l 261 826 l 457 826 l 457 774 l 261 774 l 261 532 q 332 581 292 556 q 415 626 372 607 q 499 644 458 644 q 589 621 549 644 q 660 545 642 592 q 678 436 678 499 l 678 64 q 738 46 706 50 q 788 42 769 42 l 788 0 l 456 0 l 456 42 q 506 46 474 42 q 565 64 538 50 l 565 383 q 558 472 565 436 q 510 538 550 507 q 476 553 496 549 q 432 558 456 558 q 372 544 403 558 q 311 509 340 529 q 261 472 282 489 l 261 64 q 321 46 289 50 q 371 42 353 42 l 371 0 l 39 0 z "},"ȟ":{"ha":901,"x_min":39,"x_max":871,"o":"m 493 1325 l 519 1293 l 296 1104 l 263 1104 l 39 1293 l 65 1325 l 279 1203 l 493 1325 m 122 0 l 122 42 q 172 46 140 42 q 232 64 204 50 l 232 922 q 190 930 214 929 q 146 928 165 931 l 133 964 l 317 1040 l 344 1021 l 344 532 q 415 581 375 556 q 499 626 456 607 q 582 644 542 644 q 672 621 632 644 q 743 545 725 592 q 761 436 761 499 l 761 64 q 821 46 789 50 q 871 42 853 42 l 871 0 l 539 0 l 539 42 q 589 46 557 42 q 649 64 621 50 l 649 383 q 641 472 649 436 q 593 538 633 507 q 559 553 579 549 q 515 558 539 558 q 455 544 486 558 q 394 509 424 529 q 344 472 365 489 l 344 64 q 404 46 372 50 q 454 42 436 42 l 454 0 l 122 0 z "},"ĥ":{"ha":903,"x_min":39,"x_max":872,"o":"m 65 1096 l 39 1128 l 263 1317 l 296 1317 l 519 1128 l 493 1096 l 279 1218 l 65 1096 m 124 0 l 124 42 q 174 46 142 42 q 233 64 206 50 l 233 950 q 191 958 215 957 q 147 956 167 958 l 135 992 l 318 1068 l 346 1049 l 346 532 q 417 581 376 556 q 500 626 457 607 q 583 644 543 644 q 674 621 633 644 q 744 545 726 592 q 763 436 763 499 l 763 64 q 822 46 790 50 q 872 42 854 42 l 872 0 l 540 0 l 540 42 q 590 46 558 42 q 650 64 622 50 l 650 383 q 642 472 650 436 q 594 538 635 507 q 560 553 581 549 q 517 558 540 558 q 456 544 488 558 q 396 509 425 529 q 346 472 367 489 l 346 64 q 406 46 374 50 q 456 42 438 42 l 456 0 l 124 0 z "},"i":{"ha":401,"x_min":39,"x_max":371,"o":"m 39 0 l 39 42 q 89 46 57 42 q 149 64 121 50 l 149 535 q 106 542 131 542 q 63 540 82 543 l 50 576 l 233 653 l 261 633 l 261 64 q 321 46 289 50 q 371 42 353 42 l 371 0 l 39 0 m 203 785 q 148 807 169 785 q 126 861 126 829 q 148 915 126 892 q 203 939 169 939 q 258 917 236 939 q 281 863 281 894 q 258 808 281 832 q 203 785 236 785 z "},"ı":{"ha":401,"x_min":39,"x_max":371,"o":"m 39 0 l 39 42 q 89 46 57 42 q 149 64 121 50 l 149 535 q 106 542 131 542 q 63 540 82 543 l 50 576 l 233 653 l 261 633 l 261 64 q 321 46 289 50 q 371 42 353 42 l 371 0 l 39 0 z "},"í":{"ha":401,"x_min":39,"x_max":428,"o":"m 39 0 l 39 42 q 89 46 57 42 q 149 64 121 50 l 149 535 q 106 542 131 542 q 63 540 82 543 l 50 576 l 233 653 l 261 633 l 261 64 q 321 46 289 50 q 371 42 353 42 l 371 0 l 39 0 m 171 718 l 135 749 l 347 1001 l 428 935 l 171 718 z "},"ĭ":{"ha":401,"x_min":8,"x_max":400,"o":"m 39 0 l 39 42 q 89 46 57 42 q 149 64 121 50 l 149 535 q 106 542 131 542 q 63 540 82 543 l 50 576 l 233 653 l 261 633 l 261 64 q 321 46 289 50 q 371 42 353 42 l 371 0 l 39 0 m 204 776 q 84 819 136 775 q 8 947 32 863 l 43 958 q 107 889 67 908 q 204 869 147 869 q 301 889 260 869 q 365 958 343 908 l 400 947 q 325 820 376 863 q 204 776 274 778 z "},"î":{"ha":401,"x_min":-10,"x_max":418,"o":"m 39 0 l 39 42 q 89 46 57 42 q 149 64 121 50 l 149 535 q 106 542 131 542 q 63 540 82 543 l 50 576 l 233 653 l 261 633 l 261 64 q 321 46 289 50 q 371 42 353 42 l 371 0 l 39 0 m 22 718 l -10 746 l 186 964 l 222 964 l 418 746 l 386 718 l 204 858 l 22 718 z "},"ï":{"ha":401,"x_min":10,"x_max":399,"o":"m 39 0 l 39 42 q 89 46 57 42 q 149 64 121 50 l 149 535 q 106 542 131 542 q 63 540 82 543 l 50 576 l 233 653 l 261 633 l 261 64 q 321 46 289 50 q 371 42 353 42 l 371 0 l 39 0 m 78 761 q 29 781 49 761 q 10 828 10 800 q 29 876 10 856 q 78 897 49 897 q 127 878 107 897 q 147 831 147 858 q 127 782 147 803 q 78 761 107 761 m 329 761 q 281 781 300 761 q 261 828 261 800 q 281 876 261 856 q 329 897 300 897 q 378 878 358 897 q 399 831 399 858 q 378 782 399 803 q 329 761 358 761 z "},"ị":{"ha":401,"x_min":39,"x_max":371,"o":"m 39 0 l 39 42 q 89 46 57 42 q 149 64 121 50 l 149 535 q 106 542 131 542 q 63 540 82 543 l 50 576 l 233 653 l 261 633 l 261 64 q 321 46 289 50 q 371 42 353 42 l 371 0 l 39 0 m 203 785 q 148 807 169 785 q 126 861 126 829 q 148 915 126 892 q 203 939 169 939 q 258 917 236 939 q 281 863 281 894 q 258 808 281 832 q 203 785 236 785 m 204 -251 q 149 -229 171 -251 q 128 -175 128 -207 q 149 -121 128 -144 q 204 -97 171 -97 q 260 -119 238 -97 q 282 -174 282 -142 q 260 -228 282 -204 q 204 -251 238 -251 z "},"ì":{"ha":401,"x_min":-19,"x_max":371,"o":"m 39 0 l 39 42 q 89 46 57 42 q 149 64 121 50 l 149 535 q 106 542 131 542 q 63 540 82 543 l 50 576 l 233 653 l 261 633 l 261 64 q 321 46 289 50 q 371 42 353 42 l 371 0 l 39 0 m 238 718 l -19 935 l 61 1001 l 274 749 l 238 718 z "},"ĳ":{"ha":746,"x_min":39,"x_max":682,"o":"m 39 0 l 39 42 q 89 46 57 42 q 149 64 121 50 l 149 535 q 106 542 131 542 q 63 540 82 543 l 50 576 l 233 653 l 261 633 l 261 64 q 321 46 289 50 q 371 42 353 42 l 371 0 l 39 0 m 203 785 q 148 807 169 785 q 126 861 126 829 q 148 915 126 892 q 203 939 169 939 q 258 917 236 939 q 281 863 281 894 q 258 808 281 832 q 203 785 236 785 m 408 -394 l 385 -364 q 439 -303 408 -342 q 497 -211 469 -264 q 539 -96 524 -158 q 547 -42 544 -72 q 550 18 549 -12 l 550 535 q 508 542 532 542 q 464 540 483 543 l 451 576 l 635 653 l 663 633 l 663 -28 q 606 -177 643 -112 q 527 -287 568 -242 q 453 -360 486 -333 q 408 -394 419 -387 m 604 785 q 549 807 571 785 q 528 861 528 829 q 549 915 528 892 q 604 939 571 939 q 660 917 638 939 q 682 863 682 894 q 660 808 682 832 q 604 785 638 785 z "},"ī":{"ha":401,"x_min":17,"x_max":392,"o":"m 17 799 l 17 865 l 392 865 l 392 799 l 17 799 m 39 0 l 39 42 q 89 46 57 42 q 149 64 121 50 l 149 535 q 106 542 131 542 q 63 540 82 543 l 50 576 l 233 653 l 261 633 l 261 64 q 321 46 289 50 q 371 42 353 42 l 371 0 l 39 0 z "},"į":{"ha":401,"x_min":39,"x_max":371,"o":"m 39 0 l 39 42 q 89 46 57 42 q 149 64 121 50 l 149 535 q 106 542 131 542 q 63 540 82 543 l 50 576 l 233 653 l 261 633 l 261 64 q 321 46 289 50 q 371 42 353 42 l 371 0 l 39 0 m 203 785 q 148 807 169 785 q 126 861 126 829 q 148 915 126 892 q 203 939 169 939 q 258 917 236 939 q 281 863 281 894 q 258 808 281 832 q 203 785 236 785 m 194 -333 q 108 -308 143 -333 q 72 -225 72 -282 q 110 -113 72 -167 q 229 0 149 -60 l 283 0 q 199 -99 231 -50 q 168 -187 168 -147 q 188 -244 168 -222 q 244 -267 208 -267 q 283 -259 264 -267 q 313 -242 301 -251 l 328 -264 q 266 -313 304 -293 q 194 -333 228 -333 z "},"ĩ":{"ha":401,"x_min":-11,"x_max":463,"o":"m 39 0 l 39 42 q 89 46 57 42 q 149 64 121 50 l 149 535 q 106 542 131 542 q 63 540 82 543 l 50 576 l 233 653 l 261 633 l 261 64 q 321 46 289 50 q 371 42 353 42 l 371 0 l 39 0 m 18 754 l -11 769 q 22 828 1 796 q 73 886 43 861 q 138 913 103 911 q 200 905 174 915 q 247 880 226 894 q 289 854 268 865 q 335 844 310 843 q 395 869 375 847 q 433 921 415 890 l 463 906 q 430 848 451 881 q 379 790 408 815 q 314 763 350 765 q 253 772 279 761 q 206 797 226 782 q 163 822 185 811 q 117 832 142 833 q 57 806 76 829 q 18 754 38 783 z "},"j":{"ha":331,"x_min":-31,"x_max":267,"o":"m -7 -394 l -31 -364 q 24 -303 -7 -342 q 81 -211 54 -264 q 124 -96 108 -158 q 131 -42 129 -72 q 135 18 133 -12 l 135 535 q 92 542 117 542 q 49 540 68 543 l 36 576 l 219 653 l 247 633 l 247 -28 q 190 -177 228 -112 q 112 -287 153 -242 q 38 -360 71 -333 q -7 -394 4 -387 m 189 785 q 134 807 156 785 q 113 861 113 829 q 134 915 113 892 q 189 939 156 939 q 244 917 222 939 q 267 863 267 894 q 244 808 267 832 q 189 785 222 785 z "},"ȷ":{"ha":331,"x_min":-31,"x_max":247,"o":"m -7 -394 l -31 -364 q 24 -303 -7 -342 q 81 -211 54 -264 q 124 -96 108 -158 q 131 -42 129 -72 q 135 18 133 -12 l 135 535 q 92 542 117 542 q 49 540 68 543 l 36 576 l 219 653 l 247 633 l 247 -28 q 190 -177 228 -112 q 112 -287 153 -242 q 38 -360 71 -333 q -7 -394 4 -387 z "},"ĵ":{"ha":331,"x_min":-31,"x_max":404,"o":"m -7 -394 l -31 -364 q 24 -303 -7 -342 q 81 -211 54 -264 q 124 -96 108 -158 q 131 -42 129 -72 q 135 18 133 -12 l 135 535 q 92 542 117 542 q 49 540 68 543 l 36 576 l 219 653 l 247 633 l 247 -28 q 190 -177 228 -112 q 112 -287 153 -242 q 38 -360 71 -333 q -7 -394 4 -387 m 8 718 l -24 746 l 172 964 l 208 964 l 404 746 l 372 718 l 190 858 l 8 718 z "},"k":{"ha":756,"x_min":39,"x_max":742,"o":"m 39 0 l 39 42 q 89 46 57 42 q 149 64 121 50 l 149 978 q 106 985 131 985 q 63 983 82 986 l 50 1019 l 233 1096 l 261 1076 l 261 64 q 324 46 290 50 q 375 42 357 42 l 375 0 l 39 0 m 735 -43 q 623 -30 665 -40 q 552 -1 581 -19 q 497 43 524 18 q 448 105 479 63 q 382 196 417 147 q 319 285 347 244 q 281 342 292 326 l 508 567 l 507 567 l 507 569 q 447 588 479 583 q 397 592 415 592 l 397 633 l 704 633 l 704 592 q 664 588 690 592 q 613 574 638 585 l 396 358 q 453 282 418 328 q 524 190 488 236 q 589 113 561 144 q 656 44 625 72 q 742 -3 686 17 l 735 -43 z "},"ķ":{"ha":756,"x_min":39,"x_max":742,"o":"m 39 0 l 39 42 q 89 46 57 42 q 149 64 121 50 l 149 978 q 106 985 131 985 q 63 983 82 986 l 50 1019 l 233 1096 l 261 1076 l 261 64 q 324 46 290 50 q 375 42 357 42 l 375 0 l 39 0 m 735 -43 q 623 -30 665 -40 q 552 -1 581 -19 q 497 43 524 18 q 448 105 479 63 q 382 196 417 147 q 319 285 347 244 q 281 342 292 326 l 508 567 l 507 567 l 507 569 q 447 588 479 583 q 397 592 415 592 l 397 633 l 704 633 l 704 592 q 664 588 690 592 q 613 574 638 585 l 396 358 q 453 282 418 328 q 524 190 488 236 q 589 113 561 144 q 656 44 625 72 q 742 -3 686 17 l 735 -43 m 332 -440 l 313 -414 q 376 -342 353 -383 q 399 -250 399 -300 l 397 -250 q 342 -228 364 -250 q 321 -175 321 -207 q 342 -121 321 -144 q 397 -97 364 -97 q 450 -119 429 -97 q 474 -178 471 -142 q 465 -267 478 -217 q 419 -363 451 -317 q 332 -440 388 -410 z "},"ĸ":{"ha":756,"x_min":39,"x_max":742,"o":"m 39 0 l 39 42 q 89 46 57 42 q 149 64 121 50 l 149 535 q 106 542 131 542 q 63 540 82 543 l 50 576 l 233 653 l 261 633 l 261 64 q 321 46 289 50 q 371 42 353 42 l 371 0 l 39 0 m 735 -43 q 623 -30 665 -40 q 552 -1 581 -19 q 497 43 524 18 q 448 105 479 63 q 382 196 417 147 q 319 285 347 244 q 281 342 292 326 l 507 567 l 507 569 q 447 588 479 583 q 397 592 415 592 l 397 633 l 704 633 l 704 592 q 664 588 690 592 q 613 574 638 585 l 396 358 q 453 282 418 328 q 524 190 488 236 q 589 113 561 144 q 656 44 625 72 q 742 -3 686 17 l 735 -43 z "},"l":{"ha":401,"x_min":39,"x_max":371,"o":"m 39 0 l 39 42 q 89 46 57 42 q 149 64 121 50 l 149 978 q 106 985 131 985 q 63 983 82 986 l 50 1019 l 233 1096 l 261 1076 l 261 64 q 321 46 289 50 q 371 42 353 42 l 371 0 l 39 0 z "},"ĺ":{"ha":401,"x_min":39,"x_max":415,"o":"m 39 0 l 39 42 q 89 46 57 42 q 149 64 121 50 l 149 978 q 106 985 131 985 q 63 983 82 986 l 50 1019 l 233 1096 l 261 1076 l 261 64 q 321 46 289 50 q 371 42 353 42 l 371 0 l 39 0 m 100 1129 l 81 1163 l 367 1328 l 415 1244 l 100 1129 z "},"ľ":{"ha":401,"x_min":39,"x_max":471,"o":"m 39 0 l 39 42 q 89 46 57 42 q 149 64 121 50 l 149 978 q 106 985 131 985 q 63 983 82 986 l 50 1019 l 233 1096 l 261 1076 l 261 64 q 321 46 289 50 q 371 42 353 42 l 371 0 l 39 0 m 424 750 l 376 749 l 365 1078 l 471 1082 l 424 750 z "},"ļ":{"ha":401,"x_min":39,"x_max":371,"o":"m 39 0 l 39 42 q 89 46 57 42 q 149 64 121 50 l 149 978 q 106 985 131 985 q 63 983 82 986 l 50 1019 l 233 1096 l 261 1076 l 261 64 q 321 46 289 50 q 371 42 353 42 l 371 0 l 39 0 m 143 -440 l 124 -414 q 187 -342 164 -383 q 210 -250 210 -300 l 208 -250 q 153 -228 175 -250 q 132 -175 132 -207 q 153 -121 132 -144 q 208 -97 175 -97 q 261 -119 240 -97 q 285 -178 282 -142 q 276 -267 289 -217 q 231 -363 263 -317 q 143 -440 199 -410 z "},"ŀ":{"ha":565,"x_min":39,"x_max":526,"o":"m 39 0 l 39 42 q 89 46 57 42 q 149 64 121 50 l 149 978 q 106 985 131 985 q 63 983 82 986 l 50 1019 l 233 1096 l 261 1076 l 261 64 q 321 46 289 50 q 371 42 353 42 l 371 0 l 39 0 m 451 382 q 400 403 421 382 q 379 454 379 424 q 400 507 379 485 q 451 529 421 529 q 505 508 483 529 q 526 457 526 488 q 505 405 526 428 q 451 382 483 382 z "},"ł":{"ha":414,"x_min":31,"x_max":392,"o":"m 43 0 l 43 42 q 93 46 61 42 q 153 64 125 50 l 153 538 l 56 490 l 31 536 l 153 596 l 153 978 q 110 985 135 985 q 67 983 86 986 l 54 1019 l 238 1096 l 265 1076 l 265 650 l 367 700 l 392 654 l 265 593 l 265 64 q 325 46 293 50 q 375 42 357 42 l 375 0 l 43 0 z "},"m":{"ha":1197,"x_min":36,"x_max":1167,"o":"m 36 0 l 36 42 q 86 46 54 42 q 146 64 118 50 l 146 535 q 103 542 128 542 q 60 540 79 543 l 47 576 l 231 653 l 258 633 l 258 546 q 364 612 304 579 q 479 644 424 644 q 569 621 526 644 q 615 584 597 606 q 643 538 632 563 q 710 583 671 558 q 792 626 749 608 q 878 644 835 644 q 968 621 928 644 q 1039 545 1021 592 q 1057 436 1057 499 l 1057 64 q 1117 46 1085 50 q 1167 42 1149 42 l 1167 0 l 846 0 l 846 42 q 890 46 861 42 q 944 64 919 50 l 944 383 q 937 472 944 436 q 889 538 929 507 q 855 553 875 549 q 811 558 835 558 q 726 534 767 558 q 656 488 685 510 q 658 436 658 464 l 658 64 q 713 46 683 50 q 757 42 742 42 l 757 0 l 446 0 l 446 42 q 490 46 461 42 q 544 64 519 50 l 544 383 q 537 472 544 436 q 489 538 529 507 q 455 553 475 549 q 411 558 435 558 q 331 535 372 558 q 258 486 290 511 l 258 64 q 313 46 283 50 q 357 42 342 42 l 357 0 l 36 0 z "},"n":{"ha":806,"x_min":36,"x_max":775,"o":"m 36 0 l 36 42 q 86 46 54 42 q 146 64 118 50 l 146 535 q 103 542 128 542 q 60 540 79 543 l 47 576 l 231 653 l 258 633 l 258 542 q 328 588 289 564 q 407 628 367 611 q 486 644 447 644 q 576 621 536 644 q 647 545 629 592 q 665 436 665 499 l 665 64 q 725 46 693 50 q 775 42 757 42 l 775 0 l 454 0 l 454 42 q 499 46 469 42 q 553 64 528 50 l 553 383 q 545 472 553 436 q 497 538 538 507 q 463 553 483 549 q 418 558 442 558 q 334 531 378 558 q 258 481 290 504 l 258 64 q 318 46 286 50 q 368 42 350 42 l 368 0 l 36 0 z "},"ń":{"ha":806,"x_min":36,"x_max":775,"o":"m 36 0 l 36 42 q 86 46 54 42 q 146 64 118 50 l 146 535 q 103 542 128 542 q 60 540 79 543 l 47 576 l 231 653 l 258 633 l 258 542 q 328 588 289 564 q 407 628 367 611 q 486 644 447 644 q 576 621 536 644 q 647 545 629 592 q 665 436 665 499 l 665 64 q 725 46 693 50 q 775 42 757 42 l 775 0 l 454 0 l 454 42 q 499 46 469 42 q 553 64 528 50 l 553 383 q 545 472 553 436 q 497 538 538 507 q 463 553 483 549 q 418 558 442 558 q 334 531 378 558 q 258 481 290 504 l 258 64 q 318 46 286 50 q 368 42 350 42 l 368 0 l 36 0 m 358 718 l 322 749 l 535 1001 l 615 935 l 358 718 z "},"ŉ":{"ha":806,"x_min":36,"x_max":775,"o":"m 97 657 l 78 683 q 144 759 121 715 q 168 854 168 803 l 165 854 q 109 877 132 854 q 86 933 86 900 q 109 990 86 965 q 165 1014 132 1014 q 222 991 200 1014 q 247 931 243 968 q 237 838 250 889 q 190 738 224 786 q 97 657 156 689 m 36 0 l 36 42 q 86 46 54 42 q 146 64 118 50 l 146 535 q 103 542 128 542 q 60 540 79 543 l 47 576 l 231 653 l 258 633 l 258 542 q 328 588 289 564 q 407 628 367 611 q 486 644 447 644 q 576 621 536 644 q 647 545 629 592 q 665 436 665 499 l 665 64 q 725 46 693 50 q 775 42 757 42 l 775 0 l 454 0 l 454 42 q 499 46 469 42 q 553 64 528 50 l 553 383 q 545 472 553 436 q 497 538 538 507 q 463 553 483 549 q 418 558 442 558 q 334 531 378 558 q 258 481 290 504 l 258 64 q 318 46 286 50 q 368 42 350 42 l 368 0 l 36 0 z "},"ň":{"ha":806,"x_min":36,"x_max":775,"o":"m 36 0 l 36 42 q 86 46 54 42 q 146 64 118 50 l 146 535 q 103 542 128 542 q 60 540 79 543 l 47 576 l 231 653 l 258 633 l 258 542 q 328 588 289 564 q 407 628 367 611 q 486 644 447 644 q 576 621 536 644 q 647 545 629 592 q 665 436 665 499 l 665 64 q 725 46 693 50 q 775 42 757 42 l 775 0 l 454 0 l 454 42 q 499 46 469 42 q 553 64 528 50 l 553 383 q 545 472 553 436 q 497 538 538 507 q 463 553 483 549 q 418 558 442 558 q 334 531 378 558 q 258 481 290 504 l 258 64 q 318 46 286 50 q 368 42 350 42 l 368 0 l 36 0 m 574 972 l 606 944 l 410 726 l 374 726 l 178 944 l 210 972 l 392 832 l 574 972 z "},"ņ":{"ha":806,"x_min":36,"x_max":775,"o":"m 36 0 l 36 42 q 86 46 54 42 q 146 64 118 50 l 146 535 q 103 542 128 542 q 60 540 79 543 l 47 576 l 231 653 l 258 633 l 258 542 q 328 588 289 564 q 407 628 367 611 q 486 644 447 644 q 576 621 536 644 q 647 545 629 592 q 665 436 665 499 l 665 64 q 725 46 693 50 q 775 42 757 42 l 775 0 l 454 0 l 454 42 q 499 46 469 42 q 553 64 528 50 l 553 383 q 545 472 553 436 q 497 538 538 507 q 463 553 483 549 q 418 558 442 558 q 334 531 378 558 q 258 481 290 504 l 258 64 q 318 46 286 50 q 368 42 350 42 l 368 0 l 36 0 m 344 -440 l 325 -414 q 388 -342 365 -383 q 411 -250 411 -300 l 410 -250 q 355 -228 376 -250 q 333 -175 333 -207 q 355 -121 333 -144 q 410 -97 376 -97 q 463 -119 442 -97 q 486 -178 483 -142 q 477 -267 490 -217 q 432 -363 464 -317 q 344 -440 400 -410 z "},"ɲ":{"ha":806,"x_min":-94,"x_max":775,"o":"m -94 -326 l -65 -199 q 8 -243 -36 -225 q 90 -243 51 -261 q 131 -191 119 -229 q 144 -102 143 -153 q 146 0 146 -51 l 146 535 q 103 542 128 542 q 60 540 79 543 l 47 576 l 231 653 l 258 633 l 258 542 q 328 588 289 564 q 407 628 367 611 q 486 644 447 644 q 576 621 536 644 q 647 545 629 592 q 665 436 665 499 l 665 64 q 725 46 693 50 q 775 42 757 42 l 775 0 l 454 0 l 454 42 q 499 46 469 42 q 553 64 528 50 l 553 383 q 545 472 553 436 q 497 538 538 507 q 463 553 483 549 q 418 558 442 558 q 334 531 378 558 q 258 481 290 504 l 258 14 q 258 -27 258 0 q 256 -72 257 -54 q 251 -113 254 -90 q 242 -153 247 -136 q 200 -228 229 -192 q 126 -292 171 -265 q 24 -328 83 -318 q -94 -326 -35 -339 z "},"ñ":{"ha":806,"x_min":36,"x_max":775,"o":"m 36 0 l 36 42 q 86 46 54 42 q 146 64 118 50 l 146 535 q 103 542 128 542 q 60 540 79 543 l 47 576 l 231 653 l 258 633 l 258 542 q 328 588 289 564 q 407 628 367 611 q 486 644 447 644 q 576 621 536 644 q 647 545 629 592 q 665 436 665 499 l 665 64 q 725 46 693 50 q 775 42 757 42 l 775 0 l 454 0 l 454 42 q 499 46 469 42 q 553 64 528 50 l 553 383 q 545 472 553 436 q 497 538 538 507 q 463 553 483 549 q 418 558 442 558 q 334 531 378 558 q 258 481 290 504 l 258 64 q 318 46 286 50 q 368 42 350 42 l 368 0 l 36 0 m 206 754 l 176 769 q 210 828 189 796 q 260 886 231 861 q 325 913 290 911 q 388 905 361 915 q 435 880 414 894 q 476 854 456 865 q 522 844 497 843 q 583 869 563 847 q 621 921 603 890 l 650 906 q 617 848 639 881 q 567 790 596 815 q 501 763 538 765 q 440 772 467 761 q 393 797 414 782 q 351 822 372 811 q 304 832 329 833 q 244 806 264 829 q 206 754 225 783 z "},"ŋ":{"ha":735,"x_min":36,"x_max":665,"o":"m 36 0 l 36 42 q 86 46 54 42 q 146 64 118 50 l 146 535 q 103 542 128 542 q 60 540 79 543 l 47 576 l 231 653 l 258 633 l 258 540 q 327 587 289 563 q 406 628 365 611 q 486 644 447 644 q 576 621 536 644 q 647 545 629 592 q 665 436 665 499 l 665 14 q 665 -18 665 10 q 663 -64 664 -46 q 658 -109 661 -82 q 649 -153 654 -136 q 607 -228 636 -192 q 533 -292 578 -265 q 431 -328 490 -318 q 313 -326 372 -339 l 342 -199 q 415 -243 371 -225 q 497 -243 458 -261 q 538 -191 526 -229 q 551 -102 550 -153 q 553 0 553 -51 l 553 383 q 545 472 553 436 q 497 538 538 507 q 463 553 483 549 q 418 558 442 558 q 334 532 378 558 q 258 481 290 506 l 258 64 q 318 46 286 50 q 368 42 350 42 l 368 0 l 36 0 z "},"o":{"ha":722,"x_min":47,"x_max":689,"o":"m 369 -11 q 192 43 275 -11 q 69 193 108 97 q 53 253 58 222 q 47 314 47 283 q 72 441 47 381 q 141 549 96 501 q 247 621 186 596 q 306 639 276 633 q 365 644 336 644 q 488 620 429 644 q 594 550 547 596 q 665 440 640 504 q 689 321 689 381 q 635 137 689 222 q 489 13 581 51 q 430 -6 460 0 q 369 -11 400 -11 m 392 50 q 407 51 399 50 q 422 53 415 51 q 526 133 488 68 q 565 283 565 197 q 563 322 565 303 q 558 358 561 340 q 512 476 544 425 q 435 556 479 526 q 344 585 392 585 q 313 581 329 585 q 209 503 249 567 q 169 353 169 439 q 178 275 169 315 q 224 158 192 210 q 300 78 256 107 q 392 50 344 50 z "},"ó":{"ha":722,"x_min":47,"x_max":689,"o":"m 369 -11 q 192 43 275 -11 q 69 193 108 97 q 53 253 58 222 q 47 314 47 283 q 72 441 47 381 q 141 549 96 501 q 247 621 186 596 q 306 639 276 633 q 365 644 336 644 q 488 620 429 644 q 594 550 547 596 q 665 440 640 504 q 689 321 689 381 q 635 137 689 222 q 489 13 581 51 q 430 -6 460 0 q 369 -11 400 -11 m 392 50 q 407 51 399 50 q 422 53 415 51 q 526 133 488 68 q 565 283 565 197 q 563 322 565 303 q 558 358 561 340 q 512 476 544 425 q 435 556 479 526 q 344 585 392 585 q 313 581 329 585 q 209 503 249 567 q 169 353 169 439 q 178 275 169 315 q 224 158 192 210 q 300 78 256 107 q 392 50 344 50 m 335 718 l 299 749 l 511 1001 l 592 935 l 335 718 z "},"ŏ":{"ha":722,"x_min":47,"x_max":689,"o":"m 369 -11 q 192 43 275 -11 q 69 193 108 97 q 53 253 58 222 q 47 314 47 283 q 72 441 47 381 q 141 549 96 501 q 247 621 186 596 q 306 639 276 633 q 365 644 336 644 q 488 620 429 644 q 594 550 547 596 q 665 440 640 504 q 689 321 689 381 q 635 137 689 222 q 489 13 581 51 q 430 -6 460 0 q 369 -11 400 -11 m 392 50 q 407 51 399 50 q 422 53 415 51 q 526 133 488 68 q 565 283 565 197 q 563 322 565 303 q 558 358 561 340 q 512 476 544 425 q 435 556 479 526 q 344 585 392 585 q 313 581 329 585 q 209 503 249 567 q 169 353 169 439 q 178 275 169 315 q 224 158 192 210 q 300 78 256 107 q 392 50 344 50 m 368 776 q 248 819 300 775 q 172 947 196 863 l 207 958 q 271 889 231 908 q 368 869 311 869 q 465 889 424 869 q 529 958 507 908 l 564 947 q 489 820 540 863 q 368 776 438 778 z "},"ô":{"ha":722,"x_min":47,"x_max":689,"o":"m 369 -11 q 192 43 275 -11 q 69 193 108 97 q 53 253 58 222 q 47 314 47 283 q 72 441 47 381 q 141 549 96 501 q 247 621 186 596 q 306 639 276 633 q 365 644 336 644 q 488 620 429 644 q 594 550 547 596 q 665 440 640 504 q 689 321 689 381 q 635 137 689 222 q 489 13 581 51 q 430 -6 460 0 q 369 -11 400 -11 m 392 50 q 407 51 399 50 q 422 53 415 51 q 526 133 488 68 q 565 283 565 197 q 563 322 565 303 q 558 358 561 340 q 512 476 544 425 q 435 556 479 526 q 344 585 392 585 q 313 581 329 585 q 209 503 249 567 q 169 353 169 439 q 178 275 169 315 q 224 158 192 210 q 300 78 256 107 q 392 50 344 50 m 186 718 l 154 746 l 350 964 l 386 964 l 582 746 l 550 718 l 368 858 l 186 718 z "},"ö":{"ha":722,"x_min":47,"x_max":689,"o":"m 369 -11 q 192 43 275 -11 q 69 193 108 97 q 53 253 58 222 q 47 314 47 283 q 72 441 47 381 q 141 549 96 501 q 247 621 186 596 q 306 639 276 633 q 365 644 336 644 q 488 620 429 644 q 594 550 547 596 q 665 440 640 504 q 689 321 689 381 q 635 137 689 222 q 489 13 581 51 q 430 -6 460 0 q 369 -11 400 -11 m 392 50 q 407 51 399 50 q 422 53 415 51 q 526 133 488 68 q 565 283 565 197 q 563 322 565 303 q 558 358 561 340 q 512 476 544 425 q 435 556 479 526 q 344 585 392 585 q 313 581 329 585 q 209 503 249 567 q 169 353 169 439 q 178 275 169 315 q 224 158 192 210 q 300 78 256 107 q 392 50 344 50 m 242 761 q 193 781 213 761 q 174 828 174 800 q 193 876 174 856 q 242 897 213 897 q 291 878 271 897 q 311 831 311 858 q 291 782 311 803 q 242 761 271 761 m 493 761 q 444 781 464 761 q 425 828 425 800 q 444 876 425 856 q 493 897 464 897 q 542 878 522 897 q 563 831 563 858 q 542 782 563 803 q 493 761 522 761 z "},"ọ":{"ha":722,"x_min":47,"x_max":689,"o":"m 369 -11 q 192 43 275 -11 q 69 193 108 97 q 53 253 58 222 q 47 314 47 283 q 72 441 47 381 q 141 549 96 501 q 247 621 186 596 q 306 639 276 633 q 365 644 336 644 q 488 620 429 644 q 594 550 547 596 q 665 440 640 504 q 689 321 689 381 q 635 137 689 222 q 489 13 581 51 q 430 -6 460 0 q 369 -11 400 -11 m 392 50 q 407 51 399 50 q 422 53 415 51 q 526 133 488 68 q 565 283 565 197 q 563 322 565 303 q 558 358 561 340 q 512 476 544 425 q 435 556 479 526 q 344 585 392 585 q 313 581 329 585 q 209 503 249 567 q 169 353 169 439 q 178 275 169 315 q 224 158 192 210 q 300 78 256 107 q 392 50 344 50 m 374 -251 q 319 -229 340 -251 q 297 -175 297 -207 q 319 -121 297 -144 q 374 -97 340 -97 q 429 -119 407 -97 q 451 -174 451 -142 q 429 -228 451 -204 q 374 -251 407 -251 z "},"ò":{"ha":722,"x_min":47,"x_max":689,"o":"m 369 -11 q 192 43 275 -11 q 69 193 108 97 q 53 253 58 222 q 47 314 47 283 q 72 441 47 381 q 141 549 96 501 q 247 621 186 596 q 306 639 276 633 q 365 644 336 644 q 488 620 429 644 q 594 550 547 596 q 665 440 640 504 q 689 321 689 381 q 635 137 689 222 q 489 13 581 51 q 430 -6 460 0 q 369 -11 400 -11 m 392 50 q 407 51 399 50 q 422 53 415 51 q 526 133 488 68 q 565 283 565 197 q 563 322 565 303 q 558 358 561 340 q 512 476 544 425 q 435 556 479 526 q 344 585 392 585 q 313 581 329 585 q 209 503 249 567 q 169 353 169 439 q 178 275 169 315 q 224 158 192 210 q 300 78 256 107 q 392 50 344 50 m 401 718 l 144 935 l 225 1001 l 438 749 l 401 718 z "},"ő":{"ha":722,"x_min":47,"x_max":689,"o":"m 369 -11 q 192 43 275 -11 q 69 193 108 97 q 53 253 58 222 q 47 314 47 283 q 72 441 47 381 q 141 549 96 501 q 247 621 186 596 q 306 639 276 633 q 365 644 336 644 q 488 620 429 644 q 594 550 547 596 q 665 440 640 504 q 689 321 689 381 q 635 137 689 222 q 489 13 581 51 q 430 -6 460 0 q 369 -11 400 -11 m 392 50 q 407 51 399 50 q 422 53 415 51 q 526 133 488 68 q 565 283 565 197 q 563 322 565 303 q 558 358 561 340 q 512 476 544 425 q 435 556 479 526 q 344 585 392 585 q 313 581 329 585 q 209 503 249 567 q 169 353 169 439 q 178 275 169 315 q 224 158 192 210 q 300 78 256 107 q 392 50 344 50 m 476 718 l 438 738 l 533 999 l 624 956 l 476 718 m 286 707 l 247 726 l 343 988 l 433 944 l 286 707 z "},"ō":{"ha":722,"x_min":47,"x_max":689,"o":"m 369 -11 q 192 43 275 -11 q 69 193 108 97 q 53 253 58 222 q 47 314 47 283 q 72 441 47 381 q 141 549 96 501 q 247 621 186 596 q 306 639 276 633 q 365 644 336 644 q 488 620 429 644 q 594 550 547 596 q 665 440 640 504 q 689 321 689 381 q 635 137 689 222 q 489 13 581 51 q 430 -6 460 0 q 369 -11 400 -11 m 392 50 q 407 51 399 50 q 422 53 415 51 q 526 133 488 68 q 565 283 565 197 q 563 322 565 303 q 558 358 561 340 q 512 476 544 425 q 435 556 479 526 q 344 585 392 585 q 313 581 329 585 q 209 503 249 567 q 169 353 169 439 q 178 275 169 315 q 224 158 192 210 q 300 78 256 107 q 392 50 344 50 m 160 799 l 160 865 l 576 865 l 576 799 l 160 799 z "},"ǫ":{"ha":722,"x_min":47,"x_max":689,"o":"m 369 -11 q 192 43 275 -11 q 69 193 108 97 q 53 253 58 222 q 47 314 47 283 q 72 441 47 381 q 141 549 96 501 q 247 621 186 596 q 306 639 276 633 q 365 644 336 644 q 488 620 429 644 q 594 550 547 596 q 665 440 640 504 q 689 321 689 381 q 635 137 689 222 q 489 13 581 51 q 483 10 486 11 l 472 0 q 388 -99 419 -50 q 357 -187 357 -147 q 377 -244 357 -222 q 433 -267 397 -267 q 472 -259 453 -267 q 501 -242 490 -251 l 517 -264 q 455 -313 493 -293 q 383 -333 417 -333 q 297 -308 332 -333 q 261 -225 261 -282 q 297 -117 261 -169 q 406 -10 332 -65 q 369 -11 388 -11 m 392 50 q 407 51 399 50 q 422 53 415 51 q 526 133 488 68 q 565 283 565 197 q 563 322 565 303 q 558 358 561 340 q 512 476 544 425 q 435 556 479 526 q 344 585 392 585 q 313 581 329 585 q 209 503 249 567 q 169 353 169 439 q 178 275 169 315 q 224 158 192 210 q 300 78 256 107 q 392 50 344 50 z "},"ø":{"ha":722,"x_min":47,"x_max":689,"o":"m 165 -96 l 117 -69 l 185 49 q 117 110 147 74 q 69 193 88 147 q 53 253 58 222 q 47 314 47 283 q 72 441 47 381 q 141 549 96 501 q 247 621 186 596 q 306 639 276 633 q 365 644 336 644 q 508 611 440 644 l 574 725 l 622 699 l 556 582 q 619 521 592 557 q 665 440 647 485 q 689 321 689 381 q 635 137 689 222 q 489 13 581 51 q 430 -6 460 0 q 369 -11 400 -11 q 232 19 297 -11 l 165 -96 m 178 275 q 236 139 193 197 l 464 533 q 344 585 407 585 q 313 581 329 585 q 209 503 249 567 q 169 353 169 439 q 178 275 169 315 m 392 50 q 407 51 399 50 q 422 53 415 51 q 526 133 488 68 q 565 283 565 197 q 563 322 565 303 q 558 358 561 340 q 501 490 543 433 l 276 97 q 392 50 331 50 z "},"ǿ":{"ha":722,"x_min":47,"x_max":689,"o":"m 335 718 l 299 749 l 511 1001 l 592 935 l 335 718 m 165 -96 l 117 -69 l 185 49 q 117 110 147 74 q 69 193 88 147 q 53 253 58 222 q 47 314 47 283 q 72 441 47 381 q 141 549 96 501 q 247 621 186 596 q 306 639 276 633 q 365 644 336 644 q 508 611 440 644 l 574 725 l 622 699 l 556 582 q 619 521 592 557 q 665 440 647 485 q 689 321 689 381 q 635 137 689 222 q 489 13 581 51 q 430 -6 460 0 q 369 -11 400 -11 q 232 19 297 -11 l 165 -96 m 178 275 q 236 139 193 197 l 464 533 q 344 585 407 585 q 313 581 329 585 q 209 503 249 567 q 169 353 169 439 q 178 275 169 315 m 392 50 q 407 51 399 50 q 422 53 415 51 q 526 133 488 68 q 565 283 565 197 q 563 322 565 303 q 558 358 561 340 q 501 490 543 433 l 276 97 q 392 50 331 50 z "},"õ":{"ha":722,"x_min":47,"x_max":689,"o":"m 369 -11 q 192 43 275 -11 q 69 193 108 97 q 53 253 58 222 q 47 314 47 283 q 72 441 47 381 q 141 549 96 501 q 247 621 186 596 q 306 639 276 633 q 365 644 336 644 q 488 620 429 644 q 594 550 547 596 q 665 440 640 504 q 689 321 689 381 q 635 137 689 222 q 489 13 581 51 q 430 -6 460 0 q 369 -11 400 -11 m 392 50 q 407 51 399 50 q 422 53 415 51 q 526 133 488 68 q 565 283 565 197 q 563 322 565 303 q 558 358 561 340 q 512 476 544 425 q 435 556 479 526 q 344 585 392 585 q 313 581 329 585 q 209 503 249 567 q 169 353 169 439 q 178 275 169 315 q 224 158 192 210 q 300 78 256 107 q 392 50 344 50 m 182 754 l 153 769 q 186 828 165 796 q 237 886 207 861 q 301 913 267 911 q 364 905 338 915 q 411 880 390 894 q 453 854 432 865 q 499 844 474 843 q 559 869 539 847 q 597 921 579 890 l 626 906 q 594 848 615 881 q 543 790 572 815 q 478 763 514 765 q 417 772 443 761 q 369 797 390 782 q 327 822 349 811 q 281 832 306 833 q 221 806 240 829 q 182 754 201 783 z "},"œ":{"ha":1108,"x_min":47,"x_max":1085,"o":"m 369 -11 q 192 43 275 -11 q 69 193 108 97 q 53 253 58 222 q 47 314 47 283 q 72 441 47 381 q 141 549 96 501 q 247 621 186 596 q 306 639 276 633 q 365 644 336 644 q 512 609 442 644 q 628 510 582 574 q 674 564 649 540 q 768 624 717 604 q 869 644 819 644 q 979 613 929 644 q 1057 526 1029 582 q 1076 392 1085 469 l 668 364 q 697 227 667 294 q 785 124 728 160 q 887 90 838 92 q 977 107 936 89 q 1046 150 1018 125 l 1075 125 q 1017 63 1054 94 q 933 10 981 31 q 831 -12 885 -11 q 721 15 778 -14 q 660 58 686 33 q 617 111 635 82 q 559 53 592 79 q 489 13 526 28 q 430 -6 460 0 q 369 -11 400 -11 m 392 50 q 407 51 399 50 q 422 53 415 51 q 526 133 488 68 q 565 283 565 197 q 563 322 565 303 q 558 358 561 340 q 512 476 544 425 q 435 556 479 526 q 344 585 392 585 q 313 581 329 585 q 209 503 249 567 q 169 353 169 439 q 178 275 169 315 q 224 158 192 210 q 300 78 256 107 q 392 50 344 50 m 768 556 q 706 499 729 535 q 674 418 683 463 l 953 447 q 926 526 953 493 q 858 570 900 560 q 768 556 817 581 z "},"p":{"ha":735,"x_min":39,"x_max":701,"o":"m 333 -11 q 261 -6 294 -11 l 261 -319 q 328 -337 293 -333 q 382 -342 363 -342 l 382 -383 l 39 -383 l 39 -342 q 89 -337 57 -342 q 149 -319 121 -333 l 149 535 q 106 542 131 542 q 63 540 82 543 l 50 576 l 233 653 l 261 633 l 261 535 q 367 615 311 585 q 475 644 422 644 q 587 608 536 644 q 665 515 638 572 q 693 440 685 478 q 701 363 701 401 q 658 185 701 269 q 549 54 614 101 q 447 6 503 22 q 333 -11 392 -11 m 415 549 q 335 528 375 549 q 261 476 294 507 l 261 114 q 392 58 310 58 q 450 67 419 58 q 508 96 481 76 q 576 183 556 128 q 597 299 597 239 q 560 451 597 388 q 498 522 536 494 q 415 549 460 549 z "},"þ":{"ha":699,"x_min":36,"x_max":669,"o":"m 36 -390 l 36 -349 q 86 -344 54 -349 q 146 -326 118 -340 l 146 978 q 103 985 128 985 q 60 983 79 986 l 47 1019 l 231 1096 l 258 1076 l 258 604 q 399 657 326 651 q 535 630 472 663 q 631 532 597 597 q 666 403 663 469 q 651 276 669 338 q 597 164 632 214 q 514 85 561 114 q 391 31 457 47 q 258 22 325 14 l 258 -326 q 318 -344 286 -340 q 368 -349 350 -349 l 368 -390 l 36 -390 m 528 463 q 453 536 499 511 q 355 563 407 561 q 258 544 303 565 l 258 125 q 360 87 300 92 q 479 119 421 82 q 540 188 519 144 q 564 282 560 232 q 558 380 568 332 q 528 463 549 428 z "},"q":{"ha":722,"x_min":40,"x_max":706,"o":"m 301 -11 q 206 9 254 -11 q 121 68 158 29 q 59 184 78 115 q 50 328 40 253 q 99 473 60 404 q 211 589 139 542 q 360 644 286 638 q 514 603 433 651 l 561 667 l 596 657 l 596 -319 q 656 -337 624 -333 q 706 -342 688 -342 l 706 -383 l 363 -383 l 363 -342 q 417 -337 382 -342 q 483 -319 453 -333 l 483 81 q 403 13 444 38 q 301 -11 361 -11 m 213 158 q 287 104 240 126 q 385 86 333 82 q 483 138 438 90 l 483 506 q 375 567 442 557 q 243 542 308 578 q 178 473 201 519 q 149 370 154 426 q 160 258 144 314 q 213 158 176 201 z "},"r":{"ha":522,"x_min":36,"x_max":514,"o":"m 36 0 l 36 42 q 81 46 51 42 q 135 64 110 50 l 135 535 q 92 542 117 542 q 49 540 68 543 l 36 576 l 219 653 l 247 633 l 247 500 q 321 594 281 551 q 411 643 361 638 q 514 625 474 650 l 453 499 q 410 524 438 513 q 346 524 382 535 q 289 483 313 514 q 247 421 265 453 l 247 64 q 314 46 279 50 q 368 42 349 42 l 368 0 l 36 0 z "},"ŕ":{"ha":522,"x_min":36,"x_max":514,"o":"m 36 0 l 36 42 q 81 46 51 42 q 135 64 110 50 l 135 535 q 92 542 117 542 q 49 540 68 543 l 36 576 l 219 653 l 247 633 l 247 500 q 321 594 281 551 q 411 643 361 638 q 514 625 474 650 l 453 499 q 410 524 438 513 q 346 524 382 535 q 289 483 313 514 q 247 421 265 453 l 247 64 q 314 46 279 50 q 368 42 349 42 l 368 0 l 36 0 m 229 718 l 193 749 l 406 1001 l 486 935 l 229 718 z "},"ř":{"ha":522,"x_min":36,"x_max":514,"o":"m 36 0 l 36 42 q 81 46 51 42 q 135 64 110 50 l 135 535 q 92 542 117 542 q 49 540 68 543 l 36 576 l 219 653 l 247 633 l 247 500 q 321 594 281 551 q 411 643 361 638 q 514 625 474 650 l 453 499 q 410 524 438 513 q 346 524 382 535 q 289 483 313 514 q 247 421 265 453 l 247 64 q 314 46 279 50 q 368 42 349 42 l 368 0 l 36 0 m 444 972 l 476 944 l 281 726 l 244 726 l 49 944 l 81 972 l 263 832 l 444 972 z "},"ŗ":{"ha":522,"x_min":36,"x_max":514,"o":"m 36 0 l 36 42 q 81 46 51 42 q 135 64 110 50 l 135 535 q 92 542 117 542 q 49 540 68 543 l 36 576 l 219 653 l 247 633 l 247 500 q 321 594 281 551 q 411 643 361 638 q 514 625 474 650 l 453 499 q 410 524 438 513 q 346 524 382 535 q 289 483 313 514 q 247 421 265 453 l 247 64 q 314 46 279 50 q 368 42 349 42 l 368 0 l 36 0 m 129 -440 l 110 -414 q 173 -342 150 -383 q 196 -250 196 -300 l 194 -250 q 140 -228 161 -250 q 118 -175 118 -207 q 140 -121 118 -144 q 194 -97 161 -97 q 247 -119 226 -97 q 271 -178 268 -142 q 262 -267 275 -217 q 217 -363 249 -317 q 129 -440 185 -410 z "},"s":{"ha":515,"x_min":47,"x_max":475,"o":"m 256 -11 q 156 -1 208 -11 q 76 25 103 10 l 47 206 l 93 214 q 113 149 100 181 q 143 99 126 117 q 274 53 193 40 q 338 82 314 57 q 361 143 361 107 q 329 208 361 183 q 258 256 297 232 q 190 302 231 274 q 119 372 150 331 q 88 465 88 413 q 131 580 88 533 q 247 640 175 626 q 303 644 276 644 q 385 637 349 644 q 433 626 421 629 l 454 468 l 413 461 q 392 526 407 501 q 357 564 376 551 q 296 582 328 582 q 258 578 278 582 q 201 530 215 565 q 206 454 186 494 q 260 402 221 424 q 333 358 299 381 q 390 319 361 342 q 442 267 419 297 q 467 196 464 236 q 415 42 475 94 q 256 -11 354 -11 z "},"ś":{"ha":515,"x_min":47,"x_max":506,"o":"m 256 -11 q 156 -1 208 -11 q 76 25 103 10 l 47 206 l 93 214 q 113 149 100 181 q 143 99 126 117 q 274 53 193 40 q 338 82 314 57 q 361 143 361 107 q 329 208 361 183 q 258 256 297 232 q 190 302 231 274 q 119 372 150 331 q 88 465 88 413 q 131 580 88 533 q 247 640 175 626 q 303 644 276 644 q 385 637 349 644 q 433 626 421 629 l 454 468 l 413 461 q 392 526 407 501 q 357 564 376 551 q 296 582 328 582 q 258 578 278 582 q 201 530 215 565 q 206 454 186 494 q 260 402 221 424 q 333 358 299 381 q 390 319 361 342 q 442 267 419 297 q 467 196 464 236 q 415 42 475 94 q 256 -11 354 -11 m 249 718 l 213 749 l 425 1001 l 506 935 l 249 718 z "},"š":{"ha":515,"x_min":47,"x_max":496,"o":"m 256 -11 q 156 -1 208 -11 q 76 25 103 10 l 47 206 l 93 214 q 113 149 100 181 q 143 99 126 117 q 274 53 193 40 q 338 82 314 57 q 361 143 361 107 q 329 208 361 183 q 258 256 297 232 q 190 302 231 274 q 119 372 150 331 q 88 465 88 413 q 131 580 88 533 q 247 640 175 626 q 303 644 276 644 q 385 637 349 644 q 433 626 421 629 l 454 468 l 413 461 q 392 526 407 501 q 357 564 376 551 q 296 582 328 582 q 258 578 278 582 q 201 530 215 565 q 206 454 186 494 q 260 402 221 424 q 333 358 299 381 q 390 319 361 342 q 442 267 419 297 q 467 196 464 236 q 415 42 475 94 q 256 -11 354 -11 m 464 972 l 496 944 l 300 726 l 264 726 l 68 944 l 100 972 l 282 832 l 464 972 z "},"ş":{"ha":515,"x_min":47,"x_max":475,"o":"m 256 -11 q 156 -1 208 -11 q 76 25 103 10 l 47 206 l 93 214 q 113 149 100 181 q 143 99 126 117 q 274 53 193 40 q 338 82 314 57 q 361 143 361 107 q 329 208 361 183 q 258 256 297 232 q 190 302 231 274 q 119 372 150 331 q 88 465 88 413 q 131 580 88 533 q 247 640 175 626 q 303 644 276 644 q 385 637 349 644 q 433 626 421 629 l 454 468 l 413 461 q 392 526 407 501 q 357 564 376 551 q 296 582 328 582 q 258 578 278 582 q 201 530 215 565 q 206 454 186 494 q 260 402 221 424 q 333 358 299 381 q 390 319 361 342 q 442 267 419 297 q 467 196 464 236 q 415 42 475 94 q 256 -11 354 -11 m 240 -333 q 169 -317 201 -333 q 118 -274 138 -300 l 140 -251 q 180 -281 157 -269 q 224 -292 203 -292 q 269 -272 253 -292 q 286 -225 286 -251 q 266 -170 286 -193 q 220 -133 246 -147 q 176 -115 194 -118 l 235 0 l 296 0 l 263 -64 q 337 -119 301 -85 q 372 -210 372 -153 q 335 -300 372 -267 q 240 -333 299 -333 z "},"ŝ":{"ha":515,"x_min":47,"x_max":496,"o":"m 256 -11 q 156 -1 208 -11 q 76 25 103 10 l 47 206 l 93 214 q 113 149 100 181 q 143 99 126 117 q 274 53 193 40 q 338 82 314 57 q 361 143 361 107 q 329 208 361 183 q 258 256 297 232 q 190 302 231 274 q 119 372 150 331 q 88 465 88 413 q 131 580 88 533 q 247 640 175 626 q 303 644 276 644 q 385 637 349 644 q 433 626 421 629 l 454 468 l 413 461 q 392 526 407 501 q 357 564 376 551 q 296 582 328 582 q 258 578 278 582 q 201 530 215 565 q 206 454 186 494 q 260 402 221 424 q 333 358 299 381 q 390 319 361 342 q 442 267 419 297 q 467 196 464 236 q 415 42 475 94 q 256 -11 354 -11 m 100 718 l 68 746 l 264 964 l 300 964 l 496 746 l 464 718 l 282 858 l 100 718 z "},"ș":{"ha":515,"x_min":47,"x_max":475,"o":"m 256 -11 q 156 -1 208 -11 q 76 25 103 10 l 47 206 l 93 214 q 113 149 100 181 q 143 99 126 117 q 274 53 193 40 q 338 82 314 57 q 361 143 361 107 q 329 208 361 183 q 258 256 297 232 q 190 302 231 274 q 119 372 150 331 q 88 465 88 413 q 131 580 88 533 q 247 640 175 626 q 303 644 276 644 q 385 637 349 644 q 433 626 421 629 l 454 468 l 413 461 q 392 526 407 501 q 357 564 376 551 q 296 582 328 582 q 258 578 278 582 q 201 530 215 565 q 206 454 186 494 q 260 402 221 424 q 333 358 299 381 q 390 319 361 342 q 442 267 419 297 q 467 196 464 236 q 415 42 475 94 q 256 -11 354 -11 m 188 -440 l 168 -414 q 231 -342 208 -383 q 254 -250 254 -300 l 253 -250 q 198 -228 219 -250 q 176 -175 176 -207 q 198 -121 176 -144 q 253 -97 219 -97 q 306 -119 285 -97 q 329 -178 326 -142 q 320 -267 333 -217 q 275 -363 307 -317 q 188 -440 243 -410 z "},"ß":{"ha":864,"x_min":39,"x_max":824,"o":"m 604 -11 q 515 -1 557 -11 q 447 25 472 10 l 417 206 l 463 214 q 480 147 469 181 q 507 96 490 114 q 560 57 535 67 q 622 51 586 47 q 688 81 661 56 q 714 143 714 107 q 683 233 714 196 q 607 310 651 271 q 519 390 564 347 q 444 478 474 432 q 419 534 425 510 q 415 582 414 558 q 458 688 417 628 q 513 751 479 717 q 579 814 547 785 q 588 888 588 838 q 578 935 588 911 q 524 1000 560 976 q 447 1026 489 1024 q 369 1013 404 1029 q 310 964 335 996 q 267 867 275 921 q 260 746 260 814 l 261 64 q 315 46 286 50 q 360 42 344 42 l 360 0 l 39 0 l 39 42 q 89 46 57 42 q 149 64 121 50 l 149 556 l 64 556 l 79 633 l 149 633 q 153 755 149 690 q 179 883 158 819 q 249 999 200 946 q 361 1081 299 1054 q 488 1107 424 1107 q 556 1094 518 1107 q 627 1053 593 1082 q 682 974 661 1024 q 697 897 697 936 q 694 855 697 874 q 685 817 690 836 q 595 740 632 774 q 540 686 558 706 q 509 642 519 663 q 499 600 499 622 q 510 559 499 576 q 544 519 522 542 q 617 455 574 490 q 692 393 660 419 q 745 342 718 372 q 792 274 772 311 q 815 196 813 238 q 764 42 824 94 q 604 -11 704 -11 z "},"ſ":{"ha":422,"x_min":39,"x_max":658,"o":"m 39 0 l 39 42 q 89 46 57 42 q 149 64 121 50 l 149 556 l 50 556 l 65 633 l 149 633 q 154 765 149 697 q 184 896 160 832 q 263 1013 208 960 q 369 1083 313 1061 q 482 1106 426 1106 q 583 1090 538 1107 q 658 1044 629 1074 l 561 950 q 483 1002 528 988 q 392 1006 438 1017 q 313 957 347 996 q 277 894 288 929 q 264 808 267 860 q 261 679 261 757 l 261 64 q 328 46 293 50 q 382 42 363 42 l 382 0 l 39 0 z "},"t":{"ha":429,"x_min":28,"x_max":410,"o":"m 219 -11 q 133 30 164 -11 q 101 142 101 71 l 101 556 l 28 556 l 28 599 q 85 642 56 615 q 140 699 114 668 q 186 753 167 729 l 214 740 l 214 633 l 407 633 l 407 556 l 214 556 l 214 176 q 219 112 214 133 q 243 78 224 90 q 291 68 261 67 q 349 77 321 69 q 390 92 378 85 l 410 57 q 365 29 396 46 q 296 1 335 13 q 219 -11 257 -11 z "},"ŧ":{"ha":429,"x_min":28,"x_max":410,"o":"m 219 -11 q 133 30 164 -11 q 101 142 101 71 l 101 324 l 35 324 l 35 376 l 101 376 l 101 556 l 28 556 l 28 599 q 85 642 56 615 q 140 699 114 668 q 186 753 167 729 l 214 740 l 214 633 l 407 633 l 407 556 l 214 556 l 214 376 l 378 376 l 378 324 l 214 324 l 214 176 q 219 112 214 133 q 243 78 224 90 q 291 68 261 67 q 349 77 321 69 q 390 92 378 85 l 410 57 q 365 29 396 46 q 296 1 335 13 q 219 -11 257 -11 z "},"ť":{"ha":429,"x_min":28,"x_max":417,"o":"m 369 736 l 322 735 l 311 1064 l 417 1068 l 369 736 m 219 -11 q 133 30 164 -11 q 101 142 101 71 l 101 556 l 28 556 l 28 599 q 85 642 56 615 q 140 699 114 668 q 186 753 167 729 l 214 740 l 214 633 l 407 633 l 407 556 l 214 556 l 214 176 q 219 112 214 133 q 243 78 224 90 q 291 68 261 67 q 349 77 321 69 q 390 92 378 85 l 410 57 q 365 29 396 46 q 296 1 335 13 q 219 -11 257 -11 z "},"ţ":{"ha":429,"x_min":28,"x_max":410,"o":"m 219 -11 q 133 30 164 -11 q 101 142 101 71 l 101 556 l 28 556 l 28 599 q 85 642 56 615 q 140 699 114 668 q 186 753 167 729 l 214 740 l 214 633 l 407 633 l 407 556 l 214 556 l 214 176 q 219 112 214 133 q 243 78 224 90 q 291 68 261 67 q 349 77 321 69 q 390 92 378 85 l 410 57 q 365 29 396 46 q 296 1 335 13 q 219 -11 257 -11 m 225 -333 q 154 -317 186 -333 q 103 -274 122 -300 l 125 -251 q 165 -281 142 -269 q 208 -292 188 -292 q 254 -272 238 -292 q 271 -225 271 -251 q 251 -170 271 -193 q 205 -133 231 -147 q 161 -115 179 -118 l 219 0 l 281 0 l 247 -64 q 322 -119 286 -85 q 357 -210 357 -153 q 320 -300 357 -267 q 225 -333 283 -333 z "},"ț":{"ha":429,"x_min":28,"x_max":410,"o":"m 219 -11 q 133 30 164 -11 q 101 142 101 71 l 101 556 l 28 556 l 28 599 q 85 642 56 615 q 140 699 114 668 q 186 753 167 729 l 214 740 l 214 633 l 407 633 l 407 556 l 214 556 l 214 176 q 219 112 214 133 q 243 78 224 90 q 291 68 261 67 q 349 77 321 69 q 390 92 378 85 l 410 57 q 365 29 396 46 q 296 1 335 13 q 219 -11 257 -11 m 172 -440 l 153 -414 q 216 -342 193 -383 q 239 -250 239 -300 l 238 -250 q 183 -228 204 -250 q 161 -175 161 -207 q 183 -121 161 -144 q 238 -97 204 -97 q 290 -119 269 -97 q 314 -178 311 -142 q 305 -267 318 -217 q 260 -363 292 -317 q 172 -440 228 -410 z "},"ṭ":{"ha":429,"x_min":28,"x_max":410,"o":"m 219 -11 q 133 30 164 -11 q 101 142 101 71 l 101 556 l 28 556 l 28 599 q 85 642 56 615 q 140 699 114 668 q 186 753 167 729 l 214 740 l 214 633 l 407 633 l 407 556 l 214 556 l 214 176 q 219 112 214 133 q 243 78 224 90 q 291 68 261 67 q 349 77 321 69 q 390 92 378 85 l 410 57 q 365 29 396 46 q 296 1 335 13 q 219 -11 257 -11 m 232 -251 q 177 -229 199 -251 q 156 -175 156 -207 q 177 -121 156 -144 q 232 -97 199 -97 q 288 -119 265 -97 q 310 -174 310 -142 q 288 -228 310 -204 q 232 -251 265 -251 z "},"u":{"ha":793,"x_min":36,"x_max":763,"o":"m 314 -11 q 224 11 263 -11 q 153 88 171 42 q 135 196 135 135 l 135 535 q 92 542 117 542 q 49 540 68 543 l 36 576 l 219 653 l 247 633 l 247 249 q 256 161 247 196 q 303 96 264 126 q 382 74 331 74 q 456 96 417 74 q 528 142 496 118 l 525 535 q 483 542 507 542 q 440 540 460 543 l 428 576 l 611 653 l 639 633 l 639 92 q 697 96 668 89 q 746 110 725 103 l 763 72 l 592 -11 q 538 34 549 4 q 528 88 528 64 q 425 22 482 54 q 314 -11 368 -11 z "},"ú":{"ha":793,"x_min":36,"x_max":763,"o":"m 314 -11 q 224 11 263 -11 q 153 88 171 42 q 135 196 135 135 l 135 535 q 92 542 117 542 q 49 540 68 543 l 36 576 l 219 653 l 247 633 l 247 249 q 256 161 247 196 q 303 96 264 126 q 382 74 331 74 q 456 96 417 74 q 528 142 496 118 l 525 535 q 483 542 507 542 q 440 540 460 543 l 428 576 l 611 653 l 639 633 l 639 92 q 697 96 668 89 q 746 110 725 103 l 763 72 l 592 -11 q 538 34 549 4 q 528 88 528 64 q 425 22 482 54 q 314 -11 368 -11 m 365 718 l 329 749 l 542 1001 l 622 935 l 365 718 z "},"ŭ":{"ha":793,"x_min":36,"x_max":763,"o":"m 314 -11 q 224 11 263 -11 q 153 88 171 42 q 135 196 135 135 l 135 535 q 92 542 117 542 q 49 540 68 543 l 36 576 l 219 653 l 247 633 l 247 249 q 256 161 247 196 q 303 96 264 126 q 382 74 331 74 q 456 96 417 74 q 528 142 496 118 l 525 535 q 483 542 507 542 q 440 540 460 543 l 428 576 l 611 653 l 639 633 l 639 92 q 697 96 668 89 q 746 110 725 103 l 763 72 l 592 -11 q 538 34 549 4 q 528 88 528 64 q 425 22 482 54 q 314 -11 368 -11 m 399 776 q 278 819 331 775 q 203 947 226 863 l 238 958 q 301 889 261 908 q 399 869 342 869 q 496 889 454 869 q 560 958 538 908 l 594 947 q 519 820 571 863 q 399 776 468 778 z "},"û":{"ha":793,"x_min":36,"x_max":763,"o":"m 314 -11 q 224 11 263 -11 q 153 88 171 42 q 135 196 135 135 l 135 535 q 92 542 117 542 q 49 540 68 543 l 36 576 l 219 653 l 247 633 l 247 249 q 256 161 247 196 q 303 96 264 126 q 382 74 331 74 q 456 96 417 74 q 528 142 496 118 l 525 535 q 483 542 507 542 q 440 540 460 543 l 428 576 l 611 653 l 639 633 l 639 92 q 697 96 668 89 q 746 110 725 103 l 763 72 l 592 -11 q 538 34 549 4 q 528 88 528 64 q 425 22 482 54 q 314 -11 368 -11 m 217 718 l 185 746 l 381 964 l 417 964 l 613 746 l 581 718 l 399 858 l 217 718 z "},"ü":{"ha":793,"x_min":36,"x_max":763,"o":"m 314 -11 q 224 11 263 -11 q 153 88 171 42 q 135 196 135 135 l 135 535 q 92 542 117 542 q 49 540 68 543 l 36 576 l 219 653 l 247 633 l 247 249 q 256 161 247 196 q 303 96 264 126 q 382 74 331 74 q 456 96 417 74 q 528 142 496 118 l 525 535 q 483 542 507 542 q 440 540 460 543 l 428 576 l 611 653 l 639 633 l 639 92 q 697 96 668 89 q 746 110 725 103 l 763 72 l 592 -11 q 538 34 549 4 q 528 88 528 64 q 425 22 482 54 q 314 -11 368 -11 m 272 761 q 224 781 243 761 q 204 828 204 800 q 224 876 204 856 q 272 897 243 897 q 322 878 301 897 q 342 831 342 858 q 322 782 342 803 q 272 761 301 761 m 524 761 q 475 781 494 761 q 456 828 456 800 q 475 876 456 856 q 524 897 494 897 q 573 878 553 897 q 593 831 593 858 q 573 782 593 803 q 524 761 553 761 z "},"ụ":{"ha":793,"x_min":36,"x_max":763,"o":"m 314 -11 q 224 11 263 -11 q 153 88 171 42 q 135 196 135 135 l 135 535 q 92 542 117 542 q 49 540 68 543 l 36 576 l 219 653 l 247 633 l 247 249 q 256 161 247 196 q 303 96 264 126 q 382 74 331 74 q 456 96 417 74 q 528 142 496 118 l 525 535 q 483 542 507 542 q 440 540 460 543 l 428 576 l 611 653 l 639 633 l 639 92 q 697 96 668 89 q 746 110 725 103 l 763 72 l 592 -11 q 538 34 549 4 q 528 88 528 64 q 425 22 482 54 q 314 -11 368 -11 m 397 -251 q 342 -229 364 -251 q 321 -175 321 -207 q 342 -121 321 -144 q 397 -97 364 -97 q 453 -119 431 -97 q 475 -174 475 -142 q 453 -228 475 -204 q 397 -251 431 -251 z "},"ù":{"ha":793,"x_min":36,"x_max":763,"o":"m 314 -11 q 224 11 263 -11 q 153 88 171 42 q 135 196 135 135 l 135 535 q 92 542 117 542 q 49 540 68 543 l 36 576 l 219 653 l 247 633 l 247 249 q 256 161 247 196 q 303 96 264 126 q 382 74 331 74 q 456 96 417 74 q 528 142 496 118 l 525 535 q 483 542 507 542 q 440 540 460 543 l 428 576 l 611 653 l 639 633 l 639 92 q 697 96 668 89 q 746 110 725 103 l 763 72 l 592 -11 q 538 34 549 4 q 528 88 528 64 q 425 22 482 54 q 314 -11 368 -11 m 432 718 l 175 935 l 256 1001 l 468 749 l 432 718 z "},"ű":{"ha":793,"x_min":36,"x_max":763,"o":"m 314 -11 q 224 11 263 -11 q 153 88 171 42 q 135 196 135 135 l 135 535 q 92 542 117 542 q 49 540 68 543 l 36 576 l 219 653 l 247 633 l 247 249 q 256 161 247 196 q 303 96 264 126 q 382 74 331 74 q 456 96 417 74 q 528 142 496 118 l 525 535 q 483 542 507 542 q 440 540 460 543 l 428 576 l 611 653 l 639 633 l 639 92 q 697 96 668 89 q 746 110 725 103 l 763 72 l 592 -11 q 538 34 549 4 q 528 88 528 64 q 425 22 482 54 q 314 -11 368 -11 m 507 718 l 468 738 l 564 999 l 654 956 l 507 718 m 317 707 l 278 726 l 374 988 l 464 944 l 317 707 z "},"ū":{"ha":793,"x_min":36,"x_max":763,"o":"m 314 -11 q 224 11 263 -11 q 153 88 171 42 q 135 196 135 135 l 135 535 q 92 542 117 542 q 49 540 68 543 l 36 576 l 219 653 l 247 633 l 247 249 q 256 161 247 196 q 303 96 264 126 q 382 74 331 74 q 456 96 417 74 q 528 142 496 118 l 525 535 q 483 542 507 542 q 440 540 460 543 l 428 576 l 611 653 l 639 633 l 639 92 q 697 96 668 89 q 746 110 725 103 l 763 72 l 592 -11 q 538 34 549 4 q 528 88 528 64 q 425 22 482 54 q 314 -11 368 -11 m 190 799 l 190 865 l 607 865 l 607 799 l 190 799 z "},"ų":{"ha":793,"x_min":36,"x_max":763,"o":"m 314 -11 q 224 11 263 -11 q 153 88 171 42 q 135 196 135 135 l 135 535 q 92 542 117 542 q 49 540 68 543 l 36 576 l 219 653 l 247 633 l 247 249 q 256 161 247 196 q 303 96 264 126 q 382 74 331 74 q 456 96 417 74 q 528 142 496 118 l 525 535 q 483 542 507 542 q 440 540 460 543 l 428 576 l 611 653 l 639 633 l 639 92 q 697 96 668 89 q 746 110 725 103 l 763 72 l 606 -4 q 588 -19 599 -10 q 519 -108 544 -65 q 493 -187 493 -151 q 513 -244 493 -222 q 569 -267 533 -267 q 608 -259 589 -267 q 638 -242 626 -251 l 653 -264 q 591 -313 629 -293 q 519 -333 553 -333 q 433 -308 468 -333 q 397 -225 397 -282 q 435 -113 397 -167 q 554 0 474 -60 l 561 6 q 534 45 540 22 q 528 88 528 68 q 425 22 482 54 q 314 -11 368 -11 z "},"ů":{"ha":793,"x_min":36,"x_max":763,"o":"m 314 -11 q 224 11 263 -11 q 153 88 171 42 q 135 196 135 135 l 135 535 q 92 542 117 542 q 49 540 68 543 l 36 576 l 219 653 l 247 633 l 247 249 q 256 161 247 196 q 303 96 264 126 q 382 74 331 74 q 456 96 417 74 q 528 142 496 118 l 525 535 q 483 542 507 542 q 440 540 460 543 l 428 576 l 611 653 l 639 633 l 639 92 q 697 96 668 89 q 746 110 725 103 l 763 72 l 592 -11 q 538 34 549 4 q 528 88 528 64 q 425 22 482 54 q 314 -11 368 -11 m 397 761 q 307 797 346 761 q 268 890 268 833 q 306 984 268 944 q 396 1024 343 1024 q 488 985 450 1024 q 525 893 525 946 q 488 801 525 840 q 397 761 450 761 m 404 807 q 447 827 431 810 q 464 882 464 844 q 442 947 464 915 q 389 978 421 978 q 347 957 365 978 q 329 904 329 936 q 350 837 329 869 q 404 807 371 804 z "},"ũ":{"ha":793,"x_min":36,"x_max":763,"o":"m 314 -11 q 224 11 263 -11 q 153 88 171 42 q 135 196 135 135 l 135 535 q 92 542 117 542 q 49 540 68 543 l 36 576 l 219 653 l 247 633 l 247 249 q 256 161 247 196 q 303 96 264 126 q 382 74 331 74 q 456 96 417 74 q 528 142 496 118 l 525 535 q 483 542 507 542 q 440 540 460 543 l 428 576 l 611 653 l 639 633 l 639 92 q 697 96 668 89 q 746 110 725 103 l 763 72 l 592 -11 q 538 34 549 4 q 528 88 528 64 q 425 22 482 54 q 314 -11 368 -11 m 213 754 l 183 769 q 217 828 196 796 q 267 886 238 861 q 332 913 297 911 q 394 905 368 915 q 442 880 421 894 q 483 854 463 865 q 529 844 504 843 q 590 869 569 847 q 628 921 610 890 l 657 906 q 624 848 646 881 q 574 790 603 815 q 508 763 544 765 q 447 772 474 761 q 400 797 421 782 q 358 822 379 811 q 311 832 336 833 q 251 806 271 829 q 213 754 232 783 z "},"v":{"ha":711,"x_min":14,"x_max":697,"o":"m 326 -19 l 99 571 q 52 588 76 583 q 14 592 28 592 l 14 633 l 315 633 l 315 592 q 271 588 300 592 q 217 569 242 583 l 217 568 l 372 160 l 538 568 l 538 569 q 483 588 513 583 q 439 592 454 592 l 439 633 l 697 633 l 697 592 q 660 588 683 592 q 613 571 636 583 l 374 -19 l 326 -19 z "},"w":{"ha":1000,"x_min":14,"x_max":986,"o":"m 303 -19 l 101 569 q 53 588 79 583 q 14 592 28 592 l 14 633 l 314 633 l 314 592 q 269 588 299 592 q 215 569 240 583 l 353 169 l 504 565 l 551 565 l 694 174 l 829 569 q 775 588 804 583 q 731 592 746 592 l 731 633 l 986 633 l 986 592 q 947 588 972 592 q 899 569 922 583 l 697 -19 l 649 -19 l 504 381 l 350 -19 l 303 -19 z "},"ẃ":{"ha":1000,"x_min":14,"x_max":986,"o":"m 303 -19 l 101 569 q 53 588 79 583 q 14 592 28 592 l 14 633 l 314 633 l 314 592 q 269 588 299 592 q 215 569 240 583 l 353 169 l 504 565 l 551 565 l 694 174 l 829 569 q 775 588 804 583 q 731 592 746 592 l 731 633 l 986 633 l 986 592 q 947 588 972 592 q 899 569 922 583 l 697 -19 l 649 -19 l 504 381 l 350 -19 l 303 -19 m 489 718 l 453 749 l 665 1001 l 746 935 l 489 718 z "},"ŵ":{"ha":1000,"x_min":14,"x_max":986,"o":"m 303 -19 l 101 569 q 53 588 79 583 q 14 592 28 592 l 14 633 l 314 633 l 314 592 q 269 588 299 592 q 215 569 240 583 l 353 169 l 504 565 l 551 565 l 694 174 l 829 569 q 775 588 804 583 q 731 592 746 592 l 731 633 l 986 633 l 986 592 q 947 588 972 592 q 899 569 922 583 l 697 -19 l 649 -19 l 504 381 l 350 -19 l 303 -19 m 340 718 l 308 746 l 504 964 l 540 964 l 736 746 l 704 718 l 522 858 l 340 718 z "},"ẅ":{"ha":1000,"x_min":14,"x_max":986,"o":"m 303 -19 l 101 569 q 53 588 79 583 q 14 592 28 592 l 14 633 l 314 633 l 314 592 q 269 588 299 592 q 215 569 240 583 l 353 169 l 504 565 l 551 565 l 694 174 l 829 569 q 775 588 804 583 q 731 592 746 592 l 731 633 l 986 633 l 986 592 q 947 588 972 592 q 899 569 922 583 l 697 -19 l 649 -19 l 504 381 l 350 -19 l 303 -19 m 396 761 q 347 781 367 761 q 328 828 328 800 q 347 876 328 856 q 396 897 367 897 q 445 878 425 897 q 465 831 465 858 q 445 782 465 803 q 396 761 425 761 m 647 761 q 599 781 618 761 q 579 828 579 800 q 599 876 579 856 q 647 897 618 897 q 697 878 676 897 q 717 831 717 858 q 697 782 717 803 q 647 761 676 761 z "},"ẁ":{"ha":1000,"x_min":14,"x_max":986,"o":"m 303 -19 l 101 569 q 53 588 79 583 q 14 592 28 592 l 14 633 l 314 633 l 314 592 q 269 588 299 592 q 215 569 240 583 l 353 169 l 504 565 l 551 565 l 694 174 l 829 569 q 775 588 804 583 q 731 592 746 592 l 731 633 l 986 633 l 986 592 q 947 588 972 592 q 899 569 922 583 l 697 -19 l 649 -19 l 504 381 l 350 -19 l 303 -19 m 556 718 l 299 935 l 379 1001 l 592 749 l 556 718 z "},"x":{"ha":676,"x_min":14,"x_max":663,"o":"m 14 0 l 14 42 q 51 46 26 42 q 97 61 75 50 l 282 308 l 104 572 q 58 588 82 583 q 21 592 33 592 l 21 633 l 324 633 l 324 592 q 285 588 310 592 q 236 569 260 583 l 354 394 l 488 569 q 442 588 467 583 q 406 592 418 592 l 406 633 l 649 633 l 649 592 q 612 588 636 592 q 565 571 588 583 l 390 340 l 578 63 q 624 46 600 50 q 663 42 649 42 l 663 0 l 360 0 l 360 42 q 399 46 374 42 q 447 64 425 50 l 318 254 l 175 64 q 220 46 196 50 q 257 42 244 42 l 257 0 l 14 0 z "},"y":{"ha":713,"x_min":14,"x_max":699,"o":"m 151 -387 l 72 -283 q 140 -233 108 -261 q 199 -172 172 -206 q 258 -86 226 -140 q 313 15 289 -32 l 99 571 q 52 588 76 583 q 14 592 28 592 l 14 633 l 315 633 l 315 592 q 271 588 300 592 q 217 569 242 583 l 215 567 l 372 161 l 538 568 l 538 569 q 483 588 513 583 q 439 592 454 592 l 439 633 l 699 633 l 699 592 q 660 588 685 592 q 611 568 635 583 l 357 -60 q 327 -129 347 -86 q 285 -216 307 -172 q 243 -289 263 -260 q 197 -350 217 -328 q 151 -387 176 -372 z "},"ý":{"ha":713,"x_min":14,"x_max":699,"o":"m 151 -387 l 72 -283 q 140 -233 108 -261 q 199 -172 172 -206 q 258 -86 226 -140 q 313 15 289 -32 l 99 571 q 52 588 76 583 q 14 592 28 592 l 14 633 l 315 633 l 315 592 q 271 588 300 592 q 217 569 242 583 l 215 567 l 372 161 l 538 568 l 538 569 q 483 588 513 583 q 439 592 454 592 l 439 633 l 699 633 l 699 592 q 660 588 685 592 q 611 568 635 583 l 357 -60 q 327 -129 347 -86 q 285 -216 307 -172 q 243 -289 263 -260 q 197 -350 217 -328 q 151 -387 176 -372 m 339 718 l 303 749 l 515 1001 l 596 935 l 339 718 z "},"ŷ":{"ha":713,"x_min":14,"x_max":699,"o":"m 151 -387 l 72 -283 q 140 -233 108 -261 q 199 -172 172 -206 q 258 -86 226 -140 q 313 15 289 -32 l 99 571 q 52 588 76 583 q 14 592 28 592 l 14 633 l 315 633 l 315 592 q 271 588 300 592 q 217 569 242 583 l 215 567 l 372 161 l 538 568 l 538 569 q 483 588 513 583 q 439 592 454 592 l 439 633 l 699 633 l 699 592 q 660 588 685 592 q 611 568 635 583 l 357 -60 q 327 -129 347 -86 q 285 -216 307 -172 q 243 -289 263 -260 q 197 -350 217 -328 q 151 -387 176 -372 m 190 718 l 158 746 l 354 964 l 390 964 l 586 746 l 554 718 l 372 858 l 190 718 z "},"ÿ":{"ha":713,"x_min":14,"x_max":699,"o":"m 151 -387 l 72 -283 q 140 -233 108 -261 q 199 -172 172 -206 q 258 -86 226 -140 q 313 15 289 -32 l 99 571 q 52 588 76 583 q 14 592 28 592 l 14 633 l 315 633 l 315 592 q 271 588 300 592 q 217 569 242 583 l 215 567 l 372 161 l 538 568 l 538 569 q 483 588 513 583 q 439 592 454 592 l 439 633 l 699 633 l 699 592 q 660 588 685 592 q 611 568 635 583 l 357 -60 q 327 -129 347 -86 q 285 -216 307 -172 q 243 -289 263 -260 q 197 -350 217 -328 q 151 -387 176 -372 m 246 761 q 197 781 217 761 q 178 828 178 800 q 197 876 178 856 q 246 897 217 897 q 295 878 275 897 q 315 831 315 858 q 295 782 315 803 q 246 761 275 761 m 497 761 q 449 781 468 761 q 429 828 429 800 q 449 876 429 856 q 497 897 468 897 q 547 878 526 897 q 567 831 567 858 q 547 782 567 803 q 497 761 526 761 z "},"ỳ":{"ha":713,"x_min":14,"x_max":699,"o":"m 151 -387 l 72 -283 q 140 -233 108 -261 q 199 -172 172 -206 q 258 -86 226 -140 q 313 15 289 -32 l 99 571 q 52 588 76 583 q 14 592 28 592 l 14 633 l 315 633 l 315 592 q 271 588 300 592 q 217 569 242 583 l 215 567 l 372 161 l 538 568 l 538 569 q 483 588 513 583 q 439 592 454 592 l 439 633 l 699 633 l 699 592 q 660 588 685 592 q 611 568 635 583 l 357 -60 q 327 -129 347 -86 q 285 -216 307 -172 q 243 -289 263 -260 q 197 -350 217 -328 q 151 -387 176 -372 m 406 718 l 149 935 l 229 1001 l 442 749 l 406 718 z "},"ȳ":{"ha":713,"x_min":14,"x_max":699,"o":"m 151 -387 l 72 -283 q 140 -233 108 -261 q 199 -172 172 -206 q 258 -86 226 -140 q 313 15 289 -32 l 99 571 q 52 588 76 583 q 14 592 28 592 l 14 633 l 315 633 l 315 592 q 271 588 300 592 q 217 569 242 583 l 215 567 l 372 161 l 538 568 l 538 569 q 483 588 513 583 q 439 592 454 592 l 439 633 l 699 633 l 699 592 q 660 588 685 592 q 611 568 635 583 l 357 -60 q 327 -129 347 -86 q 285 -216 307 -172 q 243 -289 263 -260 q 197 -350 217 -328 q 151 -387 176 -372 m 164 799 l 164 865 l 581 865 l 581 799 l 164 799 z "},"ỹ":{"ha":713,"x_min":14,"x_max":699,"o":"m 151 -387 l 72 -283 q 140 -233 108 -261 q 199 -172 172 -206 q 258 -86 226 -140 q 313 15 289 -32 l 99 571 q 52 588 76 583 q 14 592 28 592 l 14 633 l 315 633 l 315 592 q 271 588 300 592 q 217 569 242 583 l 215 567 l 372 161 l 538 568 l 538 569 q 483 588 513 583 q 439 592 454 592 l 439 633 l 699 633 l 699 592 q 660 588 685 592 q 611 568 635 583 l 357 -60 q 327 -129 347 -86 q 285 -216 307 -172 q 243 -289 263 -260 q 197 -350 217 -328 q 151 -387 176 -372 m 186 754 l 157 769 q 190 828 169 796 q 241 886 211 861 q 306 913 271 911 q 368 905 342 915 q 415 880 394 894 q 457 854 436 865 q 503 844 478 843 q 563 869 543 847 q 601 921 583 890 l 631 906 q 598 848 619 881 q 547 790 576 815 q 482 763 518 765 q 421 772 447 761 q 374 797 394 782 q 331 822 353 811 q 285 832 310 833 q 225 806 244 829 q 186 754 206 783 z "},"z":{"ha":635,"x_min":47,"x_max":588,"o":"m 61 0 l 47 33 l 403 564 l 142 564 q 124 489 131 525 q 110 417 117 453 l 69 419 l 78 633 l 543 633 l 557 599 l 201 69 l 474 69 q 508 126 492 94 q 535 185 524 158 q 549 219 546 211 l 588 208 l 539 0 l 61 0 z "},"ź":{"ha":635,"x_min":47,"x_max":588,"o":"m 61 0 l 47 33 l 403 564 l 142 564 q 124 489 131 525 q 110 417 117 453 l 69 419 l 78 633 l 543 633 l 557 599 l 201 69 l 474 69 q 508 126 492 94 q 535 185 524 158 q 549 219 546 211 l 588 208 l 539 0 l 61 0 m 268 718 l 232 749 l 444 1001 l 525 935 l 268 718 z "},"ž":{"ha":635,"x_min":47,"x_max":588,"o":"m 61 0 l 47 33 l 403 564 l 142 564 q 124 489 131 525 q 110 417 117 453 l 69 419 l 78 633 l 543 633 l 557 599 l 201 69 l 474 69 q 508 126 492 94 q 535 185 524 158 q 549 219 546 211 l 588 208 l 539 0 l 61 0 m 483 972 l 515 944 l 319 726 l 283 726 l 88 944 l 119 972 l 301 832 l 483 972 z "},"ẑ":{"ha":635,"x_min":47,"x_max":588,"o":"m 61 0 l 47 33 l 403 564 l 142 564 q 124 489 131 525 q 110 417 117 453 l 69 419 l 78 633 l 543 633 l 557 599 l 201 69 l 474 69 q 508 126 492 94 q 535 185 524 158 q 549 219 546 211 l 588 208 l 539 0 l 61 0 m 119 718 l 88 746 l 283 964 l 319 964 l 515 746 l 483 718 l 301 858 l 119 718 z "},"ż":{"ha":635,"x_min":47,"x_max":588,"o":"m 61 0 l 47 33 l 403 564 l 142 564 q 124 489 131 525 q 110 417 117 453 l 69 419 l 78 633 l 543 633 l 557 599 l 201 69 l 474 69 q 508 126 492 94 q 535 185 524 158 q 549 219 546 211 l 588 208 l 539 0 l 61 0 m 293 785 q 238 807 260 785 q 217 861 217 829 q 238 915 217 892 q 293 939 260 939 q 349 917 326 939 q 371 863 371 894 q 349 808 371 832 q 293 785 326 785 z "},"ᴀ":{"ha":764,"x_min":6,"x_max":772,"o":"m 6 0 l 6 38 q 49 42 21 38 q 104 56 78 46 l 349 660 l 333 701 l 431 736 l 676 57 q 729 42 701 46 q 772 38 757 38 l 772 0 l 457 0 l 457 38 q 507 42 475 38 q 567 57 539 46 l 507 221 l 247 221 l 181 57 q 240 42 208 46 q 290 38 272 38 l 290 0 l 6 0 m 272 285 l 485 285 l 385 561 l 272 285 z "},"ʙ":{"ha":701,"x_min":69,"x_max":675,"o":"m 69 0 l 69 38 q 119 42 88 38 q 179 57 151 46 l 179 651 q 121 661 151 660 q 72 660 90 663 l 69 697 l 124 701 q 252 713 185 708 q 392 718 319 718 q 513 692 463 718 q 586 615 564 665 q 590 499 613 560 q 515 404 568 438 q 570 372 540 393 q 626 322 600 351 q 661 250 651 292 q 652 138 675 196 q 569 40 629 79 q 415 0 510 0 l 69 0 m 292 403 q 340 403 311 401 q 397 412 368 406 q 444 431 426 418 q 488 492 476 451 q 483 574 499 533 q 417 644 463 622 q 292 657 371 665 l 292 403 m 467 69 q 538 128 517 85 q 544 224 558 171 q 510 288 536 260 q 443 331 483 317 q 368 348 408 344 q 292 350 328 351 l 292 78 q 338 63 307 68 q 405 60 369 58 q 467 69 440 61 z "},"ᴄ":{"ha":776,"x_min":63,"x_max":742,"o":"m 658 15 q 396 -8 515 -24 q 195 75 276 8 q 82 256 114 142 q 73 399 63 328 q 120 533 83 471 q 215 640 157 594 q 350 706 274 685 q 476 718 413 722 q 593 702 540 714 q 675 682 646 690 l 699 526 l 657 518 q 597 606 640 572 q 494 651 554 640 q 368 646 435 663 q 255 578 300 629 q 195 452 210 526 q 203 288 181 378 q 273 154 222 213 q 390 68 324 96 q 524 53 457 40 q 622 94 583 64 q 704 193 661 125 l 742 172 l 658 15 z "},"ᴅ":{"ha":910,"x_min":69,"x_max":840,"o":"m 69 0 l 69 38 q 119 42 88 38 q 179 57 151 46 l 179 649 q 120 658 151 657 q 72 657 89 660 l 69 694 l 86 696 q 234 710 156 703 q 386 718 313 718 q 484 713 435 718 q 581 693 533 708 q 738 603 672 665 q 828 451 803 540 q 840 367 840 408 q 804 217 840 289 q 702 94 768 146 q 549 18 636 42 q 471 5 521 10 q 369 0 421 0 l 69 0 m 432 58 q 531 71 481 58 q 667 171 619 94 q 715 340 715 247 q 713 379 715 360 q 704 419 710 399 q 588 592 678 526 q 365 658 497 658 q 292 654 329 658 l 292 85 q 432 58 360 58 z "},"ᴇ":{"ha":681,"x_min":69,"x_max":646,"o":"m 69 0 l 69 38 q 119 42 88 38 q 179 57 151 46 l 179 650 q 119 665 151 661 q 69 669 88 669 l 69 707 l 581 707 l 586 546 l 547 543 q 542 590 546 563 q 526 643 538 617 l 292 643 l 292 388 l 463 388 q 474 435 472 411 q 475 474 475 460 l 514 474 l 514 239 l 475 239 q 474 277 475 253 q 463 324 472 301 l 292 324 l 292 64 l 539 64 q 570 115 556 86 q 595 168 585 143 q 607 200 606 193 l 646 190 l 604 0 l 69 0 z "},"ꜰ":{"ha":621,"x_min":69,"x_max":586,"o":"m 69 0 l 69 38 q 119 42 88 38 q 179 57 151 46 l 179 650 q 119 665 151 661 q 69 669 88 669 l 69 707 l 581 707 l 586 546 l 547 543 q 542 590 546 563 q 526 643 538 617 l 292 643 l 292 371 l 456 371 q 467 419 465 394 q 468 457 468 443 l 506 457 l 506 222 l 468 222 q 467 260 468 236 q 456 307 465 285 l 292 307 l 292 57 q 359 42 324 46 q 414 38 394 38 l 414 0 l 69 0 z "},"ɢ":{"ha":851,"x_min":63,"x_max":796,"o":"m 436 -10 q 208 69 303 -1 q 82 257 113 140 q 74 401 63 329 q 122 533 85 472 q 218 640 160 594 q 350 704 276 685 q 482 717 413 721 q 610 703 551 714 q 696 682 668 692 l 719 526 l 676 518 q 613 607 660 572 q 501 653 565 642 q 368 646 438 664 q 257 574 301 628 q 197 444 213 519 q 203 288 182 368 q 253 180 218 233 q 343 90 289 126 q 466 47 397 53 q 615 78 535 40 l 615 228 q 563 243 592 239 q 519 247 535 247 l 519 285 l 796 285 l 796 247 q 763 243 783 247 q 722 228 742 239 l 722 82 q 735 72 725 78 q 754 64 746 67 l 754 18 q 658 9 707 18 q 555 -7 610 0 q 436 -10 500 -14 z "},"ʜ":{"ha":950,"x_min":69,"x_max":881,"o":"m 69 0 l 69 38 q 119 42 88 38 q 179 57 151 46 l 179 650 q 119 665 151 661 q 69 669 88 669 l 69 707 l 401 707 l 401 669 q 351 665 383 669 q 292 650 319 661 l 292 390 l 658 390 l 658 650 q 599 665 631 661 q 549 669 567 669 l 549 707 l 881 707 l 881 669 q 831 665 863 669 q 771 650 799 661 l 771 57 q 831 42 799 46 q 881 38 863 38 l 881 0 l 549 0 l 549 38 q 599 42 567 38 q 658 57 631 46 l 658 326 l 292 326 l 292 57 q 351 42 319 46 q 401 38 383 38 l 401 0 l 69 0 z "},"ɪ":{"ha":471,"x_min":69,"x_max":401,"o":"m 69 0 l 69 38 q 119 42 88 38 q 179 57 151 46 l 179 650 q 119 665 151 661 q 69 669 88 669 l 69 707 l 401 707 l 401 669 q 351 665 383 669 q 292 650 319 661 l 292 57 q 351 42 319 46 q 401 38 383 38 l 401 0 l 69 0 z "},"ᴊ":{"ha":472,"x_min":64,"x_max":403,"o":"m 92 -343 l 64 -312 q 141 -185 108 -262 q 179 -15 174 -107 q 181 -6 181 -10 q 181 4 181 -1 l 181 650 q 121 665 153 661 q 71 669 89 669 l 71 707 l 403 707 l 403 669 q 353 665 385 669 q 293 650 321 661 l 293 0 q 251 -135 281 -74 q 188 -240 221 -196 q 127 -311 154 -285 q 92 -343 100 -337 z "},"ᴋ":{"ha":793,"x_min":69,"x_max":801,"o":"m 794 -37 q 676 -26 721 -37 q 603 8 632 -14 q 546 58 574 31 q 506 107 531 74 q 452 181 481 140 q 396 260 424 221 q 347 331 368 300 q 317 374 326 361 l 574 650 q 518 665 547 661 q 474 669 489 669 l 474 707 l 771 707 l 771 669 q 722 666 753 669 q 664 651 692 663 l 431 400 q 471 344 446 379 q 525 269 496 310 q 583 192 554 229 q 635 128 613 154 q 681 74 661 97 q 728 33 701 50 q 801 0 756 15 l 794 -37 m 69 0 l 69 38 q 119 42 88 38 q 179 57 151 46 l 179 650 q 119 665 151 661 q 69 669 88 669 l 69 707 l 401 707 l 401 669 q 351 665 383 669 q 292 650 319 661 l 292 57 q 355 42 321 46 q 407 38 389 38 l 407 0 l 69 0 z "},"ʟ":{"ha":667,"x_min":69,"x_max":661,"o":"m 69 0 l 69 38 q 119 42 88 38 q 179 57 151 46 l 179 650 q 119 665 151 661 q 69 669 88 669 l 69 707 l 401 707 l 401 669 q 351 665 383 669 q 292 650 319 661 l 292 64 l 550 64 q 579 108 564 82 q 607 158 594 133 q 624 193 619 182 l 661 181 l 604 0 l 69 0 z "},"ᴍ":{"ha":1065,"x_min":56,"x_max":996,"o":"m 56 0 l 56 38 q 106 42 74 38 q 165 57 138 46 l 196 650 q 136 665 168 661 q 86 669 104 669 l 86 707 l 322 707 l 524 210 l 779 707 l 974 707 l 974 669 q 924 665 956 669 q 864 650 892 661 l 886 57 q 946 42 914 46 q 996 38 978 38 l 996 0 l 664 0 l 664 38 q 714 42 682 38 q 774 57 746 46 l 756 519 l 488 0 l 258 564 l 232 57 q 292 42 260 46 q 342 38 324 38 l 342 0 l 56 0 z "},"ɴ":{"ha":883,"x_min":56,"x_max":828,"o":"m 658 -11 l 232 554 l 232 57 q 292 42 260 46 q 342 38 324 38 l 342 0 l 56 0 l 56 38 q 106 42 74 38 q 165 57 138 46 l 165 650 q 106 665 138 661 q 56 669 74 669 l 56 707 l 258 707 l 651 185 l 651 650 q 592 665 624 661 q 542 669 560 669 l 542 707 l 828 707 l 828 669 q 778 665 810 669 q 718 650 746 661 l 718 -11 l 658 -11 z "},"ᴏ":{"ha":878,"x_min":69,"x_max":808,"o":"m 436 -11 q 296 15 364 -11 q 176 92 228 42 q 96 214 124 143 q 69 349 69 279 q 98 490 69 422 q 179 610 126 557 q 303 692 232 664 q 371 712 336 706 q 440 718 406 718 q 580 692 513 718 q 701 615 647 665 q 782 493 754 564 q 802 427 796 461 q 808 360 808 393 q 780 219 808 288 q 699 98 751 151 q 575 15 647 44 q 436 -11 508 -11 m 476 53 q 515 57 496 53 q 551 68 533 61 q 651 160 615 94 q 688 310 688 226 q 681 378 688 343 q 661 447 674 413 q 594 557 636 511 q 501 628 551 603 q 399 654 450 654 q 326 640 360 654 q 226 547 263 614 q 189 399 189 481 q 196 331 189 365 q 215 261 203 296 q 325 109 251 165 q 476 53 399 53 z "},"ᴘ":{"ha":717,"x_min":69,"x_max":654,"o":"m 69 0 l 69 38 q 119 42 88 38 q 179 57 151 46 l 179 651 q 121 661 151 660 q 72 660 90 663 l 69 697 l 121 701 q 247 713 183 708 q 368 718 311 718 q 490 692 429 718 q 593 620 550 667 q 644 508 636 574 q 622 376 654 435 q 523 285 589 317 q 364 258 457 253 l 358 303 q 501 360 464 308 q 524 492 538 413 q 485 584 515 543 q 406 647 454 625 q 292 657 357 668 l 292 57 q 359 42 324 46 q 414 38 394 38 l 414 0 l 69 0 z "},"ʀ":{"ha":763,"x_min":69,"x_max":771,"o":"m 761 -28 q 644 -12 689 -24 q 569 22 599 0 q 511 75 539 44 q 465 140 492 97 q 413 231 439 183 q 367 311 386 278 q 330 306 349 308 q 292 300 311 303 l 292 57 q 355 42 321 46 q 407 38 389 38 l 407 0 l 69 0 l 69 38 q 119 42 88 38 q 179 57 151 46 l 179 651 q 120 661 151 660 q 72 660 89 663 l 69 697 l 92 699 q 228 712 160 706 q 371 718 297 718 q 519 690 457 718 q 604 604 582 663 q 613 522 618 569 q 574 426 607 474 q 471 346 540 379 q 536 241 499 299 q 608 139 574 183 q 656 83 635 106 q 703 43 676 60 q 771 10 729 26 l 761 -28 m 292 347 q 414 382 364 351 q 485 459 464 413 q 492 556 507 506 q 292 656 458 669 l 292 347 z "}}}
